{"glyphs":{"0":{"ha":604,"x_min":0,"x_max":0,"o":"m 303 -39 b 49 467 133 -39 49 132 b 303 972 49 593 49 972 b 556 467 529 972 556 685 b 303 -39 556 47 418 -39 m 303 869 b 157 467 204 869 157 733 b 303 64 157 317 174 64 b 447 467 394 64 447 217 b 303 869 447 867 338 869 "},"1":{"ha":363,"x_min":0,"x_max":0,"o":"m 171 782 b 69 686 115 706 86 686 b 11 750 36 686 11 725 b 26 764 11 760 18 761 b 181 950 58 775 181 950 b 222 972 190 964 206 972 b 276 918 250 972 276 946 l 276 7 b 238 -25 276 -17 258 -25 b 171 15 206 -25 171 -6 "},"2":{"ha":553,"x_min":0,"x_max":0,"o":"m 447 90 b 482 110 469 90 469 110 b 497 69 494 110 497 88 b 443 -14 497 26 481 -14 l 131 -14 b 79 38 104 -14 79 7 b 96 78 79 53 85 68 b 400 688 99 81 400 383 b 278 869 400 836 319 869 b 146 688 214 869 146 821 b 206 525 146 596 185 525 b 219 532 213 525 215 532 b 224 519 222 532 225 528 b 156 458 221 496 192 458 b 39 688 86 458 39 586 b 281 972 39 883 163 972 b 508 683 439 972 508 824 b 246 90 508 444 346 211 "},"3":{"ha":538,"x_min":0,"x_max":0,"o":"m 32 696 b 268 972 32 886 151 972 b 493 671 431 972 493 814 b 342 354 493 499 421 408 b 464 161 393 324 464 268 b 271 -39 464 46 382 -39 b 83 147 153 -39 83 75 b 157 182 83 171 126 182 b 188 174 178 182 188 179 b 185 158 188 168 185 167 b 276 64 185 147 204 64 b 357 156 317 64 357 99 b 232 304 357 261 267 294 b 193 365 210 310 193 328 b 221 400 193 379 197 400 b 232 399 224 400 228 399 b 388 675 317 426 388 503 b 263 869 388 811 331 869 b 138 694 199 869 138 814 b 196 547 138 611 175 547 b 210 554 203 547 206 554 b 214 546 213 554 214 551 b 146 481 214 522 185 481 b 32 696 78 481 32 600 "},"4":{"ha":538,"x_min":0,"x_max":0,"o":"m 446 261 l 446 7 b 407 -25 446 -17 428 -25 b 340 15 375 -25 340 -6 l 340 264 l 290 264 b 79 260 226 264 126 260 b 17 321 47 260 17 299 b 38 356 17 339 28 346 b 118 854 113 547 118 764 b 111 906 118 875 111 903 b 149 922 111 917 125 922 b 225 840 179 922 225 908 b 146 363 225 725 204 510 b 313 365 196 364 260 365 l 340 365 l 340 904 b 326 957 340 944 326 947 b 371 972 326 967 351 972 b 446 911 417 972 446 944 l 446 364 l 482 364 b 517 383 504 364 504 383 b 532 343 529 383 532 361 b 478 261 532 300 517 261 "},"5":{"ha":508,"x_min":0,"x_max":0,"o":"m 104 936 b 119 950 106 947 114 950 b 260 950 156 950 224 950 b 379 951 338 950 379 951 b 414 965 401 951 403 965 b 428 931 425 965 428 943 b 375 847 428 888 413 847 l 193 847 l 178 672 b 261 699 196 686 225 699 b 461 356 339 699 461 638 b 239 -39 461 68 349 -39 b 38 218 81 -39 38 147 b 82 282 38 258 47 282 b 150 247 117 282 150 260 b 144 222 150 239 144 239 b 240 64 144 192 153 64 b 353 356 313 64 353 164 b 239 599 353 507 315 599 b 131 550 182 599 165 550 b 64 604 114 550 58 571 "},"6":{"ha":554,"x_min":0,"x_max":0,"o":"m 294 871 b 167 611 233 871 183 804 b 300 676 218 668 264 676 b 510 343 449 676 510 511 b 292 -39 510 -19 328 -39 b 53 449 61 -39 53 325 b 294 972 53 578 53 972 b 476 814 397 972 476 871 b 399 769 476 792 429 769 b 376 781 386 769 376 772 b 294 871 376 825 342 871 m 292 576 b 163 392 226 576 178 517 b 292 63 169 132 233 63 b 404 343 339 63 404 125 b 292 576 404 467 368 576 "},"7":{"ha":443,"x_min":0,"x_max":0,"o":"m 239 7 b 199 -25 239 -17 219 -25 b 128 50 167 -25 128 -11 b 313 850 128 364 229 676 b 76 840 225 846 136 840 b 25 903 29 840 25 874 b 49 954 25 929 33 954 b 60 951 53 954 54 953 b 238 947 90 950 142 947 b 406 958 332 947 382 958 b 439 921 422 958 439 946 b 426 876 439 908 433 893 b 239 7 336 663 239 449 "},"8":{"ha":528,"x_min":0,"x_max":0,"o":"m 260 -39 b 89 160 160 -39 89 50 b 146 303 89 218 111 268 b 42 611 88 351 42 446 b 260 972 42 878 154 972 b 479 611 311 972 479 946 b 374 304 479 454 435 356 b 432 160 410 271 432 219 b 260 -39 432 50 363 -39 m 260 869 b 147 611 193 869 147 764 b 260 356 147 438 206 356 b 374 611 315 356 374 447 b 260 869 374 769 329 869 m 260 254 b 192 160 225 254 192 219 b 261 63 192 107 218 63 b 329 160 307 63 329 107 b 260 254 329 221 296 254 "},"9":{"ha":554,"x_min":0,"x_max":0,"o":"m 260 63 b 386 322 319 63 369 128 b 254 257 336 265 289 257 b 44 590 106 257 44 422 b 263 972 44 953 226 972 b 501 485 493 972 501 608 b 260 -39 501 356 501 -39 b 78 119 157 -39 78 63 b 156 164 78 142 125 164 b 178 153 168 164 178 161 b 260 63 178 108 213 63 m 263 357 b 392 540 326 357 376 417 b 263 871 383 800 321 871 b 150 590 215 871 150 808 b 263 357 150 467 186 357 "},"B":{"ha":807,"x_min":0,"x_max":0,"o":"m 278 728 b 272 772 278 754 272 763 b 308 796 272 786 289 796 b 386 735 354 796 386 768 l 386 219 b 513 33 386 86 431 33 b 649 175 590 33 649 94 b 465 338 649 300 553 338 b 458 442 440 338 417 442 b 683 686 524 442 683 485 b 444 900 683 792 615 900 b 131 583 221 900 131 753 b 183 414 131 461 181 418 b 204 394 199 418 204 408 b 126 308 204 369 167 278 b 25 575 104 329 25 413 b 443 1004 25 835 196 1004 b 790 689 653 1004 790 886 b 611 390 790 538 713 444 b 757 178 692 367 757 297 b 514 -62 757 39 651 -62 b 278 224 332 -62 278 53 "},"C":{"ha":678,"x_min":0,"x_max":0,"o":"m 314 578 b 565 811 417 578 565 693 b 481 889 565 843 544 889 b 157 383 297 889 157 610 b 374 47 157 211 214 47 b 567 131 492 47 564 129 b 638 58 603 190 671 92 b 364 -57 633 54 532 -57 b 46 383 165 -57 46 115 b 499 990 46 654 222 990 b 675 807 599 990 675 928 b 307 481 675 636 461 481 b 246 547 274 481 246 501 b 261 592 246 567 251 592 b 314 578 271 592 274 578 "},"D":{"ha":846,"x_min":0,"x_max":0,"o":"m 382 171 b 460 54 382 94 404 54 b 689 546 565 54 689 268 b 425 888 689 733 610 888 b 133 574 194 888 133 721 b 207 358 133 440 201 363 b 228 339 222 363 228 353 b 161 257 228 303 193 257 b 140 264 154 257 147 258 b 25 565 136 267 25 369 b 429 994 25 818 186 994 b 800 557 688 994 800 781 b 451 -53 800 163 604 -53 b 274 178 321 -53 274 31 l 274 710 b 268 754 274 736 268 744 b 304 778 268 768 285 778 b 382 717 350 778 382 750 "},"E":{"ha":619,"x_min":0,"x_max":0,"o":"m 588 100 b 299 -60 564 60 476 -60 b 54 168 165 -60 54 24 b 181 378 54 269 114 343 b 60 604 119 415 60 483 b 429 996 60 789 226 996 b 626 813 557 996 626 914 b 369 525 626 668 507 525 b 293 592 335 525 293 542 b 308 642 293 611 299 642 b 361 628 318 642 321 628 b 517 814 453 628 517 725 b 429 889 517 864 481 889 b 171 611 290 889 171 744 b 311 425 171 507 250 431 b 324 426 315 426 319 426 b 347 393 340 426 347 411 b 314 321 347 363 331 322 b 165 171 256 314 165 281 b 301 50 165 100 224 50 b 506 164 418 50 488 125 b 535 188 513 181 524 188 b 592 119 563 188 592 151 b 588 100 592 113 590 106 "},"F":{"ha":810,"x_min":0,"x_max":0,"o":"m 572 78 b 494 -93 572 -44 540 -93 b 404 -12 460 -93 404 -39 b 428 -6 404 6 414 -6 b 464 96 453 -6 464 25 l 464 314 l 392 314 b 342 383 363 314 342 354 b 363 411 342 399 349 411 l 464 411 l 464 863 b 135 563 269 850 135 781 b 214 374 135 467 178 410 b 235 354 229 378 235 368 b 168 272 235 318 200 272 b 147 279 161 272 154 274 b 25 563 107 308 25 415 b 531 972 25 829 197 972 b 846 969 607 972 817 969 b 885 981 874 969 881 981 b 904 935 894 981 904 956 b 840 861 904 901 883 861 b 572 865 815 861 658 864 l 572 411 l 746 411 b 733 314 789 443 765 314 l 572 314 l 572 78 "},"G":{"ha":713,"x_min":0,"x_max":0,"o":"m 532 81 b 317 -56 474 -6 401 -56 b 47 376 144 -56 47 117 b 500 992 47 653 224 992 b 676 819 600 992 676 926 b 388 539 676 668 508 539 b 326 606 354 539 326 560 b 342 656 326 625 332 656 b 394 642 351 656 354 642 b 567 813 465 642 567 724 b 482 890 567 844 546 890 b 163 378 308 890 163 621 b 319 53 163 178 231 53 b 533 358 461 53 533 244 b 531 404 533 372 531 394 b 575 432 531 431 551 432 b 647 379 600 432 647 410 b 639 169 640 304 639 239 b 640 -49 639 104 640 36 b 714 -42 667 -44 692 -43 b 696 -151 779 -37 744 -150 b 638 -154 675 -151 657 -153 b 435 -492 631 -310 597 -492 b 279 -328 340 -492 279 -421 b 535 -72 279 -186 406 -111 l 535 -58 b 532 81 535 1 532 47 m 438 -385 b 531 -175 500 -385 524 -286 b 388 -325 439 -204 388 -256 b 438 -385 388 -367 410 -385 "},"H":{"ha":942,"x_min":0,"x_max":0,"o":"m 538 419 l 754 419 l 754 893 b 826 1042 754 992 788 1042 b 900 968 867 1042 900 988 b 863 864 900 947 863 981 l 863 -7 b 824 -39 863 -31 844 -39 b 754 1 792 -39 754 -19 l 754 322 l 538 322 l 538 -7 b 499 -39 538 -31 519 -39 b 429 1 467 -39 429 -19 l 429 322 l 331 322 b 281 392 301 322 281 363 b 301 419 281 407 288 419 l 429 419 l 429 868 b 135 564 258 868 135 750 b 208 372 135 447 190 372 b 225 379 217 372 218 379 b 233 357 232 379 233 367 b 142 278 233 299 182 249 b 25 560 93 313 25 407 b 482 972 25 854 271 972 b 538 914 511 972 538 947 "},"I":{"ha":550,"x_min":0,"x_max":0,"o":"m 471 -7 b 432 -39 471 -31 453 -39 b 363 1 400 -39 363 -19 l 363 864 b 135 581 238 849 135 756 b 208 399 135 469 190 399 b 224 408 215 399 217 408 b 233 388 231 408 233 397 b 142 304 233 329 182 275 b 25 581 93 338 25 440 b 415 972 25 875 251 972 b 471 914 444 972 471 947 "},"J":{"ha":557,"x_min":0,"x_max":0,"o":"m 363 864 b 135 581 238 849 135 756 b 208 399 135 469 190 399 b 224 408 215 399 217 408 b 233 388 231 408 233 397 b 165 296 233 340 200 296 b 142 304 157 296 149 299 b 25 581 107 326 25 418 b 415 972 25 875 251 972 b 471 914 444 972 471 947 l 471 -7 l 471 -49 b 544 -42 497 -44 522 -43 b 526 -151 610 -37 575 -150 b 469 -154 506 -151 488 -153 b 265 -492 461 -314 426 -492 b 110 -328 171 -492 110 -421 b 363 -74 110 -187 235 -111 l 363 -58 m 268 -385 b 360 -176 331 -385 353 -286 b 218 -325 268 -204 218 -256 b 268 -385 218 -367 240 -385 "},"K":{"ha":832,"x_min":0,"x_max":0,"o":"m 471 425 b 726 1024 740 481 590 792 b 756 1042 729 1029 739 1042 b 838 1000 790 1042 838 1022 b 826 985 838 994 835 989 b 569 368 711 810 815 476 b 865 -132 765 264 739 10 b 892 -151 872 -140 892 -140 b 797 -224 892 -178 819 -224 b 779 -215 790 -224 785 -221 b 471 307 624 -21 689 246 l 471 -7 b 432 -39 471 -31 453 -39 b 363 1 400 -39 363 -19 l 363 864 b 135 581 238 849 135 756 b 208 399 135 469 190 399 b 231 404 217 399 224 404 b 242 388 238 404 242 397 b 142 304 242 329 182 275 b 25 581 93 338 25 440 b 415 972 25 875 251 972 b 471 914 444 972 471 947 "},"L":{"ha":701,"x_min":0,"x_max":0,"o":"m 519 -51 b 317 65 438 -51 374 8 b 171 -39 290 8 242 -39 b 26 104 79 -39 26 29 b 185 257 26 194 101 257 b 229 250 200 257 215 254 b 117 624 197 369 117 469 b 447 986 117 803 249 986 b 654 799 571 986 654 907 b 375 507 654 636 496 507 b 304 586 338 507 304 532 b 315 604 304 597 308 604 b 342 594 319 604 326 594 b 544 779 433 594 544 696 b 443 879 544 833 513 879 b 228 619 315 879 228 757 b 342 181 228 475 338 351 b 508 57 401 124 451 57 b 608 185 586 57 608 135 b 606 210 608 197 606 204 b 622 219 606 217 611 219 b 699 157 671 219 699 190 b 519 -51 699 49 626 -51 m 175 161 b 125 110 147 161 125 140 b 174 58 125 83 142 58 b 239 136 211 58 233 96 b 175 161 218 151 197 161 "},"M":{"ha":761,"x_min":0,"x_max":0,"o":"m 738 26 b 657 -39 760 13 704 -40 b 567 122 613 -37 567 13 l 567 765 b 501 871 567 871 519 871 b 435 751 481 871 435 871 l 435 1 b 442 -6 438 1 442 -3 b 361 -39 442 -19 396 -39 b 326 -12 343 -39 326 -39 l 326 765 b 261 871 326 871 282 871 b 194 765 243 871 194 871 l 194 150 b 75 -39 194 28 153 -39 b 10 28 24 -39 10 3 b 47 39 10 40 28 32 b 86 171 67 46 86 79 l 86 751 b 258 972 86 914 175 972 b 386 915 282 972 343 967 b 499 972 421 967 472 972 b 675 751 585 972 675 914 l 675 133 b 738 26 675 75 704 43 "},"N":{"ha":856,"x_min":0,"x_max":0,"o":"m 471 800 b 682 972 526 896 601 972 b 776 851 721 972 776 943 l 776 42 b 843 -83 776 -62 843 -54 b 772 -131 843 -104 815 -131 b 668 18 732 -131 669 -99 l 668 843 b 656 863 668 861 661 863 b 471 529 614 863 471 647 l 471 -7 b 432 -39 471 -31 453 -39 b 363 1 400 -39 363 -19 l 363 864 b 135 581 238 849 135 756 b 208 399 135 469 190 399 b 231 404 217 399 224 404 b 242 388 238 404 242 397 b 167 296 242 340 203 296 b 25 581 119 296 25 418 b 415 972 25 875 251 972 b 471 914 444 972 471 947 "},"O":{"ha":707,"x_min":0,"x_max":0,"o":"m 543 472 b 539 557 543 499 542 528 l 513 557 b 304 732 397 557 304 625 b 431 864 304 804 356 864 b 621 686 532 864 590 783 b 660 721 635 694 647 707 b 676 739 664 733 669 739 b 721 664 696 739 721 701 b 643 582 721 629 689 601 b 651 472 649 543 651 506 b 336 -39 651 121 499 -39 b 28 414 133 -39 28 165 b 319 999 28 886 308 994 b 335 1001 324 1000 329 1001 b 383 929 365 1001 383 960 b 365 897 383 911 378 897 b 358 899 363 897 361 897 b 139 428 310 871 139 783 b 340 65 139 176 242 65 b 543 472 456 65 542 213 m 525 653 b 440 764 511 717 483 764 b 406 729 413 764 406 744 b 508 653 406 696 436 653 "},"P":{"ha":788,"x_min":0,"x_max":0,"o":"m 278 728 b 272 772 278 754 272 763 b 308 796 272 786 289 796 b 386 735 354 796 386 768 l 386 281 b 671 631 481 292 671 397 b 444 868 671 736 607 868 b 131 551 221 868 131 721 b 183 382 131 429 181 386 b 204 363 199 386 204 376 b 126 276 204 338 167 246 b 25 543 104 297 25 381 b 443 972 25 803 196 972 b 778 633 646 972 778 831 b 386 176 778 392 590 215 l 386 -7 b 347 -39 386 -31 368 -39 b 278 1 315 -39 278 -19 "},"Q":{"ha":725,"x_min":0,"x_max":0,"o":"m 633 -164 b 686 -140 668 -164 675 -140 b 590 -272 722 -140 679 -272 b 46 461 367 -272 46 -11 b 368 972 46 824 225 972 b 669 478 511 972 669 832 b 419 -24 669 103 482 -24 b 350 50 396 -24 350 28 b 363 61 350 57 354 61 b 369 61 365 61 367 61 b 561 478 500 97 561 279 b 365 867 561 753 463 867 b 154 463 268 867 154 743 b 633 -164 154 -7 460 -164 "},"R":{"ha":788,"x_min":0,"x_max":0,"o":"m 278 728 b 272 772 278 754 272 763 b 308 796 272 786 289 796 b 386 735 354 796 386 768 l 386 281 b 671 631 492 300 671 396 b 440 868 671 736 603 868 b 131 551 226 868 131 714 b 183 382 131 429 181 386 b 204 363 199 386 204 376 b 126 276 204 338 167 246 b 25 543 104 297 25 381 b 439 972 25 800 192 972 b 778 633 642 972 778 831 b 514 229 778 444 660 297 b 729 -139 651 150 635 -37 b 756 -158 736 -147 756 -147 b 661 -231 756 -185 683 -231 b 643 -222 654 -231 649 -228 b 386 186 507 -68 575 135 l 386 -7 b 347 -39 386 -31 368 -39 b 278 1 315 -39 278 -19 "},"S":{"ha":575,"x_min":0,"x_max":0,"o":"m 281 -50 b 131 19 163 -50 131 11 b 185 100 131 51 164 100 b 200 88 192 100 196 96 b 281 54 204 83 228 54 b 378 151 338 54 378 92 b 39 607 378 317 39 324 b 428 985 39 790 239 985 b 603 806 536 985 603 914 b 339 506 603 651 424 506 b 261 586 290 506 261 557 b 297 596 261 610 274 596 b 497 804 372 596 497 713 b 421 881 497 851 476 881 b 147 607 318 881 147 758 b 488 156 147 392 488 388 b 281 -50 488 43 397 -50 "},"T":{"ha":713,"x_min":0,"x_max":0,"o":"m 572 78 b 494 -93 572 -44 540 -93 b 404 -12 460 -93 404 -39 b 428 -6 404 6 414 -6 b 464 96 453 -6 464 25 l 464 863 b 135 563 292 849 135 778 b 214 374 135 467 178 410 b 235 354 229 378 235 368 b 168 272 235 318 200 272 b 147 279 161 272 154 274 b 25 563 107 308 25 415 b 524 972 25 829 235 972 b 757 969 590 972 731 969 b 790 981 781 969 786 981 b 807 935 799 981 807 956 b 753 861 807 901 789 861 b 572 865 733 861 638 864 l 572 78 "},"U":{"ha":856,"x_min":0,"x_max":0,"o":"m 668 133 b 457 -39 611 38 536 -39 b 363 82 418 -39 363 -10 l 363 864 b 135 581 238 849 135 756 b 208 399 135 469 190 399 b 231 404 217 399 224 404 b 242 388 238 404 242 397 b 142 304 242 329 182 275 b 25 581 93 338 25 440 b 415 972 25 875 251 972 b 471 914 444 972 471 947 l 471 90 b 483 71 471 72 478 71 b 668 376 525 71 668 258 l 668 904 b 663 949 668 931 663 939 b 699 972 663 963 679 972 b 776 911 744 972 776 944 l 776 308 b 789 4 776 126 783 49 b 793 -6 792 0 793 -3 b 722 -39 793 -24 753 -39 b 668 131 674 -39 672 18 "},"V":{"ha":818,"x_min":0,"x_max":0,"o":"m 668 736 b 654 949 668 874 654 926 b 690 972 654 963 671 972 b 764 914 736 972 756 954 b 776 754 771 881 776 839 b 457 -39 776 274 613 -39 b 363 82 418 -39 363 -10 l 363 864 b 135 581 238 849 135 756 b 208 399 135 469 190 399 b 231 404 217 399 224 404 b 242 388 238 404 242 397 b 142 304 242 329 182 275 b 25 581 93 338 25 440 b 415 972 25 875 251 972 b 471 914 444 972 471 947 l 471 90 b 483 71 471 72 478 71 b 668 736 525 71 668 286 "},"W":{"ha":761,"x_min":0,"x_max":0,"o":"m 675 182 b 503 -39 675 19 586 -39 b 372 19 478 -39 415 -33 b 253 -39 333 -33 278 -39 b 86 182 167 -39 86 19 l 86 814 b 38 921 86 883 71 910 b 32 926 33 922 32 924 b 121 972 32 939 82 972 b 194 828 156 972 194 940 l 194 168 b 260 63 194 63 242 63 b 326 182 281 63 326 63 l 326 863 b 321 907 326 889 321 897 b 357 931 321 921 338 931 b 435 869 403 931 435 903 l 435 168 b 500 63 435 63 479 63 b 567 168 518 63 567 63 l 567 828 b 639 972 567 940 606 972 b 729 926 679 972 729 939 b 724 921 729 924 728 922 b 675 814 688 910 675 883 "},"X":{"ha":546,"x_min":0,"x_max":0,"o":"m 519 36 b 532 22 528 32 532 31 b 450 -39 532 7 476 -39 b 421 -22 436 -39 428 -33 b 275 235 367 63 318 150 b 140 -8 236 156 192 74 b 89 -39 129 -26 118 -39 b 0 28 40 -39 0 13 b 13 35 0 32 3 35 b 217 360 42 35 128 167 b 29 919 86 653 29 900 b 117 972 29 950 85 972 b 146 960 129 972 146 968 b 136 936 146 956 136 951 b 276 500 136 932 179 740 b 418 957 333 639 385 799 b 417 961 417 958 417 960 b 450 972 417 972 443 972 b 519 935 481 972 519 957 b 335 365 519 924 475 682 b 519 36 386 256 447 142 "},"Y":{"ha":863,"x_min":0,"x_max":0,"o":"m 776 -7 l 776 -49 b 850 -42 803 -44 828 -43 b 832 -151 915 -37 881 -150 b 775 -154 811 -151 793 -153 b 571 -492 767 -314 732 -492 b 415 -328 476 -492 415 -421 b 668 -74 415 -187 540 -111 l 668 -58 l 668 133 b 457 -39 611 38 536 -39 b 363 82 418 -39 363 -10 l 363 864 b 135 581 238 849 135 756 b 208 399 135 469 190 399 b 231 404 217 399 224 404 b 242 388 238 404 242 397 b 142 304 242 329 182 275 b 25 581 93 338 25 440 b 415 972 25 875 251 972 b 471 914 444 972 471 947 l 471 90 b 483 71 471 72 478 71 b 668 376 525 71 668 258 l 668 904 b 663 949 668 931 663 939 b 699 972 663 963 679 972 b 776 911 744 972 776 944 m 574 -385 b 665 -176 636 -385 658 -286 b 524 -325 574 -204 524 -256 b 574 -385 524 -367 546 -385 "},"Z":{"ha":676,"x_min":0,"x_max":0,"o":"m 219 -346 b 457 -96 219 -211 335 -135 b 300 35 432 -14 375 32 b 253 103 269 36 253 74 b 276 138 253 122 260 138 b 288 136 279 138 283 138 b 524 596 297 135 524 221 b 339 864 524 833 389 864 b 150 601 243 864 150 771 b 288 357 150 425 246 357 b 310 361 297 357 304 361 b 317 342 314 361 317 357 b 247 257 317 293 290 257 b 39 594 183 257 39 371 b 342 972 39 853 201 972 b 635 589 513 972 635 825 b 428 101 635 315 514 174 b 561 -71 481 78 535 25 b 654 -60 594 -64 626 -61 b 636 -169 719 -56 685 -168 b 576 -174 615 -169 596 -171 b 578 -206 578 -183 578 -194 b 375 -510 578 -346 532 -510 b 219 -346 281 -510 219 -439 m 472 -193 b 328 -343 379 -221 328 -274 b 378 -403 328 -385 350 -403 b 472 -204 443 -403 472 -296 "},"a":{"ha":492,"x_min":0,"x_max":0,"o":"m 442 53 b 535 203 497 53 522 142 b 568 244 540 232 554 244 b 617 188 590 244 617 214 b 615 178 617 186 617 183 b 417 -39 592 86 536 -39 b 310 18 368 -39 331 -15 b 190 -39 282 -14 243 -39 b 25 171 82 -39 25 53 b 356 544 25 403 186 544 b 419 486 393 544 419 522 b 401 454 419 463 415 454 b 361 457 389 454 375 457 b 132 167 256 457 132 367 b 211 53 132 94 163 53 b 289 125 249 53 274 86 l 289 339 b 283 383 289 365 283 374 b 319 407 283 397 300 407 b 394 346 365 407 394 379 l 394 117 b 442 53 394 86 408 53 "},"b":{"ha":525,"x_min":0,"x_max":0,"o":"m 200 354 b 318 517 200 467 253 517 b 465 290 392 517 465 446 b 444 132 465 236 458 181 b 474 129 454 129 464 129 b 574 229 533 129 565 175 b 653 189 579 261 671 267 b 485 51 636 114 579 51 b 414 61 460 51 436 54 b 244 -39 379 1 325 -39 b 49 193 117 -39 49 57 l 49 856 b 35 908 49 896 35 899 b 79 924 35 918 60 924 b 154 863 125 924 154 896 l 154 213 b 253 53 154 121 186 53 b 328 101 288 53 311 72 b 200 354 249 158 200 256 m 286 360 b 353 188 286 293 313 231 b 360 279 358 219 360 253 b 311 425 360 372 336 425 b 286 360 293 425 286 399 "},"c":{"ha":413,"x_min":0,"x_max":0,"o":"m 271 -39 b 31 224 147 -39 31 53 b 257 544 31 383 125 544 b 389 408 353 544 389 457 b 301 376 389 356 293 328 b 244 451 294 400 292 451 b 144 224 193 451 144 349 b 286 53 144 114 204 53 b 461 228 394 53 444 143 b 546 214 474 290 551 263 b 271 -39 536 129 475 -39 "},"d":{"ha":508,"x_min":0,"x_max":0,"o":"m 204 -39 b 25 185 96 -39 25 39 b 306 542 25 397 154 521 l 306 856 b 292 908 306 896 292 899 b 336 924 292 918 317 924 b 411 863 382 924 411 896 l 411 117 b 458 53 411 86 425 53 b 551 203 514 53 539 142 b 585 244 557 232 571 244 b 633 188 607 244 633 214 b 632 178 633 186 633 183 b 433 -39 608 86 553 -39 b 328 15 386 -39 349 -17 b 204 -39 297 -15 257 -39 m 225 53 b 306 107 261 53 288 76 l 306 450 b 132 194 215 433 132 368 b 225 53 132 94 176 53 "},"e":{"ha":413,"x_min":0,"x_max":0,"o":"m 368 404 b 163 139 368 301 297 179 b 292 53 182 92 219 53 b 461 228 400 53 444 143 b 546 214 474 290 551 263 b 276 -39 536 129 481 -39 b 31 236 150 -39 31 63 b 243 544 31 413 136 544 b 368 404 321 544 368 488 m 144 240 b 146 215 144 232 146 224 b 260 403 215 247 260 319 b 231 451 260 433 249 451 b 144 240 163 451 142 299 "},"f":{"ha":372,"x_min":0,"x_max":0,"o":"m 154 407 l 154 376 b 361 -172 281 222 361 57 b 176 -572 361 -404 288 -572 b 49 -364 79 -572 49 -467 l 49 383 b 40 393 46 386 43 390 b -3 454 18 415 -3 432 b 29 488 -3 468 7 485 b 49 489 33 488 40 489 l 49 883 b 35 936 49 924 35 926 b 79 951 35 946 60 951 b 154 890 125 951 154 924 l 154 497 b 326 507 218 503 289 507 b 383 468 357 507 383 497 b 357 381 383 449 375 381 b 314 397 349 381 351 394 m 256 -172 b 154 231 256 -46 221 101 l 154 -364 b 188 -471 154 -408 160 -471 b 256 -172 228 -471 256 -349 "},"g":{"ha":489,"x_min":0,"x_max":0,"o":"m 132 -412 b 304 -121 132 -272 213 -201 l 304 25 b 190 -25 276 -3 239 -25 b 25 185 82 -25 25 67 b 356 558 25 417 186 558 b 419 500 393 558 419 536 b 401 468 419 476 415 468 b 361 471 389 468 375 471 b 132 181 256 471 132 381 b 211 67 132 108 163 67 b 304 196 267 67 294 140 l 304 353 b 299 397 304 379 299 388 b 335 421 299 411 315 421 b 410 360 381 421 410 393 l 410 -18 b 532 203 460 38 504 107 b 565 244 540 232 551 244 b 614 188 588 244 614 214 b 613 174 614 186 614 179 b 410 -135 565 13 485 -69 l 410 -375 b 265 -572 410 -521 336 -572 b 132 -412 188 -572 132 -501 m 265 -485 b 304 -375 310 -485 304 -401 l 304 -226 b 229 -408 260 -272 229 -325 b 265 -485 229 -451 243 -485 "},"h":{"ha":511,"x_min":0,"x_max":0,"o":"m 49 856 b 35 908 49 896 35 899 b 79 924 35 918 60 924 b 154 863 125 924 154 896 l 154 407 b 310 544 192 485 242 544 b 425 404 403 544 425 468 l 425 117 b 461 53 425 104 425 53 b 554 203 517 53 542 142 b 635 178 571 288 646 222 b 436 -39 610 86 556 -39 b 319 92 363 -39 319 21 l 319 374 b 290 453 319 417 317 453 b 154 224 250 453 164 333 l 154 21 b 115 -39 154 -6 156 -39 b 49 22 88 -39 49 -29 "},"i":{"ha":240,"x_min":0,"x_max":0,"o":"m 122 668 b 39 753 76 668 39 707 b 122 838 39 801 76 838 b 207 753 171 838 207 801 b 122 668 207 707 171 668 m 154 117 b 190 53 154 104 154 53 b 283 203 246 53 271 142 b 364 178 300 288 375 222 b 165 -39 339 86 285 -39 b 49 92 92 -39 49 21 l 49 463 b 43 507 49 489 43 497 b 79 531 43 521 60 531 b 154 469 125 531 154 503 "},"j":{"ha":233,"x_min":0,"x_max":0,"o":"m 276 203 b 310 244 285 232 296 244 b 358 188 332 244 358 214 b 357 174 358 186 358 179 b 154 -135 310 13 229 -69 l 154 -375 b 10 -572 154 -521 81 -572 b -124 -412 -68 -572 -124 -501 b 49 -121 -124 -272 -43 -201 l 49 463 b 43 507 49 489 43 497 b 79 531 43 521 60 531 b 154 469 125 531 154 503 l 154 -18 b 276 203 204 38 249 107 m 17 753 b 101 838 17 801 54 838 b 186 753 147 838 186 801 b 101 668 186 707 147 668 b 17 753 54 668 17 707 m 10 -485 b 49 -375 54 -485 49 -401 l 49 -226 b -26 -408 4 -272 -26 -325 b 10 -485 -26 -451 -12 -485 "},"k":{"ha":486,"x_min":0,"x_max":0,"o":"m 49 856 b 35 908 49 896 35 899 b 79 924 35 918 60 924 b 154 863 125 924 154 896 l 154 429 b 317 544 199 490 254 544 b 440 394 403 544 440 472 b 307 168 440 288 363 208 b 406 53 321 108 351 53 b 529 201 469 53 517 140 b 610 176 546 286 621 221 b 390 -39 585 101 517 -39 b 208 178 281 -39 208 86 b 338 393 208 221 338 265 b 293 451 338 428 319 451 b 154 260 260 451 197 407 l 154 21 b 115 -39 154 -6 156 -39 b 49 22 88 -39 49 -29 "},"l":{"ha":306,"x_min":0,"x_max":0,"o":"m 154 411 b 213 729 183 469 213 653 b 175 863 213 821 197 863 b 154 807 160 863 154 829 m 351 201 b 432 176 368 283 443 221 b 213 -39 407 101 339 -39 b 49 144 106 -39 49 35 l 49 776 b 175 954 49 881 106 954 b 299 731 297 954 299 808 b 154 229 299 526 172 246 l 154 149 b 228 53 154 93 176 53 b 351 201 292 53 339 140 "},"m":{"ha":754,"x_min":0,"x_max":0,"o":"m 878 178 b 679 -39 853 86 799 -39 b 563 92 606 -39 563 21 l 563 374 b 536 453 563 417 560 453 b 411 224 499 453 419 333 l 411 21 b 372 -39 411 -6 413 -39 b 306 22 344 -39 306 -29 l 306 374 b 279 453 306 417 303 453 b 154 224 242 453 163 333 l 154 21 b 115 -39 154 -6 156 -39 b 49 22 88 -39 49 -29 l 49 463 b 43 507 49 489 43 497 b 79 531 43 521 60 531 b 154 469 125 531 154 503 l 154 411 b 301 544 190 486 239 544 b 411 414 385 544 408 476 b 557 544 446 488 494 544 b 668 404 647 544 668 468 l 668 117 b 704 53 668 104 668 53 b 797 203 760 53 785 142 b 831 244 803 232 817 244 b 879 188 853 244 879 214 b 878 178 879 186 879 183 "},"n":{"ha":501,"x_min":0,"x_max":0,"o":"m 49 463 b 43 507 49 489 43 497 b 79 531 43 521 60 531 b 154 469 125 531 154 503 l 154 407 b 310 544 192 485 242 544 b 425 404 403 544 425 468 l 425 117 b 461 53 425 104 425 53 b 554 203 517 53 542 142 b 588 244 560 232 574 244 b 636 188 610 244 636 214 b 635 178 636 186 636 183 b 436 -39 611 86 556 -39 b 319 92 363 -39 319 21 l 319 374 b 290 453 319 417 317 453 b 154 224 250 453 164 333 l 154 21 b 115 -39 154 -6 156 -39 b 49 22 88 -39 49 -29 "},"o":{"ha":508,"x_min":0,"x_max":0,"o":"m 557 229 b 636 189 563 261 654 267 b 468 51 619 114 563 51 b 400 61 443 51 421 54 b 233 -39 365 1 313 -39 b 31 219 93 -39 31 81 b 172 547 31 424 142 547 b 200 450 208 547 236 474 b 136 228 178 417 136 365 b 236 53 136 111 182 53 b 318 106 275 53 300 74 b 218 353 253 161 218 253 b 331 515 218 440 256 515 b 449 282 396 515 449 417 b 429 132 449 231 443 179 b 457 129 439 129 447 129 b 557 229 517 129 549 175 m 292 358 b 344 196 292 296 313 238 b 349 260 347 218 349 239 b 315 424 349 354 344 424 b 292 358 300 424 292 401 "},"p":{"ha":501,"x_min":0,"x_max":0,"o":"m 221 -53 b 154 -32 188 -53 165 -44 l 154 -483 b 81 -544 154 -535 108 -544 b 49 -507 53 -544 49 -528 l 49 463 b 35 515 49 503 35 506 b 79 531 35 525 60 531 b 154 471 124 531 153 503 b 281 544 183 513 222 544 b 442 300 389 544 442 438 b 406 97 442 222 426 147 b 550 203 497 101 518 138 b 582 240 563 229 569 240 b 632 188 606 240 632 207 b 361 11 632 124 546 11 b 221 -53 324 -29 269 -53 m 246 451 b 154 335 206 451 169 403 l 154 35 b 285 83 174 64 221 78 b 333 278 318 132 333 226 b 246 451 333 406 293 451 "},"q":{"ha":507,"x_min":0,"x_max":0,"o":"m 190 -39 b 25 171 82 -39 25 53 b 356 544 25 403 186 544 b 419 486 393 544 419 522 b 401 454 419 463 415 454 b 361 457 389 454 375 457 b 132 167 256 457 132 367 b 211 53 132 94 163 53 b 304 182 267 53 294 126 l 304 339 b 299 383 304 365 299 374 b 335 407 299 397 315 407 b 410 346 381 407 410 379 l 410 -37 b 550 203 467 21 518 96 b 583 244 558 232 569 244 b 632 188 606 244 632 214 b 631 174 632 186 632 179 b 446 -118 588 26 515 -56 b 581 -387 529 -210 581 -287 b 443 -572 581 -497 517 -572 b 304 -389 349 -572 304 -503 l 304 13 b 190 -39 276 -17 240 -39 m 482 -403 b 410 -196 482 -335 468 -272 l 410 -401 b 446 -481 410 -467 432 -481 b 482 -403 464 -481 482 -457 "},"r":{"ha":426,"x_min":0,"x_max":0,"o":"m 351 -39 b 208 119 286 -39 208 -3 b 278 426 208 208 233 307 l 172 426 l 157 426 b 122 171 156 372 147 251 b 44 210 104 113 32 163 b 67 451 60 265 65 381 b 7 540 32 471 7 500 b 76 604 7 579 40 604 b 164 531 110 604 149 588 b 238 525 210 525 224 525 l 310 525 b 376 447 326 525 382 479 b 314 128 376 431 314 267 b 369 53 314 89 332 53 b 469 203 433 53 457 142 b 503 244 475 232 489 244 b 551 188 525 244 551 214 b 550 178 551 183 550 181 b 351 -39 525 86 471 -39 "},"s":{"ha":443,"x_min":0,"x_max":0,"o":"m 128 190 b 47 218 113 132 36 171 b 115 432 61 279 90 358 b 93 497 101 453 93 474 b 211 607 93 544 174 607 b 261 544 244 607 261 582 b 228 450 261 504 229 458 b 378 153 293 335 378 285 b 371 103 378 136 375 118 b 485 203 436 117 469 158 b 517 240 494 229 504 240 b 567 185 540 240 567 204 b 503 78 567 157 535 104 b 317 11 460 43 403 17 b 181 -39 283 -18 238 -39 b 28 19 122 -39 56 -7 b 28 158 -40 85 -3 158 b 251 78 56 158 182 78 b 282 163 267 96 282 128 b 182 358 282 250 231 308 b 128 190 160 304 146 257 "},"t":{"ha":251,"x_min":0,"x_max":0,"o":"m -76 653 b 49 649 -76 653 -26 650 l 49 883 b 35 936 49 924 35 926 b 79 951 35 946 60 951 b 154 890 125 951 154 924 l 154 647 b 431 653 239 647 336 649 b 421 560 469 694 457 561 b 154 557 310 557 228 557 l 154 117 b 201 53 154 72 172 53 b 294 203 257 53 282 142 b 328 244 300 232 314 244 b 376 188 350 244 376 214 b 375 178 376 186 376 183 b 176 -39 351 86 296 -39 b 49 115 101 -39 49 6 l 49 557 b -47 560 -12 557 -47 560 b -76 653 -92 560 -117 653 "},"u":{"ha":506,"x_min":0,"x_max":0,"o":"m 431 -39 b 317 60 368 -39 326 4 b 178 -40 283 1 239 -40 b 31 160 85 -40 31 39 b 81 472 31 307 81 472 b 154 524 90 496 81 524 b 176 447 222 524 182 468 b 136 167 151 344 136 283 b 200 51 136 92 160 51 b 314 239 256 51 297 142 l 314 463 b 300 515 314 503 300 506 b 344 531 300 525 325 531 b 419 469 390 531 419 503 l 419 117 b 456 53 419 104 419 53 b 549 203 511 53 536 142 b 582 244 554 232 568 244 b 631 188 604 244 631 214 b 629 178 631 186 631 183 b 431 -39 604 86 550 -39 "},"v":{"ha":451,"x_min":0,"x_max":0,"o":"m 49 463 b 43 507 49 489 43 497 b 79 531 43 521 60 531 b 154 469 125 531 154 503 l 154 96 b 185 53 154 69 160 53 b 331 308 253 53 331 147 b 274 464 331 421 292 450 b 254 476 267 469 254 468 b 311 544 254 501 285 544 b 435 304 367 544 435 424 b 167 -39 435 117 331 -39 b 49 97 78 -39 49 22 "},"w":{"ha":692,"x_min":0,"x_max":0,"o":"m 292 463 b 286 507 292 489 286 497 b 322 531 286 521 303 531 b 397 469 368 531 397 503 l 397 151 b 465 53 399 93 411 53 b 535 151 518 53 535 99 l 535 463 b 529 507 535 489 529 497 b 565 531 529 521 546 531 b 640 469 611 531 640 503 l 640 151 b 471 -39 640 65 614 -39 b 344 28 411 -39 364 -8 b 218 -39 326 -8 271 -39 b 49 153 64 -39 49 78 l 49 463 b 43 507 49 489 43 497 b 79 531 43 521 60 531 b 154 469 125 531 154 503 l 154 151 b 222 53 154 101 163 53 b 292 151 275 53 292 99 "},"x":{"ha":565,"x_min":0,"x_max":0,"o":"m 122 171 b 44 210 104 113 32 163 b 81 478 58 261 81 407 b 163 544 81 526 104 544 b 236 507 185 544 218 536 b 332 325 269 453 297 399 b 440 508 379 397 417 464 b 479 546 453 533 464 546 b 538 474 507 546 538 506 b 532 453 538 465 536 458 l 375 229 b 517 47 428 117 465 47 b 608 203 572 47 596 142 b 642 244 614 232 628 244 b 690 188 664 244 690 214 b 689 178 690 186 690 183 b 504 -39 665 86 617 -39 b 310 135 421 -39 369 8 l 217 3 b 154 -39 197 -28 179 -39 b 82 7 122 -39 82 -19 b 142 68 82 25 97 17 b 267 229 185 118 228 174 b 168 422 238 296 206 358 b 122 171 165 361 143 238 "},"y":{"ha":499,"x_min":0,"x_max":0,"o":"m 542 203 b 575 244 550 232 561 244 b 624 188 597 244 624 214 b 622 174 624 186 624 179 b 419 -135 575 13 494 -69 l 419 -375 b 275 -572 419 -521 346 -572 b 142 -412 197 -572 142 -501 b 314 -121 142 -272 222 -201 l 314 56 b 178 -40 281 0 238 -40 b 31 160 85 -40 31 39 b 81 472 31 307 81 472 b 154 524 90 496 81 524 b 176 447 222 524 182 468 b 136 167 151 344 136 283 b 200 51 136 92 160 51 b 314 239 256 51 297 142 l 314 463 b 308 507 314 489 308 497 b 344 531 308 521 325 531 b 419 469 390 531 419 503 l 419 -18 b 542 203 469 38 514 107 m 275 -485 b 314 -375 319 -485 314 -401 l 314 -226 b 239 -408 269 -272 239 -325 b 275 -485 239 -451 253 -485 "},"z":{"ha":500,"x_min":0,"x_max":0,"o":"m 143 -412 b 324 -112 143 -268 229 -197 b 186 35 308 -35 271 35 l 167 111 b 368 364 264 139 368 225 b 289 453 368 411 343 453 b 125 185 219 453 176 400 b 47 221 106 106 40 186 b 289 544 82 403 128 544 b 474 353 406 544 474 460 b 296 99 474 236 394 143 b 410 -29 349 69 386 32 b 543 203 464 28 514 100 b 576 244 551 232 563 244 b 625 188 599 244 625 214 b 624 174 625 186 625 179 b 432 -124 578 21 504 -61 b 440 -257 438 -161 440 -206 b 276 -572 440 -403 403 -572 b 143 -412 199 -572 143 -501 m 335 -276 b 333 -208 335 -257 335 -233 b 240 -408 279 -258 240 -314 b 276 -485 240 -451 254 -485 b 335 -276 329 -485 335 -351 "},"ﬁ":{"ha":571,"x_min":0,"x_max":0,"o":"m 485 117 b 521 53 485 104 485 53 b 614 203 576 53 601 142 b 694 178 631 288 706 222 b 496 -39 669 86 615 -39 b 379 92 422 -39 379 21 l 379 419 l 154 421 l 154 390 b 361 -172 281 233 361 57 b 176 -572 361 -404 288 -572 b 49 -364 79 -572 49 -467 l 49 397 b 40 407 46 400 43 404 b -3 468 18 429 -3 446 b 29 501 -3 482 7 499 b 49 503 33 501 39 503 l 49 883 b 35 936 49 924 35 926 b 79 951 35 946 60 951 b 154 890 125 951 154 924 l 154 510 b 399 535 279 517 382 535 b 485 463 475 535 485 496 m 256 -172 b 154 240 256 -46 221 107 l 154 -364 b 188 -471 154 -408 160 -471 b 256 -172 228 -471 256 -349 m 439 668 b 356 753 393 668 356 707 b 439 838 356 801 393 838 b 524 753 488 838 524 801 b 439 668 524 707 488 668 "},"ﬂ":{"ha":608,"x_min":0,"x_max":0,"o":"m 654 201 b 735 176 671 283 746 221 b 515 -39 710 101 642 -39 b 351 144 408 -39 351 35 l 351 360 b 281 353 331 356 307 353 b 154 378 219 353 178 367 l 154 367 b 361 -200 281 229 361 -14 b 176 -572 361 -432 288 -572 b 49 -364 79 -572 49 -467 l 49 371 l 40 379 b -3 450 18 401 -3 408 b 29 488 -3 464 7 485 b 49 486 33 488 40 488 l 49 883 b 35 936 49 924 35 926 b 79 951 35 946 60 951 b 154 890 125 951 154 924 l 154 460 b 256 444 188 451 224 444 b 351 458 293 444 325 450 l 351 776 b 478 954 351 889 408 954 b 601 775 600 954 601 847 b 457 406 601 569 522 468 l 457 149 b 531 53 457 93 479 53 b 654 201 594 53 642 140 m 256 -200 b 154 218 256 -99 221 78 l 154 -364 b 188 -471 154 -408 160 -471 b 256 -200 228 -471 256 -376 m 457 529 b 515 767 500 599 515 671 b 481 863 515 849 503 863 b 457 807 465 863 457 836 "},"ß":{"ha":540,"x_min":0,"x_max":0,"o":"m 372 760 b 317 522 372 626 317 578 b 475 167 317 429 475 324 b 467 101 475 146 472 124 b 582 203 532 117 567 158 b 614 240 592 229 601 240 b 664 185 638 240 664 204 b 600 78 664 157 632 104 b 424 13 558 44 504 18 b 306 -39 397 -18 358 -39 b 193 71 232 -39 193 22 b 232 131 193 106 214 131 b 344 82 250 131 307 81 b 374 163 360 100 374 128 b 225 503 374 258 219 404 b 269 764 229 583 269 644 b 204 872 269 813 250 872 b 154 732 167 872 154 821 l 154 -339 b 81 -400 154 -390 108 -400 b 49 -362 53 -400 49 -383 l 49 732 b 208 972 49 892 119 972 b 372 760 307 972 372 863 "},"À":{"ha":689,"x_min":0,"x_max":0,"o":"m 333 535 b 272 604 300 535 272 558 b 288 649 272 624 278 649 b 340 635 297 649 300 635 b 563 804 440 635 563 700 b 485 881 563 842 538 881 b 157 354 269 881 157 572 b 315 53 157 181 196 53 b 547 535 478 53 519 317 b 604 563 550 553 578 563 b 647 526 626 563 653 553 b 629 300 640 490 629 408 b 642 -4 629 118 636 40 b 646 -14 644 -8 646 -11 b 575 -47 646 -32 606 -47 b 525 101 526 -47 529 -11 b 303 -56 483 14 400 -56 b 46 351 151 -56 46 53 b 492 986 46 658 228 986 b 672 810 606 986 672 908 b 333 535 672 650 503 535 m 324 1199 b 313 1222 317 1207 313 1215 b 369 1267 313 1249 351 1267 b 410 1240 389 1267 400 1254 l 536 1094 b 547 1074 542 1088 547 1081 b 485 1042 547 1058 522 1042 b 454 1056 469 1042 458 1049 "},"à":{"ha":492,"x_min":0,"x_max":0,"o":"m 442 53 b 535 203 497 53 522 142 b 568 244 540 232 554 244 b 617 188 590 244 617 214 b 615 178 617 186 617 183 b 417 -39 592 86 536 -39 b 310 18 368 -39 331 -15 b 190 -39 282 -14 243 -39 b 25 171 82 -39 25 53 b 356 544 25 403 186 544 b 419 486 393 544 419 522 b 401 454 419 463 415 454 b 361 457 389 454 375 457 b 132 167 256 457 132 367 b 211 53 132 94 163 53 b 289 125 249 53 274 86 l 289 339 b 283 383 289 365 283 374 b 319 407 283 397 300 407 b 394 346 365 407 394 379 l 394 117 b 442 53 394 86 408 53 m 160 771 b 149 794 153 779 149 788 b 206 839 149 821 188 839 b 246 813 225 839 236 826 l 372 667 b 383 646 378 660 383 653 b 321 614 383 631 358 614 b 290 628 306 614 294 621 "},"Á":{"ha":689,"x_min":0,"x_max":0,"o":"m 333 535 b 272 604 300 535 272 558 b 288 649 272 624 278 649 b 340 635 297 649 300 635 b 563 804 440 635 563 700 b 485 881 563 842 538 881 b 157 354 269 881 157 572 b 315 53 157 181 196 53 b 547 535 478 53 519 317 b 604 563 550 553 578 563 b 647 526 626 563 653 553 b 629 300 640 490 629 408 b 642 -4 629 118 636 40 b 646 -14 644 -8 646 -11 b 575 -47 646 -32 606 -47 b 525 101 526 -47 529 -11 b 303 -56 483 14 400 -56 b 46 351 151 -56 46 53 b 492 986 46 658 228 986 b 672 810 606 986 672 908 b 333 535 672 650 503 535 m 456 1067 b 410 1042 444 1049 425 1042 b 356 1074 372 1042 356 1058 b 367 1094 356 1081 361 1088 l 493 1240 b 539 1267 496 1256 519 1267 b 596 1226 565 1267 596 1250 b 579 1199 596 1214 586 1207 "},"á":{"ha":492,"x_min":0,"x_max":0,"o":"m 442 53 b 535 203 497 53 522 142 b 568 244 540 232 554 244 b 617 188 590 244 617 214 b 615 178 617 186 617 183 b 417 -39 592 86 536 -39 b 310 18 368 -39 331 -15 b 190 -39 282 -14 243 -39 b 25 171 82 -39 25 53 b 356 544 25 403 186 544 b 419 486 393 544 419 522 b 401 454 419 463 415 454 b 361 457 389 454 375 457 b 132 167 256 457 132 367 b 211 53 132 94 163 53 b 289 125 249 53 274 86 l 289 339 b 283 383 289 365 283 374 b 319 407 283 397 300 407 b 394 346 365 407 394 379 l 394 117 b 442 53 394 86 408 53 m 292 639 b 246 614 281 621 261 614 b 192 646 208 614 192 631 b 203 667 192 653 197 660 l 329 813 b 375 839 332 828 356 839 b 432 799 401 839 432 822 b 415 771 432 786 422 779 "},"Â":{"ha":689,"x_min":0,"x_max":0,"o":"m 333 535 b 272 604 300 535 272 558 b 288 649 272 624 278 649 b 340 635 297 649 300 635 b 563 804 440 635 563 700 b 485 881 563 842 538 881 b 157 354 269 881 157 572 b 315 53 157 181 196 53 b 547 535 478 53 519 317 b 604 563 550 553 578 563 b 647 526 626 563 653 553 b 629 300 640 490 629 408 b 642 -4 629 118 636 40 b 646 -14 644 -8 646 -11 b 575 -47 646 -32 606 -47 b 525 101 526 -47 529 -11 b 303 -56 483 14 400 -56 b 46 351 151 -56 46 53 b 492 986 46 658 228 986 b 672 810 606 986 672 908 b 333 535 672 650 503 535 m 600 1094 b 611 1074 606 1088 611 1081 b 549 1042 611 1058 586 1042 b 518 1056 533 1042 522 1049 l 450 1161 l 390 1065 b 357 1042 383 1053 378 1042 b 297 1085 332 1042 297 1065 b 300 1090 297 1088 299 1089 l 397 1229 b 461 1267 414 1254 438 1267 b 508 1228 494 1267 497 1254 "},"â":{"ha":492,"x_min":0,"x_max":0,"o":"m 442 53 b 535 203 497 53 522 142 b 568 244 540 232 554 244 b 617 188 590 244 617 214 b 615 178 617 186 617 183 b 417 -39 592 86 536 -39 b 310 18 368 -39 331 -15 b 190 -39 282 -14 243 -39 b 25 171 82 -39 25 53 b 356 544 25 403 186 544 b 419 486 393 544 419 522 b 401 454 419 463 415 454 b 361 457 389 454 375 457 b 132 167 256 457 132 367 b 211 53 132 94 163 53 b 289 125 249 53 274 86 l 289 339 b 283 383 289 365 283 374 b 319 407 283 397 300 407 b 394 346 365 407 394 379 l 394 117 b 442 53 394 86 408 53 m 436 667 b 447 646 442 660 447 653 b 385 614 447 631 422 614 b 354 628 369 614 358 621 l 286 733 l 226 638 b 193 614 219 625 214 614 b 133 657 168 614 133 638 b 136 663 133 660 135 661 l 233 801 b 297 839 250 826 274 839 b 344 800 331 839 333 826 "},"Ã":{"ha":689,"x_min":0,"x_max":0,"o":"m 333 535 b 272 604 300 535 272 558 b 288 649 272 624 278 649 b 340 635 297 649 300 635 b 563 804 440 635 563 700 b 485 881 563 842 538 881 b 157 354 269 881 157 572 b 315 53 157 181 196 53 b 547 535 478 53 519 317 b 604 563 550 553 578 563 b 647 526 626 563 653 553 b 629 300 640 490 629 408 b 642 -4 629 118 636 40 b 646 -14 644 -8 646 -11 b 575 -47 646 -32 606 -47 b 525 101 526 -47 529 -11 b 303 -56 483 14 400 -56 b 46 351 151 -56 46 53 b 492 986 46 658 228 986 b 672 810 606 986 672 908 b 333 535 672 650 503 535 m 363 1088 b 331 1069 363 1075 344 1069 b 281 1097 307 1069 281 1082 b 386 1224 281 1151 324 1224 b 525 1150 461 1224 482 1150 b 553 1193 543 1150 553 1167 b 590 1221 553 1214 575 1221 b 638 1196 613 1221 638 1208 b 528 1063 638 1107 575 1063 b 399 1139 454 1063 419 1139 b 363 1088 372 1139 367 1111 "},"ã":{"ha":492,"x_min":0,"x_max":0,"o":"m 442 53 b 535 203 497 53 522 142 b 568 244 540 232 554 244 b 617 188 590 244 617 214 b 615 178 617 186 617 183 b 417 -39 592 86 536 -39 b 310 18 368 -39 331 -15 b 190 -39 282 -14 243 -39 b 25 171 82 -39 25 53 b 356 544 25 403 186 544 b 419 486 393 544 419 522 b 401 454 419 463 415 454 b 361 457 389 454 375 457 b 132 167 256 457 132 367 b 211 53 132 94 163 53 b 289 125 249 53 274 86 l 289 339 b 283 383 289 365 283 374 b 319 407 283 397 300 407 b 394 346 365 407 394 379 l 394 117 b 442 53 394 86 408 53 m 199 660 b 167 642 199 647 181 642 b 117 669 143 642 117 654 b 222 796 117 724 160 796 b 361 722 297 796 318 722 b 389 765 379 722 389 739 b 426 793 389 786 411 793 b 474 768 449 793 474 781 b 364 635 474 679 411 635 b 235 711 290 635 256 711 b 199 660 208 711 203 683 "},"Ä":{"ha":689,"x_min":0,"x_max":0,"o":"m 333 535 b 272 604 300 535 272 558 b 288 649 272 624 278 649 b 340 635 297 649 300 635 b 563 804 440 635 563 700 b 485 881 563 842 538 881 b 157 354 269 881 157 572 b 315 53 157 181 196 53 b 547 535 478 53 519 317 b 604 563 550 553 578 563 b 647 526 626 563 653 553 b 629 300 640 490 629 408 b 642 -4 629 118 636 40 b 646 -14 644 -8 646 -11 b 575 -47 646 -32 606 -47 b 525 101 526 -47 529 -11 b 303 -56 483 14 400 -56 b 46 351 151 -56 46 53 b 492 986 46 658 228 986 b 672 810 606 986 672 908 b 333 535 672 650 503 535 m 289 1135 b 354 1200 289 1171 318 1200 b 419 1135 390 1200 419 1171 b 354 1069 419 1099 390 1069 b 289 1135 318 1069 289 1099 m 489 1135 b 554 1200 489 1171 518 1200 b 619 1135 590 1200 619 1171 b 554 1069 619 1099 590 1069 b 489 1135 518 1069 489 1099 "},"ä":{"ha":492,"x_min":0,"x_max":0,"o":"m 442 53 b 535 203 497 53 522 142 b 568 244 540 232 554 244 b 617 188 590 244 617 214 b 615 178 617 186 617 183 b 417 -39 592 86 536 -39 b 310 18 368 -39 331 -15 b 190 -39 282 -14 243 -39 b 25 171 82 -39 25 53 b 356 544 25 403 186 544 b 419 486 393 544 419 522 b 401 454 419 463 415 454 b 361 457 389 454 375 457 b 132 167 256 457 132 367 b 211 53 132 94 163 53 b 289 125 249 53 274 86 l 289 339 b 283 383 289 365 283 374 b 319 407 283 397 300 407 b 394 346 365 407 394 379 l 394 117 b 442 53 394 86 408 53 m 125 707 b 190 772 125 743 154 772 b 256 707 226 772 256 743 b 190 642 256 671 226 642 b 125 707 154 642 125 671 m 325 707 b 390 772 325 743 354 772 b 456 707 426 772 456 743 b 390 642 456 671 426 642 b 325 707 354 642 325 671 "},"Å":{"ha":689,"x_min":0,"x_max":0,"o":"m 333 535 b 272 604 300 535 272 558 b 288 649 272 624 278 649 b 340 635 297 649 300 635 b 563 804 440 635 563 700 b 485 881 563 842 538 881 b 157 354 269 881 157 572 b 315 53 157 181 196 53 b 547 535 478 53 519 317 b 604 563 550 553 578 563 b 647 526 626 563 653 553 b 629 300 640 490 629 408 b 642 -4 629 118 636 40 b 646 -14 644 -8 646 -11 b 575 -47 646 -32 606 -47 b 525 101 526 -47 529 -11 b 303 -56 483 14 400 -56 b 46 351 151 -56 46 53 b 492 986 46 658 228 986 b 672 810 606 986 672 908 b 333 535 672 650 503 535 m 311 1171 b 454 1314 311 1250 375 1314 b 597 1171 533 1314 597 1250 b 454 1028 597 1092 533 1028 b 311 1171 375 1028 311 1092 m 393 1171 b 454 1110 393 1136 419 1110 b 515 1171 488 1110 515 1136 b 454 1232 515 1204 488 1232 b 393 1171 419 1232 393 1204 "},"å":{"ha":492,"x_min":0,"x_max":0,"o":"m 442 53 b 535 203 497 53 522 142 b 568 244 540 232 554 244 b 617 188 590 244 617 214 b 615 178 617 186 617 183 b 417 -39 592 86 536 -39 b 310 18 368 -39 331 -15 b 190 -39 282 -14 243 -39 b 25 171 82 -39 25 53 b 356 544 25 403 186 544 b 419 486 393 544 419 522 b 401 454 419 463 415 454 b 361 457 389 454 375 457 b 132 167 256 457 132 367 b 211 53 132 94 163 53 b 289 125 249 53 274 86 l 289 339 b 283 383 289 365 283 374 b 319 407 283 397 300 407 b 394 346 365 407 394 379 l 394 117 b 442 53 394 86 408 53 m 147 743 b 290 886 147 822 211 886 b 433 743 369 886 433 822 b 290 600 433 664 369 600 b 147 743 211 600 147 664 m 229 743 b 290 682 229 708 256 682 b 351 743 324 682 351 708 b 290 804 351 776 324 804 b 229 743 256 804 229 776 "},"Æ":{"ha":1156,"x_min":0,"x_max":0,"o":"m 1124 100 b 835 -60 1100 60 1013 -60 b 638 25 754 -60 683 -29 b 642 -4 639 14 640 4 b 646 -14 644 -8 646 -11 b 575 -47 646 -32 606 -47 b 525 101 526 -47 529 -11 b 303 -56 483 14 400 -56 b 46 351 151 -56 46 53 b 492 986 46 658 228 986 b 671 826 599 986 664 917 b 965 996 739 924 846 996 b 1163 813 1093 996 1163 914 b 906 525 1163 668 1043 525 b 829 592 871 525 829 542 b 844 642 829 611 835 642 b 897 628 854 642 857 628 b 1053 814 989 628 1053 725 b 965 889 1053 864 1017 889 b 707 611 826 889 707 744 b 847 425 707 507 786 431 b 860 426 851 426 856 426 b 883 393 876 426 883 411 b 850 321 883 363 867 322 b 701 171 792 314 701 281 b 838 50 701 100 760 50 b 1042 164 954 50 1024 125 b 1071 188 1049 181 1060 188 b 1128 119 1099 188 1128 151 b 1124 100 1128 113 1126 106 m 333 535 b 272 604 300 535 272 558 b 288 649 272 624 278 649 b 340 635 297 649 300 635 b 563 804 440 635 563 700 b 485 881 563 842 538 881 b 157 354 269 881 157 572 b 315 53 157 181 196 53 b 547 535 478 53 519 317 b 599 563 550 551 574 561 b 596 604 597 575 596 589 b 597 640 596 615 596 628 b 333 535 532 575 433 535 m 629 299 b 717 378 651 333 683 360 b 636 454 688 396 658 419 b 629 300 632 413 629 361 "},"æ":{"ha":668,"x_min":0,"x_max":0,"o":"m 179 -39 b 25 171 85 -39 25 53 b 356 544 25 403 186 544 b 413 515 381 544 401 533 b 499 544 439 535 468 544 b 624 404 576 544 624 488 b 418 139 624 301 553 179 b 547 53 438 92 475 53 b 717 228 656 53 700 143 b 801 214 729 290 807 263 b 532 -39 792 129 736 -39 b 390 8 481 -39 431 -22 b 350 -39 389 -15 383 -39 b 289 11 324 -39 293 -31 b 179 -39 260 -18 224 -39 m 211 53 b 297 150 257 53 283 101 b 286 236 290 176 286 204 b 353 457 286 325 313 401 b 132 167 249 451 132 361 b 211 53 132 94 163 53 m 400 240 b 401 215 400 232 401 224 b 515 403 471 247 515 319 b 486 451 515 433 504 451 b 400 240 418 451 397 299 "},"Ǽ":{"ha":1156,"x_min":0,"x_max":0,"o":"m 1124 100 b 835 -60 1100 60 1013 -60 b 638 25 754 -60 683 -29 b 642 -4 639 14 640 4 b 646 -14 644 -8 646 -11 b 575 -47 646 -32 606 -47 b 525 101 526 -47 529 -11 b 303 -56 483 14 400 -56 b 46 351 151 -56 46 53 b 492 986 46 658 228 986 b 671 826 599 986 664 917 b 965 996 739 924 846 996 b 1163 813 1093 996 1163 914 b 906 525 1163 668 1043 525 b 829 592 871 525 829 542 b 844 642 829 611 835 642 b 897 628 854 642 857 628 b 1053 814 989 628 1053 725 b 965 889 1053 864 1017 889 b 707 611 826 889 707 744 b 847 425 707 507 786 431 b 860 426 851 426 856 426 b 883 393 876 426 883 411 b 850 321 883 363 867 322 b 701 171 792 314 701 281 b 838 50 701 100 760 50 b 1042 164 954 50 1024 125 b 1071 188 1049 181 1060 188 b 1128 119 1099 188 1128 151 b 1124 100 1128 113 1126 106 m 333 535 b 272 604 300 535 272 558 b 288 649 272 624 278 649 b 340 635 297 649 300 635 b 563 804 440 635 563 700 b 485 881 563 842 538 881 b 157 354 269 881 157 572 b 315 53 157 181 196 53 b 547 535 478 53 519 317 b 599 563 550 551 574 561 b 596 604 597 575 596 589 b 597 640 596 615 596 628 b 333 535 532 575 433 535 m 629 299 b 717 378 651 333 683 360 b 636 454 688 396 658 419 b 629 300 632 413 629 361 m 714 1067 b 668 1042 703 1049 683 1042 b 614 1074 631 1042 614 1058 b 625 1094 614 1081 619 1088 l 751 1240 b 797 1267 754 1256 778 1267 b 854 1226 824 1267 854 1250 b 838 1199 854 1214 844 1207 "},"ǽ":{"ha":668,"x_min":0,"x_max":0,"o":"m 179 -39 b 25 171 85 -39 25 53 b 356 544 25 403 186 544 b 413 515 381 544 401 533 b 499 544 439 535 468 544 b 624 404 576 544 624 488 b 418 139 624 301 553 179 b 547 53 438 92 475 53 b 717 228 656 53 700 143 b 801 214 729 290 807 263 b 532 -39 792 129 736 -39 b 390 8 481 -39 431 -22 b 350 -39 389 -15 383 -39 b 289 11 324 -39 293 -31 b 179 -39 260 -18 224 -39 m 211 53 b 297 150 257 53 283 101 b 286 236 290 176 286 204 b 353 457 286 325 313 401 b 132 167 249 451 132 361 b 211 53 132 94 163 53 m 400 240 b 401 215 400 232 401 224 b 515 403 471 247 515 319 b 486 451 515 433 504 451 b 400 240 418 451 397 299 m 392 639 b 346 614 381 621 361 614 b 292 646 308 614 292 631 b 303 667 292 653 297 660 l 429 813 b 475 839 432 828 456 839 b 532 799 501 839 532 822 b 515 771 532 786 522 779 "},"Ā":{"ha":689,"x_min":0,"x_max":0,"o":"m 333 535 b 272 604 300 535 272 558 b 288 649 272 624 278 649 b 340 635 297 649 300 635 b 563 804 440 635 563 700 b 485 881 563 842 538 881 b 157 354 269 881 157 572 b 315 53 157 181 196 53 b 547 535 478 53 519 317 b 604 563 550 553 578 563 b 647 526 626 563 653 553 b 629 300 640 490 629 408 b 642 -4 629 118 636 40 b 646 -14 644 -8 646 -11 b 575 -47 646 -32 606 -47 b 525 101 526 -47 529 -11 b 303 -56 483 14 400 -56 b 46 351 151 -56 46 53 b 492 986 46 658 228 986 b 672 810 606 986 672 908 b 333 535 672 650 503 535 m 583 1169 b 614 1133 607 1172 614 1157 b 578 1076 614 1107 600 1076 b 571 1078 576 1076 574 1076 l 331 1078 b 294 1110 306 1078 294 1090 b 344 1169 294 1147 313 1169 "},"ā":{"ha":492,"x_min":0,"x_max":0,"o":"m 442 53 b 535 203 497 53 522 142 b 568 244 540 232 554 244 b 617 188 590 244 617 214 b 615 178 617 186 617 183 b 417 -39 592 86 536 -39 b 310 18 368 -39 331 -15 b 190 -39 282 -14 243 -39 b 25 171 82 -39 25 53 b 356 544 25 403 186 544 b 419 486 393 544 419 522 b 401 454 419 463 415 454 b 361 457 389 454 375 457 b 132 167 256 457 132 367 b 211 53 132 94 163 53 b 289 125 249 53 274 86 l 289 339 b 283 383 289 365 283 374 b 319 407 283 397 300 407 b 394 346 365 407 394 379 l 394 117 b 442 53 394 86 408 53 m 419 742 b 450 706 443 744 450 729 b 414 649 450 679 436 649 b 407 650 413 649 410 649 l 167 650 b 131 682 142 650 131 663 b 181 742 131 719 149 742 "},"Ă":{"ha":689,"x_min":0,"x_max":0,"o":"m 333 535 b 272 604 300 535 272 558 b 288 649 272 624 278 649 b 340 635 297 649 300 635 b 563 804 440 635 563 700 b 485 881 563 842 538 881 b 157 354 269 881 157 572 b 315 53 157 181 196 53 b 547 535 478 53 519 317 b 604 563 550 553 578 563 b 647 526 626 563 653 553 b 629 300 640 490 629 408 b 642 -4 629 118 636 40 b 646 -14 644 -8 646 -11 b 575 -47 646 -32 606 -47 b 525 101 526 -47 529 -11 b 303 -56 483 14 400 -56 b 46 351 151 -56 46 53 b 492 986 46 658 228 986 b 672 810 606 986 672 908 b 333 535 672 650 503 535 m 456 1056 b 286 1221 388 1056 286 1090 b 349 1253 286 1236 311 1253 b 379 1239 364 1253 375 1246 b 454 1140 382 1199 386 1140 b 519 1228 521 1140 519 1196 b 554 1253 522 1239 533 1253 b 613 1211 579 1253 613 1231 b 456 1056 613 1075 503 1056 "},"ă":{"ha":492,"x_min":0,"x_max":0,"o":"m 442 53 b 535 203 497 53 522 142 b 568 244 540 232 554 244 b 617 188 590 244 617 214 b 615 178 617 186 617 183 b 417 -39 592 86 536 -39 b 310 18 368 -39 331 -15 b 190 -39 282 -14 243 -39 b 25 171 82 -39 25 53 b 356 544 25 403 186 544 b 419 486 393 544 419 522 b 401 454 419 463 415 454 b 361 457 389 454 375 457 b 132 167 256 457 132 367 b 211 53 132 94 163 53 b 289 125 249 53 274 86 l 289 339 b 283 383 289 365 283 374 b 319 407 283 397 300 407 b 394 346 365 407 394 379 l 394 117 b 442 53 394 86 408 53 m 292 628 b 122 793 224 628 122 663 b 185 825 122 808 147 825 b 215 811 200 825 211 818 b 290 713 218 771 222 713 b 356 800 357 713 356 768 b 390 825 358 811 369 825 b 449 783 415 825 449 803 b 292 628 449 647 339 628 "},"Ą":{"ha":689,"x_min":0,"x_max":0,"o":"m 333 535 b 272 604 300 535 272 558 b 288 649 272 624 278 649 b 340 635 297 649 300 635 b 563 804 440 635 563 700 b 485 881 563 842 538 881 b 157 354 269 881 157 572 b 315 53 157 181 196 53 b 547 535 478 53 519 317 b 604 563 550 553 578 563 b 647 526 626 563 653 553 b 629 300 640 490 629 408 b 646 -14 629 197 622 88 b 633 -36 649 -25 643 -32 b 518 -169 579 -57 518 -112 b 582 -219 518 -196 533 -219 b 664 -207 603 -219 644 -217 b 683 -240 676 -200 683 -228 b 575 -300 683 -282 654 -300 b 425 -182 464 -300 425 -232 b 532 -10 425 -112 479 -47 b 525 101 528 13 526 49 b 303 -56 483 14 400 -56 b 46 351 151 -56 46 53 b 492 986 46 658 228 986 b 672 810 606 986 672 908 b 333 535 672 650 503 535 "},"ą":{"ha":492,"x_min":0,"x_max":0,"o":"m 442 53 b 535 203 497 53 522 142 b 568 244 540 232 554 244 b 617 188 590 244 617 214 b 615 178 617 186 617 183 b 515 -3 599 117 569 40 b 401 -139 460 -47 401 -82 b 465 -189 401 -165 417 -189 b 547 -176 486 -189 528 -186 b 567 -210 560 -169 567 -197 b 458 -269 567 -251 538 -269 b 308 -151 347 -269 308 -201 b 372 -32 308 -106 331 -71 b 310 18 346 -22 321 -1 b 190 -39 282 -14 243 -39 b 25 171 82 -39 25 53 b 356 544 25 403 186 544 b 419 486 393 544 419 522 b 401 454 419 463 415 454 b 361 457 389 454 375 457 b 132 167 256 457 132 367 b 211 53 132 94 163 53 b 289 125 249 53 274 86 l 289 339 b 283 383 289 365 283 374 b 319 407 283 397 300 407 b 394 346 365 407 394 379 l 394 117 b 442 53 394 86 408 53 "},"Ç":{"ha":678,"x_min":0,"x_max":0,"o":"m 314 578 b 565 811 417 578 565 693 b 481 889 565 843 544 889 b 157 383 297 889 157 610 b 374 47 157 211 214 47 b 567 131 492 47 564 129 b 638 58 603 190 671 92 b 396 -56 633 54 544 -43 l 383 -92 b 496 -212 481 -108 496 -175 b 346 -344 496 -262 457 -344 b 238 -285 267 -344 238 -326 b 257 -251 238 -272 244 -244 b 331 -264 276 -261 310 -264 b 411 -204 379 -264 411 -242 b 299 -128 411 -136 299 -193 b 318 -54 299 -117 311 -78 b 46 383 147 -29 46 136 b 499 990 46 654 222 990 b 675 807 599 990 675 928 b 307 481 675 636 461 481 b 246 547 274 481 246 501 b 261 592 246 567 251 592 b 314 578 271 592 274 578 "},"ç":{"ha":413,"x_min":0,"x_max":0,"o":"m 265 -86 b 378 -207 363 -103 378 -169 b 228 -339 378 -257 339 -339 b 119 -279 149 -339 119 -321 b 139 -246 119 -267 126 -239 b 213 -258 158 -256 192 -258 b 293 -199 261 -258 293 -236 b 181 -122 293 -131 181 -187 b 206 -31 181 -107 203 -40 b 31 224 108 -4 31 82 b 257 544 31 383 125 544 b 389 408 353 544 389 457 b 301 376 389 356 293 328 b 244 451 294 400 292 451 b 144 224 193 451 144 349 b 286 53 144 114 204 53 b 461 228 394 53 444 143 b 546 214 474 290 551 263 b 282 -39 536 131 476 -32 b 281 -43 281 -40 281 -42 "},"Ć":{"ha":678,"x_min":0,"x_max":0,"o":"m 314 578 b 565 811 417 578 565 693 b 481 889 565 843 544 889 b 157 383 297 889 157 610 b 374 47 157 211 214 47 b 567 131 492 47 564 129 b 638 58 603 190 671 92 b 364 -57 633 54 532 -57 b 46 383 165 -57 46 115 b 499 990 46 654 222 990 b 675 807 599 990 675 928 b 307 481 675 636 461 481 b 246 547 274 481 246 501 b 261 592 246 567 251 592 b 314 578 271 592 274 578 m 471 1071 b 425 1046 460 1053 440 1046 b 371 1078 388 1046 371 1063 b 382 1099 371 1085 376 1092 l 508 1244 b 554 1271 511 1260 535 1271 b 611 1231 581 1271 611 1254 b 594 1203 611 1218 601 1211 "},"ć":{"ha":413,"x_min":0,"x_max":0,"o":"m 271 -39 b 31 224 147 -39 31 53 b 257 544 31 383 125 544 b 389 408 353 544 389 457 b 301 376 389 356 293 328 b 244 451 294 400 292 451 b 144 224 193 451 144 349 b 286 53 144 114 204 53 b 461 228 394 53 444 143 b 546 214 474 290 551 263 b 271 -39 536 129 475 -39 m 268 639 b 222 614 257 621 238 614 b 168 646 185 614 168 631 b 179 667 168 653 174 660 l 306 813 b 351 839 308 828 332 839 b 408 799 378 839 408 822 b 392 771 408 786 399 779 "},"Ĉ":{"ha":678,"x_min":0,"x_max":0,"o":"m 314 578 b 565 811 417 578 565 693 b 481 889 565 843 544 889 b 157 383 297 889 157 610 b 374 47 157 211 214 47 b 567 131 492 47 564 129 b 638 58 603 190 671 92 b 364 -57 633 54 532 -57 b 46 383 165 -57 46 115 b 499 990 46 654 222 990 b 675 807 599 990 675 928 b 307 481 675 636 461 481 b 246 547 274 481 246 501 b 261 592 246 567 251 592 b 314 578 271 592 274 578 m 615 1099 b 626 1078 621 1092 626 1085 b 564 1046 626 1063 601 1046 b 533 1060 549 1046 538 1053 l 465 1165 l 406 1069 b 372 1046 399 1057 393 1046 b 313 1089 347 1046 313 1069 b 315 1094 313 1092 314 1093 l 413 1233 b 476 1271 429 1258 453 1271 b 524 1232 510 1271 513 1258 "},"ĉ":{"ha":413,"x_min":0,"x_max":0,"o":"m 271 -39 b 31 224 147 -39 31 53 b 257 544 31 383 125 544 b 389 408 353 544 389 457 b 301 376 389 356 293 328 b 244 451 294 400 292 451 b 144 224 193 451 144 349 b 286 53 144 114 204 53 b 461 228 394 53 444 143 b 546 214 474 290 551 263 b 271 -39 536 129 475 -39 m 413 667 b 424 646 418 660 424 653 b 361 614 424 631 399 614 b 331 628 346 614 335 621 l 263 733 l 203 638 b 169 614 196 625 190 614 b 110 657 144 614 110 638 b 113 663 110 660 111 661 l 210 801 b 274 839 226 826 250 839 b 321 800 307 839 310 826 "},"Ċ":{"ha":678,"x_min":0,"x_max":0,"o":"m 314 578 b 565 811 417 578 565 693 b 481 889 565 843 544 889 b 157 383 297 889 157 610 b 374 47 157 211 214 47 b 567 131 492 47 564 129 b 638 58 603 190 671 92 b 364 -57 633 54 532 -57 b 46 383 165 -57 46 115 b 499 990 46 654 222 990 b 675 807 599 990 675 928 b 307 481 675 636 461 481 b 246 547 274 481 246 501 b 261 592 246 567 251 592 b 314 578 271 592 274 578 m 400 1129 b 469 1199 400 1168 431 1199 b 539 1129 508 1199 539 1168 b 469 1060 539 1090 508 1060 b 400 1129 431 1060 400 1090 "},"ċ":{"ha":413,"x_min":0,"x_max":0,"o":"m 271 -39 b 31 224 147 -39 31 53 b 257 544 31 383 125 544 b 389 408 353 544 389 457 b 301 376 389 356 293 328 b 244 451 294 400 292 451 b 144 224 193 451 144 349 b 286 53 144 114 204 53 b 461 228 394 53 444 143 b 546 214 474 290 551 263 b 271 -39 536 129 475 -39 m 197 697 b 267 767 197 736 228 767 b 336 697 306 767 336 736 b 267 628 336 658 306 628 b 197 697 228 628 197 658 "},"Č":{"ha":678,"x_min":0,"x_max":0,"o":"m 314 578 b 565 811 417 578 565 693 b 481 889 565 843 544 889 b 157 383 297 889 157 610 b 374 47 157 211 214 47 b 567 131 492 47 564 129 b 638 58 603 190 671 92 b 364 -57 633 54 532 -57 b 46 383 165 -57 46 115 b 499 990 46 654 222 990 b 675 807 599 990 675 928 b 307 481 675 636 461 481 b 246 547 274 481 246 501 b 261 592 246 567 251 592 b 314 578 271 592 274 578 m 319 1218 b 308 1239 314 1225 308 1232 b 371 1271 308 1254 333 1271 b 401 1257 386 1271 397 1264 l 469 1151 l 529 1247 b 563 1271 532 1258 542 1271 b 621 1229 588 1271 621 1249 b 611 1211 621 1224 613 1213 l 522 1083 b 478 1046 514 1058 501 1046 b 411 1085 440 1046 433 1056 "},"č":{"ha":413,"x_min":0,"x_max":0,"o":"m 271 -39 b 31 224 147 -39 31 53 b 257 544 31 383 125 544 b 389 408 353 544 389 457 b 301 376 389 356 293 328 b 244 451 294 400 292 451 b 144 224 193 451 144 349 b 286 53 144 114 204 53 b 461 228 394 53 444 143 b 546 214 474 290 551 263 b 271 -39 536 129 475 -39 m 117 786 b 106 807 111 793 106 800 b 168 839 106 822 131 839 b 199 825 183 839 194 832 l 267 719 l 326 815 b 360 839 329 826 339 839 b 418 797 385 839 418 817 b 408 779 418 792 410 781 l 319 651 b 275 614 311 626 299 614 b 208 653 238 614 231 624 "},"Ď":{"ha":846,"x_min":0,"x_max":0,"o":"m 382 171 b 460 54 382 94 404 54 b 689 546 565 54 689 268 b 425 888 689 733 610 888 b 133 574 194 888 133 721 b 207 358 133 440 201 363 b 228 339 222 363 228 353 b 161 257 228 303 193 257 b 140 264 154 257 147 258 b 25 565 136 267 25 369 b 429 994 25 818 186 994 b 800 557 688 994 800 781 b 451 -53 800 163 604 -53 b 274 178 321 -53 274 31 l 274 710 b 268 754 274 736 268 744 b 304 778 268 768 285 778 b 382 717 350 778 382 750 m 293 1222 b 282 1243 288 1229 282 1236 b 344 1275 282 1258 307 1275 b 375 1261 360 1275 371 1268 l 443 1156 l 503 1251 b 536 1275 506 1263 515 1275 b 594 1233 561 1275 594 1253 b 585 1215 594 1228 586 1217 l 496 1088 b 451 1050 488 1063 475 1050 b 385 1089 414 1050 407 1060 "},"ď":{"ha":619,"x_min":0,"x_max":0,"o":"m 204 -39 b 25 185 96 -39 25 39 b 306 542 25 397 154 521 l 306 856 b 292 908 306 896 292 899 b 336 924 292 918 317 924 b 411 863 382 924 411 896 l 411 117 b 458 53 411 86 425 53 b 551 203 514 53 539 142 b 585 244 557 232 571 244 b 633 188 607 244 633 214 b 632 178 633 186 633 183 b 433 -39 608 86 553 -39 b 328 15 386 -39 349 -17 b 204 -39 297 -15 257 -39 m 225 53 b 306 107 261 53 288 76 l 306 450 b 132 194 215 433 132 368 b 225 53 132 94 176 53 m 539 894 b 603 819 572 894 603 871 b 508 679 603 767 540 679 b 471 718 486 679 471 703 b 479 728 471 725 475 725 b 522 772 489 731 506 747 b 475 833 496 778 475 800 b 539 894 475 872 507 894 "},"Ð":{"ha":846,"x_min":0,"x_max":0,"o":"m 274 499 l 274 710 b 268 754 274 736 268 744 b 304 778 268 768 285 778 b 382 717 350 778 382 750 l 382 499 l 476 499 b 507 463 500 501 507 486 b 471 406 507 436 493 406 b 464 407 469 406 467 406 l 382 407 l 382 171 b 460 54 382 94 404 54 b 689 546 565 54 689 268 b 425 888 689 733 610 888 b 133 574 194 888 133 721 b 207 358 133 440 201 363 b 228 339 222 363 228 353 b 161 257 228 303 193 257 b 140 264 154 257 147 258 b 25 565 136 267 25 369 b 429 994 25 818 186 994 b 800 557 688 994 800 781 b 451 -53 800 163 604 -53 b 274 178 321 -53 274 31 l 274 407 l 224 407 b 188 439 199 407 188 419 b 238 499 188 476 206 499 "},"ð":{"ha":476,"x_min":0,"x_max":0,"o":"m 78 728 b 185 806 78 728 125 761 b 92 874 144 850 108 874 b 68 871 82 874 76 871 b 57 886 61 871 57 874 b 135 972 57 911 99 972 b 175 957 151 972 161 968 b 264 867 203 933 233 903 b 365 953 299 894 332 922 b 413 871 371 1010 442 892 b 313 800 375 844 342 821 b 449 310 386 688 449 528 b 233 -39 449 122 388 -39 b 31 233 100 -39 31 94 b 226 544 31 436 153 544 b 271 482 250 544 271 511 b 236 457 271 468 260 450 b 136 242 197 436 136 397 b 236 53 136 125 182 53 b 349 301 315 53 349 167 b 233 742 349 501 293 647 b 151 678 178 700 151 678 b 78 728 117 650 46 703 "},"Đ":{"ha":846,"x_min":0,"x_max":0,"o":"m 274 499 l 274 710 b 268 754 274 736 268 744 b 304 778 268 768 285 778 b 382 717 350 778 382 750 l 382 499 l 476 499 b 507 463 500 501 507 486 b 471 406 507 436 493 406 b 464 407 469 406 467 406 l 382 407 l 382 171 b 460 54 382 94 404 54 b 689 546 565 54 689 268 b 425 888 689 733 610 888 b 133 574 194 888 133 721 b 207 358 133 440 201 363 b 228 339 222 363 228 353 b 161 257 228 303 193 257 b 140 264 154 257 147 258 b 25 565 136 267 25 369 b 429 994 25 818 186 994 b 800 557 688 994 800 781 b 451 -53 800 163 604 -53 b 274 178 321 -53 274 31 l 274 407 l 224 407 b 188 439 199 407 188 419 b 238 499 188 476 206 499 "},"đ":{"ha":508,"x_min":0,"x_max":0,"o":"m 204 -39 b 25 185 96 -39 25 39 b 306 542 25 397 154 521 l 306 638 l 200 638 b 164 669 175 638 164 650 b 214 729 164 707 182 729 l 306 729 l 306 856 b 292 908 306 896 292 899 b 336 924 292 918 317 924 b 411 863 382 924 411 896 l 411 729 l 467 729 b 497 693 490 732 497 717 b 461 636 497 667 483 636 b 454 638 460 636 457 636 l 411 638 l 411 117 b 458 53 411 86 425 53 b 551 203 514 53 539 142 b 585 244 557 232 571 244 b 633 188 607 244 633 214 b 632 178 633 186 633 183 b 433 -39 608 86 553 -39 b 328 15 386 -39 349 -17 b 204 -39 297 -15 257 -39 m 225 53 b 306 107 261 53 288 76 l 306 450 b 132 194 215 433 132 368 b 225 53 132 94 176 53 "},"È":{"ha":619,"x_min":0,"x_max":0,"o":"m 588 100 b 299 -60 564 60 476 -60 b 54 168 165 -60 54 24 b 181 378 54 269 114 343 b 60 604 119 415 60 483 b 429 996 60 789 226 996 b 626 813 557 996 626 914 b 369 525 626 668 507 525 b 293 592 335 525 293 542 b 308 642 293 611 299 642 b 361 628 318 642 321 628 b 517 814 453 628 517 725 b 429 889 517 864 481 889 b 171 611 290 889 171 744 b 311 425 171 507 250 431 b 324 426 315 426 319 426 b 347 393 340 426 347 411 b 314 321 347 363 331 322 b 165 171 256 314 165 281 b 301 50 165 100 224 50 b 506 164 418 50 488 125 b 535 188 513 181 524 188 b 592 119 563 188 592 151 b 588 100 592 113 590 106 m 271 1208 b 260 1232 264 1217 260 1225 b 317 1276 260 1258 299 1276 b 357 1250 336 1276 347 1264 l 483 1104 b 494 1083 489 1097 494 1090 b 432 1051 494 1068 469 1051 b 401 1065 417 1051 406 1058 "},"è":{"ha":413,"x_min":0,"x_max":0,"o":"m 368 404 b 163 139 368 301 297 179 b 292 53 182 92 219 53 b 461 228 400 53 444 143 b 546 214 474 290 551 263 b 276 -39 536 129 481 -39 b 31 236 150 -39 31 63 b 243 544 31 413 136 544 b 368 404 321 544 368 488 m 144 240 b 146 215 144 232 146 224 b 260 403 215 247 260 319 b 231 451 260 433 249 451 b 144 240 163 451 142 299 m 113 771 b 101 794 106 779 101 788 b 158 839 101 821 140 839 b 199 813 178 839 189 826 l 325 667 b 336 646 331 660 336 653 b 274 614 336 631 311 614 b 243 628 258 614 247 621 "},"É":{"ha":619,"x_min":0,"x_max":0,"o":"m 588 100 b 299 -60 564 60 476 -60 b 54 168 165 -60 54 24 b 181 378 54 269 114 343 b 60 604 119 415 60 483 b 429 996 60 789 226 996 b 626 813 557 996 626 914 b 369 525 626 668 507 525 b 293 592 335 525 293 542 b 308 642 293 611 299 642 b 361 628 318 642 321 628 b 517 814 453 628 517 725 b 429 889 517 864 481 889 b 171 611 290 889 171 744 b 311 425 171 507 250 431 b 324 426 315 426 319 426 b 347 393 340 426 347 411 b 314 321 347 363 331 322 b 165 171 256 314 165 281 b 301 50 165 100 224 50 b 506 164 418 50 488 125 b 535 188 513 181 524 188 b 592 119 563 188 592 151 b 588 100 592 113 590 106 m 403 1076 b 357 1051 392 1058 372 1051 b 303 1083 319 1051 303 1068 b 314 1104 303 1090 308 1097 l 440 1250 b 486 1276 443 1265 467 1276 b 543 1236 513 1276 543 1260 b 526 1208 543 1224 533 1217 "},"é":{"ha":413,"x_min":0,"x_max":0,"o":"m 368 404 b 163 139 368 301 297 179 b 292 53 182 92 219 53 b 461 228 400 53 444 143 b 546 214 474 290 551 263 b 276 -39 536 129 481 -39 b 31 236 150 -39 31 63 b 243 544 31 413 136 544 b 368 404 321 544 368 488 m 144 240 b 146 215 144 232 146 224 b 260 403 215 247 260 319 b 231 451 260 433 249 451 b 144 240 163 451 142 299 m 244 639 b 199 614 233 621 214 614 b 144 646 161 614 144 631 b 156 667 144 653 150 660 l 282 813 b 328 839 285 828 308 839 b 385 799 354 839 385 822 b 368 771 385 786 375 779 "},"Ê":{"ha":619,"x_min":0,"x_max":0,"o":"m 588 100 b 299 -60 564 60 476 -60 b 54 168 165 -60 54 24 b 181 378 54 269 114 343 b 60 604 119 415 60 483 b 429 996 60 789 226 996 b 626 813 557 996 626 914 b 369 525 626 668 507 525 b 293 592 335 525 293 542 b 308 642 293 611 299 642 b 361 628 318 642 321 628 b 517 814 453 628 517 725 b 429 889 517 864 481 889 b 171 611 290 889 171 744 b 311 425 171 507 250 431 b 324 426 315 426 319 426 b 347 393 340 426 347 411 b 314 321 347 363 331 322 b 165 171 256 314 165 281 b 301 50 165 100 224 50 b 506 164 418 50 488 125 b 535 188 513 181 524 188 b 592 119 563 188 592 151 b 588 100 592 113 590 106 m 547 1104 b 558 1083 553 1097 558 1090 b 496 1051 558 1068 533 1051 b 465 1065 481 1051 469 1058 l 397 1171 l 338 1075 b 304 1051 331 1063 325 1051 b 244 1094 279 1051 244 1075 b 247 1100 244 1097 246 1099 l 344 1239 b 408 1276 361 1264 385 1276 b 456 1238 442 1276 444 1264 "},"ê":{"ha":413,"x_min":0,"x_max":0,"o":"m 368 404 b 163 139 368 301 297 179 b 292 53 182 92 219 53 b 461 228 400 53 444 143 b 546 214 474 290 551 263 b 276 -39 536 129 481 -39 b 31 236 150 -39 31 63 b 243 544 31 413 136 544 b 368 404 321 544 368 488 m 144 240 b 146 215 144 232 146 224 b 260 403 215 247 260 319 b 231 451 260 433 249 451 b 144 240 163 451 142 299 m 389 667 b 400 646 394 660 400 653 b 338 614 400 631 375 614 b 307 628 322 614 311 621 l 239 733 l 179 638 b 146 614 172 625 167 614 b 86 657 121 614 86 638 b 89 663 86 660 88 661 l 186 801 b 250 839 203 826 226 839 b 297 800 283 839 286 826 "},"Ë":{"ha":619,"x_min":0,"x_max":0,"o":"m 588 100 b 299 -60 564 60 476 -60 b 54 168 165 -60 54 24 b 181 378 54 269 114 343 b 60 604 119 415 60 483 b 429 996 60 789 226 996 b 626 813 557 996 626 914 b 369 525 626 668 507 525 b 293 592 335 525 293 542 b 308 642 293 611 299 642 b 361 628 318 642 321 628 b 517 814 453 628 517 725 b 429 889 517 864 481 889 b 171 611 290 889 171 744 b 311 425 171 507 250 431 b 324 426 315 426 319 426 b 347 393 340 426 347 411 b 314 321 347 363 331 322 b 165 171 256 314 165 281 b 301 50 165 100 224 50 b 506 164 418 50 488 125 b 535 188 513 181 524 188 b 592 119 563 188 592 151 b 588 100 592 113 590 106 m 236 1144 b 301 1210 236 1181 265 1210 b 367 1144 338 1210 367 1181 b 301 1079 367 1108 338 1079 b 236 1144 265 1079 236 1108 m 436 1144 b 501 1210 436 1181 465 1210 b 567 1144 538 1210 567 1181 b 501 1079 567 1108 538 1079 b 436 1144 465 1079 436 1108 "},"ë":{"ha":413,"x_min":0,"x_max":0,"o":"m 368 404 b 163 139 368 301 297 179 b 292 53 182 92 219 53 b 461 228 400 53 444 143 b 546 214 474 290 551 263 b 276 -39 536 129 481 -39 b 31 236 150 -39 31 63 b 243 544 31 413 136 544 b 368 404 321 544 368 488 m 144 240 b 146 215 144 232 146 224 b 260 403 215 247 260 319 b 231 451 260 433 249 451 b 144 240 163 451 142 299 m 78 707 b 143 772 78 743 107 772 b 208 707 179 772 208 743 b 143 642 208 671 179 642 b 78 707 107 642 78 671 m 278 707 b 343 772 278 743 307 772 b 408 707 379 772 408 743 b 343 642 408 671 379 642 b 278 707 307 642 278 671 "},"Ē":{"ha":619,"x_min":0,"x_max":0,"o":"m 588 100 b 299 -60 564 60 476 -60 b 54 168 165 -60 54 24 b 181 378 54 269 114 343 b 60 604 119 415 60 483 b 429 996 60 789 226 996 b 626 813 557 996 626 914 b 369 525 626 668 507 525 b 293 592 335 525 293 542 b 308 642 293 611 299 642 b 361 628 318 642 321 628 b 517 814 453 628 517 725 b 429 889 517 864 481 889 b 171 611 290 889 171 744 b 311 425 171 507 250 431 b 324 426 315 426 319 426 b 347 393 340 426 347 411 b 314 321 347 363 331 322 b 165 171 256 314 165 281 b 301 50 165 100 224 50 b 506 164 418 50 488 125 b 535 188 513 181 524 188 b 592 119 563 188 592 151 b 588 100 592 113 590 106 m 531 1179 b 561 1143 554 1182 561 1167 b 525 1086 561 1117 547 1086 b 518 1088 524 1086 521 1086 l 278 1088 b 242 1119 253 1088 242 1100 b 292 1179 242 1157 260 1179 "},"ē":{"ha":413,"x_min":0,"x_max":0,"o":"m 368 404 b 163 139 368 301 297 179 b 292 53 182 92 219 53 b 461 228 400 53 444 143 b 546 214 474 290 551 263 b 276 -39 536 129 481 -39 b 31 236 150 -39 31 63 b 243 544 31 413 136 544 b 368 404 321 544 368 488 m 144 240 b 146 215 144 232 146 224 b 260 403 215 247 260 319 b 231 451 260 433 249 451 b 144 240 163 451 142 299 m 372 742 b 403 706 396 744 403 729 b 367 649 403 679 389 649 b 360 650 365 649 363 649 l 119 650 b 83 682 94 650 83 663 b 133 742 83 719 101 742 "},"Ĕ":{"ha":619,"x_min":0,"x_max":0,"o":"m 588 100 b 299 -60 564 60 476 -60 b 54 168 165 -60 54 24 b 181 378 54 269 114 343 b 60 604 119 415 60 483 b 429 996 60 789 226 996 b 626 813 557 996 626 914 b 369 525 626 668 507 525 b 293 592 335 525 293 542 b 308 642 293 611 299 642 b 361 628 318 642 321 628 b 517 814 453 628 517 725 b 429 889 517 864 481 889 b 171 611 290 889 171 744 b 311 425 171 507 250 431 b 324 426 315 426 319 426 b 347 393 340 426 347 411 b 314 321 347 363 331 322 b 165 171 256 314 165 281 b 301 50 165 100 224 50 b 506 164 418 50 488 125 b 535 188 513 181 524 188 b 592 119 563 188 592 151 b 588 100 592 113 590 106 m 403 1065 b 233 1231 335 1065 233 1100 b 296 1263 233 1246 258 1263 b 326 1249 311 1263 322 1256 b 401 1150 329 1208 333 1150 b 467 1238 468 1150 467 1206 b 501 1263 469 1249 481 1263 b 560 1221 526 1263 560 1240 b 403 1065 560 1085 450 1065 "},"ĕ":{"ha":413,"x_min":0,"x_max":0,"o":"m 368 404 b 163 139 368 301 297 179 b 292 53 182 92 219 53 b 461 228 400 53 444 143 b 546 214 474 290 551 263 b 276 -39 536 129 481 -39 b 31 236 150 -39 31 63 b 243 544 31 413 136 544 b 368 404 321 544 368 488 m 144 240 b 146 215 144 232 146 224 b 260 403 215 247 260 319 b 231 451 260 433 249 451 b 144 240 163 451 142 299 m 244 628 b 75 793 176 628 75 663 b 138 825 75 808 100 825 b 168 811 153 825 164 818 b 243 713 171 771 175 713 b 308 800 310 713 308 768 b 343 825 311 811 322 825 b 401 783 368 825 401 803 b 244 628 401 647 292 628 "},"Ė":{"ha":619,"x_min":0,"x_max":0,"o":"m 588 100 b 299 -60 564 60 476 -60 b 54 168 165 -60 54 24 b 181 378 54 269 114 343 b 60 604 119 415 60 483 b 429 996 60 789 226 996 b 626 813 557 996 626 914 b 369 525 626 668 507 525 b 293 592 335 525 293 542 b 308 642 293 611 299 642 b 361 628 318 642 321 628 b 517 814 453 628 517 725 b 429 889 517 864 481 889 b 171 611 290 889 171 744 b 311 425 171 507 250 431 b 324 426 315 426 319 426 b 347 393 340 426 347 411 b 314 321 347 363 331 322 b 165 171 256 314 165 281 b 301 50 165 100 224 50 b 506 164 418 50 488 125 b 535 188 513 181 524 188 b 592 119 563 188 592 151 b 588 100 592 113 590 106 m 332 1135 b 401 1204 332 1174 363 1204 b 471 1135 440 1204 471 1174 b 401 1065 471 1096 440 1065 b 332 1135 363 1065 332 1096 "},"ė":{"ha":413,"x_min":0,"x_max":0,"o":"m 368 404 b 163 139 368 301 297 179 b 292 53 182 92 219 53 b 461 228 400 53 444 143 b 546 214 474 290 551 263 b 276 -39 536 129 481 -39 b 31 236 150 -39 31 63 b 243 544 31 413 136 544 b 368 404 321 544 368 488 m 144 240 b 146 215 144 232 146 224 b 260 403 215 247 260 319 b 231 451 260 433 249 451 b 144 240 163 451 142 299 m 174 697 b 243 767 174 736 204 767 b 313 697 282 767 313 736 b 243 628 313 658 282 628 b 174 697 204 628 174 658 "},"Ę":{"ha":619,"x_min":0,"x_max":0,"o":"m 588 100 b 449 -26 565 64 518 11 b 332 -153 397 -54 332 -104 b 396 -203 332 -179 347 -203 b 478 -190 417 -203 458 -200 b 497 -224 490 -183 497 -211 b 389 -283 497 -265 468 -283 b 239 -165 278 -283 239 -215 b 289 -60 239 -126 257 -94 b 54 168 157 -56 54 31 b 181 378 54 269 114 343 b 60 604 119 415 60 483 b 429 996 60 789 226 996 b 626 813 557 996 626 914 b 369 525 626 668 507 525 b 293 592 335 525 293 542 b 308 642 293 611 299 642 b 361 628 318 642 321 628 b 517 814 453 628 517 725 b 429 889 517 864 481 889 b 171 611 290 889 171 744 b 311 425 171 507 250 431 b 324 426 315 426 319 426 b 347 393 340 426 347 411 b 314 321 347 363 331 322 b 165 171 256 314 165 281 b 301 50 165 100 224 50 b 506 164 418 50 488 125 b 535 188 513 181 524 188 b 592 119 563 188 592 151 b 588 100 592 113 590 106 "},"ę":{"ha":413,"x_min":0,"x_max":0,"o":"m 368 404 b 163 139 368 301 297 179 b 292 53 182 92 219 53 b 461 228 400 53 444 143 b 546 214 474 290 551 263 b 369 -25 532 104 479 15 b 244 -156 314 -46 244 -104 b 308 -206 244 -182 260 -206 b 390 -193 329 -206 371 -203 b 410 -226 403 -186 410 -214 b 301 -286 410 -268 381 -286 b 151 -168 190 -286 151 -218 b 231 -35 151 -117 178 -74 b 31 236 118 -11 31 89 b 243 544 31 413 136 544 b 368 404 321 544 368 488 m 144 240 b 146 215 144 232 146 224 b 260 403 215 247 260 319 b 231 451 260 433 249 451 b 144 240 163 451 142 299 "},"Ě":{"ha":619,"x_min":0,"x_max":0,"o":"m 588 100 b 299 -60 564 60 476 -60 b 54 168 165 -60 54 24 b 181 378 54 269 114 343 b 60 604 119 415 60 483 b 429 996 60 789 226 996 b 626 813 557 996 626 914 b 369 525 626 668 507 525 b 293 592 335 525 293 542 b 308 642 293 611 299 642 b 361 628 318 642 321 628 b 517 814 453 628 517 725 b 429 889 517 864 481 889 b 171 611 290 889 171 744 b 311 425 171 507 250 431 b 324 426 315 426 319 426 b 347 393 340 426 347 411 b 314 321 347 363 331 322 b 165 171 256 314 165 281 b 301 50 165 100 224 50 b 506 164 418 50 488 125 b 535 188 513 181 524 188 b 592 119 563 188 592 151 b 588 100 592 113 590 106 m 251 1224 b 240 1244 246 1231 240 1238 b 303 1276 240 1260 265 1276 b 333 1263 318 1276 329 1269 l 401 1157 l 461 1253 b 494 1276 464 1264 474 1276 b 553 1235 519 1276 553 1254 b 543 1217 553 1229 544 1218 l 454 1089 b 410 1051 446 1064 433 1051 b 343 1090 372 1051 365 1061 "},"ě":{"ha":413,"x_min":0,"x_max":0,"o":"m 368 404 b 163 139 368 301 297 179 b 292 53 182 92 219 53 b 461 228 400 53 444 143 b 546 214 474 290 551 263 b 276 -39 536 129 481 -39 b 31 236 150 -39 31 63 b 243 544 31 413 136 544 b 368 404 321 544 368 488 m 144 240 b 146 215 144 232 146 224 b 260 403 215 247 260 319 b 231 451 260 433 249 451 b 144 240 163 451 142 299 m 93 786 b 82 807 88 793 82 800 b 144 839 82 822 107 839 b 175 825 160 839 171 832 l 243 719 l 303 815 b 336 839 306 826 315 839 b 394 797 361 839 394 817 b 385 779 394 792 386 781 l 296 651 b 251 614 288 626 275 614 b 185 653 214 614 207 624 "},"Ĝ":{"ha":713,"x_min":0,"x_max":0,"o":"m 532 81 b 317 -56 474 -6 401 -56 b 47 376 144 -56 47 117 b 500 992 47 653 224 992 b 676 819 600 992 676 926 b 388 539 676 668 508 539 b 326 606 354 539 326 560 b 342 656 326 625 332 656 b 394 642 351 656 354 642 b 567 813 465 642 567 724 b 482 890 567 844 546 890 b 163 378 308 890 163 621 b 319 53 163 178 231 53 b 533 358 461 53 533 244 b 531 404 533 372 531 394 b 575 432 531 431 551 432 b 647 379 600 432 647 410 b 639 169 640 304 639 239 b 640 -49 639 104 640 36 b 714 -42 667 -44 692 -43 b 696 -151 779 -37 744 -150 b 638 -154 675 -151 657 -153 b 435 -492 631 -310 597 -492 b 279 -328 340 -492 279 -421 b 535 -72 279 -186 406 -111 l 535 -58 b 532 81 535 1 532 47 m 438 -385 b 531 -175 500 -385 524 -286 b 388 -325 439 -204 388 -256 b 438 -385 388 -367 410 -385 m 628 1101 b 639 1081 633 1094 639 1088 b 576 1049 639 1065 614 1049 b 546 1063 561 1049 550 1056 l 478 1168 l 418 1072 b 385 1049 411 1060 406 1049 b 325 1092 360 1049 325 1072 b 328 1097 325 1094 326 1096 l 425 1236 b 489 1274 442 1261 465 1274 b 536 1235 522 1274 525 1261 "},"ĝ":{"ha":489,"x_min":0,"x_max":0,"o":"m 132 -412 b 304 -121 132 -272 213 -201 l 304 25 b 190 -25 276 -3 239 -25 b 25 185 82 -25 25 67 b 356 558 25 417 186 558 b 419 500 393 558 419 536 b 401 468 419 476 415 468 b 361 471 389 468 375 471 b 132 181 256 471 132 381 b 211 67 132 108 163 67 b 304 196 267 67 294 140 l 304 353 b 299 397 304 379 299 388 b 335 421 299 411 315 421 b 410 360 381 421 410 393 l 410 -18 b 532 203 460 38 504 107 b 565 244 540 232 551 244 b 614 188 588 244 614 214 b 613 174 614 186 614 179 b 410 -135 565 13 485 -69 l 410 -375 b 265 -572 410 -521 336 -572 b 132 -412 188 -572 132 -501 m 265 -485 b 304 -375 310 -485 304 -401 l 304 -226 b 229 -408 260 -272 229 -325 b 265 -485 229 -451 243 -485 m 454 683 b 465 663 460 676 465 669 b 403 631 465 647 440 631 b 372 644 388 631 376 638 l 304 750 l 244 654 b 211 631 238 642 232 631 b 151 674 186 631 151 654 b 154 679 151 676 153 678 l 251 818 b 315 856 268 843 292 856 b 363 817 349 856 351 843 "},"Ğ":{"ha":713,"x_min":0,"x_max":0,"o":"m 532 81 b 317 -56 474 -6 401 -56 b 47 376 144 -56 47 117 b 500 992 47 653 224 992 b 676 819 600 992 676 926 b 388 539 676 668 508 539 b 326 606 354 539 326 560 b 342 656 326 625 332 656 b 394 642 351 656 354 642 b 567 813 465 642 567 724 b 482 890 567 844 546 890 b 163 378 308 890 163 621 b 319 53 163 178 231 53 b 533 358 461 53 533 244 b 531 404 533 372 531 394 b 575 432 531 431 551 432 b 647 379 600 432 647 410 b 639 169 640 304 639 239 b 640 -49 639 104 640 36 b 714 -42 667 -44 692 -43 b 696 -151 779 -37 744 -150 b 638 -154 675 -151 657 -153 b 435 -492 631 -310 597 -492 b 279 -328 340 -492 279 -421 b 535 -72 279 -186 406 -111 l 535 -58 b 532 81 535 1 532 47 m 438 -385 b 531 -175 500 -385 524 -286 b 388 -325 439 -204 388 -256 b 438 -385 388 -367 410 -385 m 483 1063 b 314 1228 415 1063 314 1097 b 376 1260 314 1243 339 1260 b 407 1246 392 1260 403 1253 b 482 1147 410 1206 414 1147 b 547 1235 549 1147 547 1203 b 582 1260 550 1246 561 1260 b 640 1218 607 1260 640 1238 b 483 1063 640 1082 531 1063 "},"ğ":{"ha":489,"x_min":0,"x_max":0,"o":"m 132 -412 b 304 -121 132 -272 213 -201 l 304 25 b 190 -25 276 -3 239 -25 b 25 185 82 -25 25 67 b 356 558 25 417 186 558 b 419 500 393 558 419 536 b 401 468 419 476 415 468 b 361 471 389 468 375 471 b 132 181 256 471 132 381 b 211 67 132 108 163 67 b 304 196 267 67 294 140 l 304 353 b 299 397 304 379 299 388 b 335 421 299 411 315 421 b 410 360 381 421 410 393 l 410 -18 b 532 203 460 38 504 107 b 565 244 540 232 551 244 b 614 188 588 244 614 214 b 613 174 614 186 614 179 b 410 -135 565 13 485 -69 l 410 -375 b 265 -572 410 -521 336 -572 b 132 -412 188 -572 132 -501 m 265 -485 b 304 -375 310 -485 304 -401 l 304 -226 b 229 -408 260 -272 229 -325 b 265 -485 229 -451 243 -485 m 310 644 b 140 810 242 644 140 679 b 203 842 140 825 165 842 b 233 828 218 842 229 835 b 308 729 236 788 240 729 b 374 817 375 729 374 785 b 408 842 376 828 388 842 b 467 800 433 842 467 819 b 310 644 467 664 357 644 "},"Ġ":{"ha":713,"x_min":0,"x_max":0,"o":"m 532 81 b 317 -56 474 -6 401 -56 b 47 376 144 -56 47 117 b 500 992 47 653 224 992 b 676 819 600 992 676 926 b 388 539 676 668 508 539 b 326 606 354 539 326 560 b 342 656 326 625 332 656 b 394 642 351 656 354 642 b 567 813 465 642 567 724 b 482 890 567 844 546 890 b 163 378 308 890 163 621 b 319 53 163 178 231 53 b 533 358 461 53 533 244 b 531 404 533 372 531 394 b 575 432 531 431 551 432 b 647 379 600 432 647 410 b 639 169 640 304 639 239 b 640 -49 639 104 640 36 b 714 -42 667 -44 692 -43 b 696 -151 779 -37 744 -150 b 638 -154 675 -151 657 -153 b 435 -492 631 -310 597 -492 b 279 -328 340 -492 279 -421 b 535 -72 279 -186 406 -111 l 535 -58 b 532 81 535 1 532 47 m 438 -385 b 531 -175 500 -385 524 -286 b 388 -325 439 -204 388 -256 b 438 -385 388 -367 410 -385 m 413 1132 b 482 1201 413 1171 443 1201 b 551 1132 521 1201 551 1171 b 482 1063 551 1093 521 1063 b 413 1132 443 1063 413 1093 "},"ġ":{"ha":489,"x_min":0,"x_max":0,"o":"m 132 -412 b 304 -121 132 -272 213 -201 l 304 25 b 190 -25 276 -3 239 -25 b 25 185 82 -25 25 67 b 356 558 25 417 186 558 b 419 500 393 558 419 536 b 401 468 419 476 415 468 b 361 471 389 468 375 471 b 132 181 256 471 132 381 b 211 67 132 108 163 67 b 304 196 267 67 294 140 l 304 353 b 299 397 304 379 299 388 b 335 421 299 411 315 421 b 410 360 381 421 410 393 l 410 -18 b 532 203 460 38 504 107 b 565 244 540 232 551 244 b 614 188 588 244 614 214 b 613 174 614 186 614 179 b 410 -135 565 13 485 -69 l 410 -375 b 265 -572 410 -521 336 -572 b 132 -412 188 -572 132 -501 m 265 -485 b 304 -375 310 -485 304 -401 l 304 -226 b 229 -408 260 -272 229 -325 b 265 -485 229 -451 243 -485 m 239 714 b 308 783 239 753 269 783 b 378 714 347 783 378 753 b 308 644 378 675 347 644 b 239 714 269 644 239 675 "},"Ģ":{"ha":713,"x_min":0,"x_max":0,"o":"m 351 -469 b 414 -379 288 -428 399 -335 b 438 -385 421 -383 429 -385 b 535 -58 522 -385 535 -204 b 532 81 535 1 532 47 b 317 -56 474 -6 401 -56 b 47 376 144 -56 47 117 b 500 992 47 653 224 992 b 676 819 600 992 676 926 b 388 539 676 668 508 539 b 326 606 354 539 326 560 b 342 656 326 625 332 656 b 394 642 351 656 354 642 b 567 813 465 642 567 724 b 482 890 567 844 546 890 b 163 378 308 890 163 621 b 319 53 163 178 231 53 b 533 358 461 53 533 244 b 531 404 533 372 531 394 b 575 432 531 431 551 432 b 647 379 600 432 647 410 b 639 169 640 304 639 239 b 640 -68 639 100 640 26 b 435 -492 640 -231 629 -492 b 351 -469 403 -492 375 -485 m 324 -112 b 388 -187 357 -112 388 -136 b 293 -328 388 -240 325 -328 b 256 -289 271 -328 256 -304 b 264 -279 256 -282 260 -282 b 307 -235 274 -276 290 -260 b 260 -174 281 -229 260 -207 b 324 -112 260 -135 292 -112 "},"ģ":{"ha":489,"x_min":0,"x_max":0,"o":"m 132 -412 b 304 -121 132 -272 213 -201 l 304 25 b 190 -25 276 -3 239 -25 b 25 185 82 -25 25 67 b 356 558 25 417 186 558 b 419 500 393 558 419 536 b 401 468 419 476 415 468 b 361 471 389 468 375 471 b 132 181 256 471 132 381 b 211 67 132 108 163 67 b 304 196 267 67 294 140 l 304 353 b 299 397 304 379 299 388 b 335 421 299 411 315 421 b 410 360 381 421 410 393 l 410 -18 b 532 203 460 38 504 107 b 565 244 540 232 551 244 b 614 188 588 244 614 214 b 613 174 614 186 614 179 b 410 -135 565 13 485 -69 l 410 -375 b 265 -572 410 -521 336 -572 b 132 -412 188 -572 132 -501 m 315 628 b 251 703 282 628 251 651 b 346 843 251 756 314 843 b 383 804 368 843 383 819 b 375 794 383 797 379 797 b 332 750 365 792 349 775 b 379 689 358 744 379 722 b 315 628 379 650 347 628 m 265 -485 b 304 -375 310 -485 304 -401 l 304 -226 b 229 -408 260 -272 229 -325 b 265 -485 229 -451 243 -485 "},"Ĥ":{"ha":942,"x_min":0,"x_max":0,"o":"m 538 419 l 754 419 l 754 893 b 826 1042 754 992 788 1042 b 900 968 867 1042 900 988 b 863 864 900 947 863 981 l 863 -7 b 824 -39 863 -31 844 -39 b 754 1 792 -39 754 -19 l 754 322 l 538 322 l 538 -7 b 499 -39 538 -31 519 -39 b 429 1 467 -39 429 -19 l 429 322 l 331 322 b 281 392 301 322 281 363 b 301 419 281 407 288 419 l 429 419 l 429 868 b 135 564 258 868 135 750 b 208 372 135 447 190 372 b 225 379 217 372 218 379 b 233 357 232 379 233 367 b 142 278 233 299 182 249 b 25 560 93 313 25 407 b 482 972 25 854 271 972 b 538 914 511 972 538 947 m 757 1085 b 768 1064 763 1078 768 1071 b 706 1032 768 1049 743 1032 b 675 1046 690 1032 679 1039 l 607 1151 l 547 1056 b 514 1032 540 1043 535 1032 b 454 1075 489 1032 454 1056 b 457 1081 454 1078 456 1079 l 554 1219 b 618 1257 571 1244 594 1257 b 665 1218 651 1257 654 1244 "},"ĥ":{"ha":511,"x_min":0,"x_max":0,"o":"m 49 856 b 35 908 49 896 35 899 b 79 924 35 918 60 924 b 154 863 125 924 154 896 l 154 407 b 310 544 192 485 242 544 b 425 404 403 544 425 468 l 425 117 b 461 53 425 104 425 53 b 554 203 517 53 542 142 b 635 178 571 288 646 222 b 436 -39 610 86 556 -39 b 319 92 363 -39 319 21 l 319 374 b 290 453 319 417 317 453 b 154 224 250 453 164 333 l 154 21 b 115 -39 154 -6 156 -39 b 49 22 88 -39 49 -29 m 244 1033 b 256 1013 250 1026 256 1019 b 193 981 256 997 231 981 b 163 994 178 981 167 988 l 94 1100 l 35 1004 b 1 981 28 992 22 981 b -58 1024 -24 981 -58 1004 b -56 1029 -58 1026 -57 1028 l 42 1168 b 106 1206 58 1193 82 1206 b 153 1167 139 1206 142 1193 "},"Ħ":{"ha":942,"x_min":0,"x_max":0,"o":"m 863 674 l 918 674 b 949 638 942 676 949 661 b 913 581 949 611 935 581 b 906 582 911 581 908 581 l 863 582 l 863 -7 b 824 -39 863 -31 844 -39 b 754 1 792 -39 754 -19 l 754 322 l 538 322 l 538 -7 b 499 -39 538 -31 519 -39 b 429 1 467 -39 429 -19 l 429 582 l 353 582 b 317 614 328 582 317 594 b 367 674 317 651 335 674 l 429 674 l 429 868 b 135 564 258 868 135 750 b 208 372 135 447 190 372 b 225 379 217 372 218 379 b 233 357 232 379 233 367 b 142 278 233 299 182 249 b 25 560 93 313 25 407 b 482 972 25 854 271 972 b 538 914 511 972 538 947 l 538 674 l 754 674 l 754 893 b 826 1042 754 992 788 1042 b 900 968 867 1042 900 988 b 863 864 900 947 863 981 m 538 419 l 754 419 l 754 582 l 538 582 "},"ħ":{"ha":511,"x_min":0,"x_max":0,"o":"m 49 638 l 6 638 b -31 669 -19 638 -31 650 b 19 729 -31 707 -12 729 l 49 729 l 49 856 b 35 908 49 896 35 899 b 79 924 35 918 60 924 b 154 863 125 924 154 896 l 154 729 l 272 729 b 303 693 296 732 303 717 b 267 636 303 667 289 636 b 260 638 265 636 263 636 l 154 638 l 154 407 b 310 544 192 485 242 544 b 425 404 403 544 425 468 l 425 117 b 461 53 425 104 425 53 b 554 203 517 53 542 142 b 635 178 571 288 646 222 b 436 -39 610 86 556 -39 b 319 92 363 -39 319 21 l 319 374 b 290 453 319 417 317 453 b 154 224 250 453 164 333 l 154 21 b 115 -39 154 -6 156 -39 b 49 22 88 -39 49 -29 "},"Ì":{"ha":550,"x_min":0,"x_max":0,"o":"m 471 -7 b 432 -39 471 -31 453 -39 b 363 1 400 -39 363 -19 l 363 864 b 135 581 238 849 135 756 b 208 399 135 469 190 399 b 224 408 215 399 217 408 b 233 388 231 408 233 397 b 142 304 233 329 182 275 b 25 581 93 338 25 440 b 415 972 25 875 251 972 b 471 914 444 972 471 947 m 256 1185 b 244 1208 249 1193 244 1201 b 301 1253 244 1235 283 1253 b 342 1226 321 1253 332 1240 l 468 1081 b 479 1060 474 1074 479 1067 b 417 1028 479 1044 454 1028 b 386 1042 401 1028 390 1035 "},"ì":{"ha":240,"x_min":0,"x_max":0,"o":"m 154 117 b 190 53 154 104 154 53 b 283 203 246 53 271 142 b 364 178 300 288 375 222 b 165 -39 339 86 285 -39 b 49 92 92 -39 49 21 l 49 463 b 43 507 49 489 43 497 b 79 531 43 521 60 531 b 154 469 125 531 154 503 m -29 764 b -40 788 -36 772 -40 781 b 17 832 -40 814 -1 832 b 57 806 36 832 47 819 l 183 660 b 194 639 189 653 194 646 b 132 607 194 624 169 607 b 101 621 117 607 106 614 "},"Í":{"ha":550,"x_min":0,"x_max":0,"o":"m 471 -7 b 432 -39 471 -31 453 -39 b 363 1 400 -39 363 -19 l 363 864 b 135 581 238 849 135 756 b 208 399 135 469 190 399 b 224 408 215 399 217 408 b 233 388 231 408 233 397 b 142 304 233 329 182 275 b 25 581 93 338 25 440 b 415 972 25 875 251 972 b 471 914 444 972 471 947 m 388 1053 b 342 1028 376 1035 357 1028 b 288 1060 304 1028 288 1044 b 299 1081 288 1067 293 1074 l 425 1226 b 471 1253 428 1242 451 1253 b 528 1213 497 1253 528 1236 b 511 1185 528 1200 518 1193 "},"í":{"ha":240,"x_min":0,"x_max":0,"o":"m 154 117 b 190 53 154 104 154 53 b 283 203 246 53 271 142 b 364 178 300 288 375 222 b 165 -39 339 86 285 -39 b 49 92 92 -39 49 21 l 49 463 b 43 507 49 489 43 497 b 79 531 43 521 60 531 b 154 469 125 531 154 503 m 103 632 b 57 607 92 614 72 607 b 3 639 19 607 3 624 b 14 660 3 646 8 653 l 140 806 b 186 832 143 821 167 832 b 243 792 213 832 243 815 b 226 764 243 779 233 772 "},"Î":{"ha":550,"x_min":0,"x_max":0,"o":"m 471 -7 b 432 -39 471 -31 453 -39 b 363 1 400 -39 363 -19 l 363 864 b 135 581 238 849 135 756 b 208 399 135 469 190 399 b 224 408 215 399 217 408 b 233 388 231 408 233 397 b 142 304 233 329 182 275 b 25 581 93 338 25 440 b 415 972 25 875 251 972 b 471 914 444 972 471 947 m 532 1081 b 543 1060 538 1074 543 1067 b 481 1028 543 1044 518 1028 b 450 1042 465 1028 454 1035 l 382 1147 l 322 1051 b 289 1028 315 1039 310 1028 b 229 1071 264 1028 229 1051 b 232 1076 229 1074 231 1075 l 329 1215 b 393 1253 346 1240 369 1253 b 440 1214 426 1253 429 1240 "},"î":{"ha":240,"x_min":0,"x_max":0,"o":"m 154 117 b 190 53 154 104 154 53 b 283 203 246 53 271 142 b 364 178 300 288 375 222 b 165 -39 339 86 285 -39 b 49 92 92 -39 49 21 l 49 463 b 43 507 49 489 43 497 b 79 531 43 521 60 531 b 154 469 125 531 154 503 m 247 660 b 258 639 253 653 258 646 b 196 607 258 624 233 607 b 165 621 181 607 169 614 l 97 726 l 38 631 b 4 607 31 618 25 607 b -56 650 -21 607 -56 631 b -53 656 -56 653 -54 654 l 44 794 b 108 832 61 819 85 832 b 156 793 142 832 144 819 "},"Ï":{"ha":550,"x_min":0,"x_max":0,"o":"m 471 -7 b 432 -39 471 -31 453 -39 b 363 1 400 -39 363 -19 l 363 864 b 135 581 238 849 135 756 b 208 399 135 469 190 399 b 224 408 215 399 217 408 b 233 388 231 408 233 397 b 142 304 233 329 182 275 b 25 581 93 338 25 440 b 415 972 25 875 251 972 b 471 914 444 972 471 947 m 221 1121 b 286 1186 221 1157 250 1186 b 351 1121 322 1186 351 1157 b 286 1056 351 1085 322 1056 b 221 1121 250 1056 221 1085 m 421 1121 b 486 1186 421 1157 450 1186 b 551 1121 522 1186 551 1157 b 486 1056 551 1085 522 1056 b 421 1121 450 1056 421 1085 "},"ï":{"ha":240,"x_min":0,"x_max":0,"o":"m 154 117 b 190 53 154 104 154 53 b 283 203 246 53 271 142 b 364 178 300 288 375 222 b 165 -39 339 86 285 -39 b 49 92 92 -39 49 21 l 49 463 b 43 507 49 489 43 497 b 79 531 43 521 60 531 b 154 469 125 531 154 503 m -64 700 b 1 765 -64 736 -35 765 b 67 700 38 765 67 736 b 1 635 67 664 38 635 b -64 700 -35 635 -64 664 m 136 700 b 201 765 136 736 165 765 b 267 700 238 765 267 736 b 201 635 267 664 238 635 b 136 700 165 635 136 664 "},"Ĩ":{"ha":550,"x_min":0,"x_max":0,"o":"m 471 -7 b 432 -39 471 -31 453 -39 b 363 1 400 -39 363 -19 l 363 864 b 135 581 238 849 135 756 b 208 399 135 469 190 399 b 224 408 215 399 217 408 b 233 388 231 408 233 397 b 142 304 233 329 182 275 b 25 581 93 338 25 440 b 415 972 25 875 251 972 b 471 914 444 972 471 947 m 294 1074 b 263 1056 294 1061 276 1056 b 213 1083 239 1056 213 1068 b 318 1210 213 1138 256 1210 b 457 1136 393 1210 414 1136 b 485 1179 475 1136 485 1153 b 522 1207 485 1200 507 1207 b 569 1182 544 1207 569 1194 b 460 1049 569 1093 507 1049 b 331 1125 386 1049 351 1125 b 294 1074 304 1125 299 1097 "},"ĩ":{"ha":240,"x_min":0,"x_max":0,"o":"m 154 117 b 190 53 154 104 154 53 b 283 203 246 53 271 142 b 364 178 300 288 375 222 b 165 -39 339 86 285 -39 b 49 92 92 -39 49 21 l 49 463 b 43 507 49 489 43 497 b 79 531 43 521 60 531 b 154 469 125 531 154 503 m 10 653 b -22 635 10 640 -8 635 b -72 663 -46 635 -72 647 b 33 789 -72 717 -29 789 b 172 715 108 789 129 715 b 200 758 190 715 200 732 b 238 786 200 779 222 786 b 285 761 260 786 285 774 b 175 628 285 672 222 628 b 46 704 101 628 67 704 b 10 653 19 704 14 676 "},"Ī":{"ha":550,"x_min":0,"x_max":0,"o":"m 471 -7 b 432 -39 471 -31 453 -39 b 363 1 400 -39 363 -19 l 363 864 b 135 581 238 849 135 756 b 208 399 135 469 190 399 b 224 408 215 399 217 408 b 233 388 231 408 233 397 b 142 304 233 329 182 275 b 25 581 93 338 25 440 b 415 972 25 875 251 972 b 471 914 444 972 471 947 m 515 1156 b 546 1119 539 1158 546 1143 b 510 1063 546 1093 532 1063 b 503 1064 508 1063 506 1063 l 263 1064 b 226 1096 238 1064 226 1076 b 276 1156 226 1133 244 1156 "},"ī":{"ha":240,"x_min":0,"x_max":0,"o":"m 154 117 b 190 53 154 104 154 53 b 283 203 246 53 271 142 b 364 178 300 288 375 222 b 165 -39 339 86 285 -39 b 49 92 92 -39 49 21 l 49 463 b 43 507 49 489 43 497 b 79 531 43 521 60 531 b 154 469 125 531 154 503 m 231 735 b 261 699 254 738 261 722 b 225 642 261 672 247 642 b 218 643 224 642 221 642 l -22 643 b -58 675 -47 643 -58 656 b -8 735 -58 713 -40 735 "},"Ĭ":{"ha":550,"x_min":0,"x_max":0,"o":"m 471 -7 b 432 -39 471 -31 453 -39 b 363 1 400 -39 363 -19 l 363 864 b 135 581 238 849 135 756 b 208 399 135 469 190 399 b 224 408 215 399 217 408 b 233 388 231 408 233 397 b 142 304 233 329 182 275 b 25 581 93 338 25 440 b 415 972 25 875 251 972 b 471 914 444 972 471 947 m 388 1042 b 218 1207 319 1042 218 1076 b 281 1239 218 1222 243 1239 b 311 1225 296 1239 307 1232 b 386 1126 314 1185 318 1126 b 451 1214 453 1126 451 1182 b 486 1239 454 1225 465 1239 b 544 1197 511 1239 544 1217 b 388 1042 544 1061 435 1042 "},"ĭ":{"ha":240,"x_min":0,"x_max":0,"o":"m 154 117 b 190 53 154 104 154 53 b 283 203 246 53 271 142 b 364 178 300 288 375 222 b 165 -39 339 86 285 -39 b 49 92 92 -39 49 21 l 49 463 b 43 507 49 489 43 497 b 79 531 43 521 60 531 b 154 469 125 531 154 503 m 103 621 b -67 786 35 621 -67 656 b -4 818 -67 801 -42 818 b 26 804 11 818 22 811 b 101 706 29 764 33 706 b 167 793 168 706 167 761 b 201 818 169 804 181 818 b 260 776 226 818 260 796 b 103 621 260 640 150 621 "},"Į":{"ha":550,"x_min":0,"x_max":0,"o":"m 471 -1 b 449 -39 471 -18 467 -32 b 349 -167 394 -58 349 -110 b 413 -217 349 -193 364 -217 b 494 -204 433 -217 475 -214 b 514 -237 507 -197 514 -225 b 406 -297 514 -279 485 -297 b 256 -179 294 -297 256 -229 b 364 -7 256 -108 310 -43 b 363 1 363 -4 363 -1 l 363 864 b 135 581 238 849 135 756 b 208 399 135 469 190 399 b 224 408 215 399 217 408 b 233 388 231 408 233 397 b 142 304 233 329 182 275 b 25 581 93 338 25 440 b 415 972 25 875 251 972 b 471 914 444 972 471 947 "},"į":{"ha":240,"x_min":0,"x_max":0,"o":"m 154 117 b 190 53 154 104 154 53 b 283 203 246 53 271 142 b 364 178 300 288 375 222 b 204 -39 342 94 297 -3 b 104 -150 153 -58 104 -107 b 168 -200 104 -176 119 -200 b 250 -187 189 -200 231 -197 b 269 -221 263 -181 269 -208 b 161 -281 269 -262 240 -281 b 11 -162 50 -281 11 -212 b 96 -17 11 -104 44 -56 b 49 92 64 10 49 50 l 49 463 b 43 507 49 489 43 497 b 79 531 43 521 60 531 b 154 469 125 531 154 503 m 122 668 b 39 753 76 668 39 707 b 122 838 39 801 76 838 b 207 753 171 838 207 801 b 122 668 207 707 171 668 "},"İ":{"ha":550,"x_min":0,"x_max":0,"o":"m 471 -7 b 432 -39 471 -31 453 -39 b 363 1 400 -39 363 -19 l 363 864 b 135 581 238 849 135 756 b 208 399 135 469 190 399 b 224 408 215 399 217 408 b 233 388 231 408 233 397 b 142 304 233 329 182 275 b 25 581 93 338 25 440 b 415 972 25 875 251 972 b 471 914 444 972 471 947 m 317 1111 b 386 1181 317 1150 347 1181 b 456 1111 425 1181 456 1150 b 386 1042 456 1072 425 1042 b 317 1111 347 1042 317 1072 "},"ı":{"ha":240,"x_min":0,"x_max":0,"o":"m 154 117 b 190 53 154 104 154 53 b 283 203 246 53 271 142 b 364 178 300 288 375 222 b 165 -39 339 86 285 -39 b 49 92 92 -39 49 21 l 49 463 b 43 507 49 489 43 497 b 79 531 43 521 60 531 b 154 469 125 531 154 503 "},"Ĳ":{"ha":1108,"x_min":0,"x_max":0,"o":"m 471 -7 b 432 -39 471 -31 453 -39 b 363 1 400 -39 363 -19 l 363 864 b 135 581 238 849 135 756 b 208 399 135 469 190 399 b 224 408 215 399 217 408 b 233 388 231 408 233 397 b 142 304 233 329 182 275 b 25 581 93 338 25 440 b 415 972 25 875 251 972 b 471 914 444 972 471 947 m 914 864 b 686 581 789 849 686 756 b 760 399 686 469 742 399 b 775 408 767 399 768 408 b 785 388 782 408 785 397 b 717 296 785 340 751 296 b 693 304 708 296 700 299 b 576 581 658 326 576 418 b 967 972 576 875 803 972 b 1022 914 996 972 1022 947 l 1022 -7 l 1022 -49 b 1096 -42 1049 -44 1074 -43 b 1078 -151 1161 -37 1126 -150 b 1021 -154 1057 -151 1039 -153 b 817 -492 1013 -314 978 -492 b 661 -328 722 -492 661 -421 b 914 -74 661 -187 786 -111 l 914 -58 m 819 -385 b 911 -176 882 -385 904 -286 b 769 -325 819 -204 769 -256 b 819 -385 769 -367 792 -385 "},"ĳ":{"ha":474,"x_min":0,"x_max":0,"o":"m 517 203 b 550 244 525 232 536 244 b 599 188 572 244 599 214 b 597 174 599 186 599 179 b 394 -135 550 13 469 -69 l 394 -375 b 250 -572 394 -521 321 -572 b 117 -412 172 -572 117 -501 b 289 -121 117 -272 197 -201 l 289 21 b 165 -39 258 -14 218 -39 b 49 92 92 -39 49 21 l 49 463 b 43 507 49 489 43 497 b 79 531 43 521 60 531 b 154 469 125 531 154 503 l 154 117 b 190 53 154 104 154 53 b 289 235 264 53 289 206 l 289 463 b 283 507 289 489 283 497 b 319 531 283 521 300 531 b 394 469 365 531 394 503 l 394 -18 b 517 203 444 38 489 107 m 257 753 b 342 838 257 801 294 838 b 426 753 388 838 426 801 b 342 668 426 707 388 668 b 257 753 294 668 257 707 m 122 668 b 39 753 76 668 39 707 b 122 838 39 801 76 838 b 207 753 171 838 207 801 b 122 668 207 707 171 668 m 250 -485 b 289 -375 294 -485 289 -401 l 289 -226 b 214 -408 244 -272 214 -325 b 250 -485 214 -451 228 -485 "},"Ĵ":{"ha":557,"x_min":0,"x_max":0,"o":"m 363 864 b 135 581 238 849 135 756 b 208 399 135 469 190 399 b 224 408 215 399 217 408 b 233 388 231 408 233 397 b 165 296 233 340 200 296 b 142 304 157 296 149 299 b 25 581 107 326 25 418 b 415 972 25 875 251 972 b 471 914 444 972 471 947 l 471 -7 l 471 -49 b 544 -42 497 -44 522 -43 b 526 -151 610 -37 575 -150 b 469 -154 506 -151 488 -153 b 265 -492 461 -314 426 -492 b 110 -328 171 -492 110 -421 b 363 -74 110 -187 235 -111 l 363 -58 m 268 -385 b 360 -176 331 -385 353 -286 b 218 -325 268 -204 218 -256 b 268 -385 218 -367 240 -385 m 533 1081 b 544 1060 539 1074 544 1067 b 482 1028 544 1044 519 1028 b 451 1042 467 1028 456 1035 l 383 1147 l 324 1051 b 290 1028 317 1039 311 1028 b 231 1071 265 1028 231 1051 b 233 1076 231 1074 232 1075 l 331 1215 b 394 1253 347 1240 371 1253 b 442 1214 428 1253 431 1240 "},"ĵ":{"ha":233,"x_min":0,"x_max":0,"o":"m 276 203 b 310 244 285 232 296 244 b 358 188 332 244 358 214 b 357 174 358 186 358 179 b 154 -135 310 13 229 -69 l 154 -375 b 10 -572 154 -521 81 -572 b -124 -412 -68 -572 -124 -501 b 49 -121 -124 -272 -43 -201 l 49 463 b 43 507 49 489 43 497 b 79 531 43 521 60 531 b 154 469 125 531 154 503 l 154 -18 b 276 203 204 38 249 107 m 10 -485 b 49 -375 54 -485 49 -401 l 49 -226 b -26 -408 4 -272 -26 -325 b 10 -485 -26 -451 -12 -485 m 263 667 b 274 646 268 660 274 653 b 211 614 274 631 249 614 b 181 628 196 614 185 621 l 113 733 l 53 638 b 19 614 46 625 40 614 b -40 657 -6 614 -40 638 b -37 663 -40 660 -39 661 l 60 801 b 124 839 76 826 100 839 b 171 800 157 839 160 826 "},"ȷ":{"ha":233,"x_min":0,"x_max":0,"o":"m 276 203 b 310 244 285 232 296 244 b 358 188 332 244 358 214 b 357 174 358 186 358 179 b 154 -135 310 13 229 -69 l 154 -375 b 10 -572 154 -521 81 -572 b -124 -412 -68 -572 -124 -501 b 49 -121 -124 -272 -43 -201 l 49 463 b 43 507 49 489 43 497 b 79 531 43 521 60 531 b 154 469 125 531 154 503 l 154 -18 b 276 203 204 38 249 107 m 10 -485 b 49 -375 54 -485 49 -401 l 49 -226 b -26 -408 4 -272 -26 -325 b 10 -485 -26 -451 -12 -485 "},"Ķ":{"ha":832,"x_min":0,"x_max":0,"o":"m 471 425 b 726 1024 740 481 590 792 b 756 1042 729 1029 739 1042 b 838 1000 790 1042 838 1022 b 826 985 838 994 835 989 b 569 368 711 810 815 476 b 865 -132 765 264 739 10 b 892 -151 872 -140 892 -140 b 797 -224 892 -178 819 -224 b 779 -215 790 -224 785 -221 b 471 307 624 -21 689 246 l 471 -7 b 432 -39 471 -31 453 -39 b 363 1 400 -39 363 -19 l 363 864 b 135 581 238 849 135 756 b 208 399 135 469 190 399 b 231 404 217 399 224 404 b 242 388 238 404 242 397 b 142 304 242 329 182 275 b 25 581 93 338 25 440 b 415 972 25 875 251 972 b 471 914 444 972 471 947 m 565 -97 b 629 -172 599 -97 629 -121 b 535 -312 629 -225 567 -312 b 497 -274 513 -312 497 -289 b 506 -264 497 -267 501 -267 b 549 -219 515 -261 532 -244 b 501 -158 522 -214 501 -192 b 565 -97 501 -119 533 -97 "},"ķ":{"ha":486,"x_min":0,"x_max":0,"o":"m 49 856 b 35 908 49 896 35 899 b 79 924 35 918 60 924 b 154 863 125 924 154 896 l 154 429 b 317 544 199 490 254 544 b 440 394 403 544 440 472 b 307 168 440 288 363 208 b 406 53 321 108 351 53 b 529 201 469 53 517 140 b 610 176 546 286 621 221 b 390 -39 585 101 517 -39 b 208 178 281 -39 208 86 b 338 393 208 221 338 265 b 293 451 338 428 319 451 b 154 260 260 451 197 407 l 154 21 b 115 -39 154 -6 156 -39 b 49 22 88 -39 49 -29 m 246 -86 b 310 -161 279 -86 310 -110 b 215 -301 310 -214 247 -301 b 178 -262 193 -301 178 -278 b 186 -253 178 -256 182 -256 b 229 -208 196 -250 213 -233 b 182 -147 203 -203 182 -181 b 246 -86 182 -108 214 -86 "},"ĸ":{"ha":486,"x_min":0,"x_max":0,"o":"m 49 476 b 35 529 49 517 35 519 b 79 544 35 539 60 544 b 154 483 125 544 154 517 l 154 429 b 317 544 199 490 254 544 b 440 394 403 544 440 472 b 307 168 440 288 363 208 b 406 53 321 108 351 53 b 529 201 469 53 517 140 b 610 176 546 286 621 221 b 390 -39 585 101 517 -39 b 208 178 281 -39 208 86 b 338 393 208 221 338 265 b 293 451 338 428 319 451 b 154 260 260 451 197 407 l 154 21 b 115 -39 154 -6 156 -39 b 49 22 88 -39 49 -29 "},"Ĺ":{"ha":701,"x_min":0,"x_max":0,"o":"m 519 -51 b 317 65 438 -51 374 8 b 171 -39 290 8 242 -39 b 26 104 79 -39 26 29 b 185 257 26 194 101 257 b 229 250 200 257 215 254 b 117 624 197 369 117 469 b 447 986 117 803 249 986 b 654 799 571 986 654 907 b 375 507 654 636 496 507 b 304 586 338 507 304 532 b 315 604 304 597 308 604 b 342 594 319 604 326 594 b 544 779 433 594 544 696 b 443 879 544 833 513 879 b 228 619 315 879 228 757 b 342 181 228 475 338 351 b 508 57 401 124 451 57 b 608 185 586 57 608 135 b 606 210 608 197 606 204 b 622 219 606 217 611 219 b 699 157 671 219 699 190 b 519 -51 699 49 626 -51 m 175 161 b 125 110 147 161 125 140 b 174 58 125 83 142 58 b 239 136 211 58 233 96 b 175 161 218 151 197 161 m 444 1067 b 399 1042 433 1049 414 1042 b 344 1074 361 1042 344 1058 b 356 1094 344 1081 350 1088 l 482 1240 b 528 1267 485 1256 508 1267 b 585 1226 554 1267 585 1250 b 568 1199 585 1214 575 1207 "},"ĺ":{"ha":306,"x_min":0,"x_max":0,"o":"m 154 411 b 213 729 183 469 213 653 b 175 863 213 821 197 863 b 154 807 160 863 154 829 m 351 201 b 432 176 368 283 443 221 b 213 -39 407 101 339 -39 b 49 144 106 -39 49 35 l 49 776 b 175 954 49 881 106 954 b 299 731 297 954 299 808 b 154 229 299 526 172 246 l 154 149 b 228 53 154 93 176 53 b 351 201 292 53 339 140 m 175 1028 b 129 1003 164 1010 144 1003 b 75 1035 92 1003 75 1019 b 86 1056 75 1042 81 1049 l 213 1201 b 258 1228 215 1217 239 1228 b 315 1188 285 1228 315 1211 b 299 1160 315 1175 306 1168 "},"Ļ":{"ha":701,"x_min":0,"x_max":0,"o":"m 519 -51 b 317 65 438 -51 374 8 b 171 -39 290 8 242 -39 b 26 104 79 -39 26 29 b 185 257 26 194 101 257 b 229 250 200 257 215 254 b 117 624 197 369 117 469 b 447 986 117 803 249 986 b 654 799 571 986 654 907 b 375 507 654 636 496 507 b 304 586 338 507 304 532 b 315 604 304 597 308 604 b 342 594 319 604 326 594 b 544 779 433 594 544 696 b 443 879 544 833 513 879 b 228 619 315 879 228 757 b 342 181 228 475 338 351 b 508 57 401 124 451 57 b 608 185 586 57 608 135 b 606 210 608 197 606 204 b 622 219 606 217 611 219 b 699 157 671 219 699 190 b 519 -51 699 49 626 -51 m 175 161 b 125 110 147 161 125 140 b 174 58 125 83 142 58 b 239 136 211 58 233 96 b 175 161 218 151 197 161 m 353 -86 b 417 -161 386 -86 417 -110 b 322 -301 417 -214 354 -301 b 285 -262 300 -301 285 -278 b 293 -253 285 -256 289 -256 b 336 -208 303 -250 319 -233 b 289 -147 310 -203 289 -181 b 353 -86 289 -108 321 -86 "},"ļ":{"ha":306,"x_min":0,"x_max":0,"o":"m 154 411 b 213 729 183 469 213 653 b 175 863 213 821 197 863 b 154 807 160 863 154 829 m 351 201 b 432 176 368 283 443 221 b 213 -39 407 101 339 -39 b 49 144 106 -39 49 35 l 49 776 b 175 954 49 881 106 954 b 299 731 297 954 299 808 b 154 229 299 526 172 246 l 154 149 b 228 53 154 93 176 53 b 351 201 292 53 339 140 m 183 -86 b 247 -161 217 -86 247 -110 b 153 -301 247 -214 185 -301 b 115 -262 131 -301 115 -278 b 124 -253 115 -256 119 -256 b 167 -208 133 -250 150 -233 b 119 -147 140 -203 119 -181 b 183 -86 119 -108 151 -86 "},"Ľ":{"ha":860,"x_min":0,"x_max":0,"o":"m 519 -51 b 317 65 438 -51 374 8 b 171 -39 290 8 242 -39 b 26 104 79 -39 26 29 b 185 257 26 194 101 257 b 229 250 200 257 215 254 b 117 624 197 369 117 469 b 447 986 117 803 249 986 b 654 799 571 986 654 907 b 375 507 654 636 496 507 b 304 586 338 507 304 532 b 315 604 304 597 308 604 b 342 594 319 604 326 594 b 544 779 433 594 544 696 b 443 879 544 833 513 879 b 228 619 315 879 228 757 b 342 181 228 475 338 351 b 508 57 401 124 451 57 b 608 185 586 57 608 135 b 606 210 608 197 606 204 b 622 219 606 217 611 219 b 699 157 671 219 699 190 b 519 -51 699 49 626 -51 m 175 161 b 125 110 147 161 125 140 b 174 58 125 83 142 58 b 239 136 211 58 233 96 b 175 161 218 151 197 161 m 779 910 b 843 835 813 910 843 886 b 749 694 843 782 781 694 b 711 733 726 694 711 718 b 719 743 711 740 715 740 b 763 788 729 746 746 763 b 715 849 736 793 715 815 b 779 910 715 888 747 910 "},"ľ":{"ha":463,"x_min":0,"x_max":0,"o":"m 154 411 b 213 729 183 469 213 653 b 175 863 213 821 197 863 b 154 807 160 863 154 829 m 351 201 b 432 176 368 283 443 221 b 213 -39 407 101 339 -39 b 49 144 106 -39 49 35 l 49 776 b 175 954 49 881 106 954 b 299 731 297 954 299 808 b 154 229 299 526 172 246 l 154 149 b 228 53 154 93 176 53 b 351 201 292 53 339 140 m 413 900 b 476 825 446 900 476 876 b 382 685 476 772 414 685 b 344 724 360 685 344 708 b 353 733 344 731 349 731 b 396 778 363 736 379 753 b 349 839 369 783 349 806 b 413 900 349 878 381 900 "},"Ŀ":{"ha":701,"x_min":0,"x_max":0,"o":"m 519 -51 b 317 65 438 -51 374 8 b 171 -39 290 8 242 -39 b 26 104 79 -39 26 29 b 185 257 26 194 101 257 b 229 250 200 257 215 254 b 117 624 197 369 117 469 b 447 986 117 803 249 986 b 654 799 571 986 654 907 b 375 507 654 636 496 507 b 304 586 338 507 304 532 b 315 604 304 597 308 604 b 342 594 319 604 326 594 b 544 779 433 594 544 696 b 443 879 544 833 513 879 b 228 619 315 879 228 757 b 342 181 228 475 338 351 b 508 57 401 124 451 57 b 608 185 586 57 608 135 b 606 210 608 197 606 204 b 622 219 606 217 611 219 b 699 157 671 219 699 190 b 519 -51 699 49 626 -51 m 175 161 b 125 110 147 161 125 140 b 174 58 125 83 142 58 b 239 136 211 58 233 96 b 175 161 218 151 197 161 m 610 447 b 678 381 647 447 678 418 b 610 315 678 346 647 315 b 543 381 574 315 543 346 b 610 447 543 418 574 447 "},"ŀ":{"ha":392,"x_min":0,"x_max":0,"o":"m 154 411 b 213 729 183 469 213 653 b 175 863 213 821 197 863 b 154 807 160 863 154 829 m 351 201 b 432 176 368 283 443 221 b 213 -39 407 101 339 -39 b 49 144 106 -39 49 35 l 49 776 b 175 954 49 881 106 954 b 299 731 297 954 299 808 b 154 229 299 526 172 246 l 154 149 b 228 53 154 93 176 53 b 351 201 292 53 339 140 m 329 431 b 397 364 367 431 397 401 b 329 299 397 329 367 299 b 263 364 293 299 263 329 b 329 431 263 401 293 431 "},"Ł":{"ha":701,"x_min":0,"x_max":0,"o":"m 519 -51 b 317 65 438 -51 374 8 b 171 -39 290 8 242 -39 b 26 104 79 -39 26 29 b 185 257 26 194 101 257 b 229 250 200 257 215 254 b 204 321 222 274 214 297 l 96 290 b 81 288 90 289 85 288 b 49 332 57 288 49 311 b 85 374 49 354 61 367 l 171 397 b 117 624 143 464 117 535 b 447 986 117 803 249 986 b 654 799 571 986 654 907 b 375 507 654 636 496 507 b 304 586 338 507 304 532 b 315 604 304 597 308 604 b 342 594 319 604 326 594 b 544 779 433 594 544 696 b 443 879 544 833 513 879 b 228 619 315 879 228 757 b 276 428 228 553 250 492 l 404 464 b 419 468 410 467 415 468 b 447 422 435 468 447 450 b 417 381 447 401 436 381 l 306 349 b 342 181 325 297 340 242 b 508 57 401 124 451 57 b 608 185 586 57 608 135 b 606 210 608 197 606 204 b 622 219 606 217 611 219 b 699 157 671 219 699 190 b 519 -51 699 49 626 -51 m 174 58 b 239 136 211 58 233 96 b 175 161 218 151 197 161 b 125 110 147 161 125 140 b 174 58 125 83 142 58 "},"ł":{"ha":306,"x_min":0,"x_max":0,"o":"m 351 201 b 432 176 368 283 443 221 b 213 -39 407 101 339 -39 b 49 142 106 -39 49 33 l 22 132 b 7 129 17 131 11 129 b -28 171 -17 126 -26 150 b 6 215 -29 193 -18 206 l 49 231 l 49 776 b 175 954 49 881 106 954 b 299 731 297 954 299 808 b 182 279 299 574 225 372 l 263 308 b 278 314 268 311 274 314 b 308 269 293 315 307 297 b 282 226 310 249 301 228 l 154 179 l 154 149 b 228 53 154 93 176 53 b 351 201 292 53 339 140 m 154 411 b 213 729 183 469 213 653 b 175 863 213 821 197 863 b 154 807 160 863 154 829 "},"Ñ":{"ha":856,"x_min":0,"x_max":0,"o":"m 471 800 b 682 972 526 896 601 972 b 776 851 721 972 776 943 l 776 42 b 843 -83 776 -62 843 -54 b 772 -131 843 -104 815 -131 b 668 18 732 -131 669 -99 l 668 843 b 656 863 668 861 661 863 b 471 529 614 863 471 647 l 471 -7 b 432 -39 471 -31 453 -39 b 363 1 400 -39 363 -19 l 363 864 b 135 581 238 849 135 756 b 208 399 135 469 190 399 b 231 404 217 399 224 404 b 242 388 238 404 242 397 b 167 296 242 340 203 296 b 25 581 119 296 25 418 b 415 972 25 875 251 972 b 471 914 444 972 471 947 m 451 1074 b 419 1056 451 1061 433 1056 b 369 1083 396 1056 369 1068 b 475 1210 369 1138 413 1210 b 614 1136 550 1210 571 1136 b 642 1179 632 1136 642 1153 b 679 1207 642 1200 664 1207 b 726 1182 701 1207 726 1194 b 617 1049 726 1093 664 1049 b 488 1125 543 1049 508 1125 b 451 1074 461 1125 456 1097 "},"ñ":{"ha":511,"x_min":0,"x_max":0,"o":"m 49 463 b 43 507 49 489 43 497 b 79 531 43 521 60 531 b 154 469 125 531 154 503 l 154 407 b 310 544 192 485 242 544 b 425 404 403 544 425 468 l 425 117 b 461 53 425 104 425 53 b 554 203 517 53 542 142 b 588 244 560 232 574 244 b 636 188 610 244 636 214 b 635 178 636 186 636 183 b 436 -39 611 86 556 -39 b 319 92 363 -39 319 21 l 319 374 b 290 453 319 417 317 453 b 154 224 250 453 164 333 l 154 21 b 115 -39 154 -6 156 -39 b 49 22 88 -39 49 -29 m 146 660 b 114 642 146 647 128 642 b 64 669 90 642 64 654 b 169 796 64 724 107 796 b 308 722 244 796 265 722 b 336 765 326 722 336 739 b 374 793 336 786 358 793 b 421 768 396 793 421 781 b 311 635 421 679 358 635 b 182 711 238 635 203 711 b 146 660 156 711 150 683 "},"Ń":{"ha":856,"x_min":0,"x_max":0,"o":"m 471 800 b 682 972 526 896 601 972 b 776 851 721 972 776 943 l 776 42 b 843 -83 776 -62 843 -54 b 772 -131 843 -104 815 -131 b 668 18 732 -131 669 -99 l 668 843 b 656 863 668 861 661 863 b 471 529 614 863 471 647 l 471 -7 b 432 -39 471 -31 453 -39 b 363 1 400 -39 363 -19 l 363 864 b 135 581 238 849 135 756 b 208 399 135 469 190 399 b 231 404 217 399 224 404 b 242 388 238 404 242 397 b 167 296 242 340 203 296 b 25 581 119 296 25 418 b 415 972 25 875 251 972 b 471 914 444 972 471 947 m 544 1053 b 499 1028 533 1035 514 1028 b 444 1060 461 1028 444 1044 b 456 1081 444 1067 450 1074 l 582 1226 b 628 1253 585 1242 608 1253 b 685 1213 654 1253 685 1236 b 668 1185 685 1200 675 1193 "},"ń":{"ha":511,"x_min":0,"x_max":0,"o":"m 49 463 b 43 507 49 489 43 497 b 79 531 43 521 60 531 b 154 469 125 531 154 503 l 154 407 b 310 544 192 485 242 544 b 425 404 403 544 425 468 l 425 117 b 461 53 425 104 425 53 b 554 203 517 53 542 142 b 588 244 560 232 574 244 b 636 188 610 244 636 214 b 635 178 636 186 636 183 b 436 -39 611 86 556 -39 b 319 92 363 -39 319 21 l 319 374 b 290 453 319 417 317 453 b 154 224 250 453 164 333 l 154 21 b 115 -39 154 -6 156 -39 b 49 22 88 -39 49 -29 m 239 639 b 193 614 228 621 208 614 b 139 646 156 614 139 631 b 150 667 139 653 144 660 l 276 813 b 322 839 279 828 303 839 b 379 799 349 839 379 822 b 363 771 379 786 369 779 "},"Ņ":{"ha":856,"x_min":0,"x_max":0,"o":"m 471 800 b 682 972 526 896 601 972 b 776 851 721 972 776 943 l 776 42 b 843 -83 776 -62 843 -54 b 772 -131 843 -104 815 -131 b 668 18 732 -131 669 -99 l 668 843 b 656 863 668 861 661 863 b 471 529 614 863 471 647 l 471 -7 b 432 -39 471 -31 453 -39 b 363 1 400 -39 363 -19 l 363 864 b 135 581 238 849 135 756 b 208 399 135 469 190 399 b 231 404 217 399 224 404 b 242 388 238 404 242 397 b 167 296 242 340 203 296 b 25 581 119 296 25 418 b 415 972 25 875 251 972 b 471 914 444 972 471 947 m 572 -86 b 636 -161 606 -86 636 -110 b 542 -301 636 -214 574 -301 b 504 -262 519 -301 504 -278 b 513 -253 504 -256 508 -256 b 556 -208 522 -250 539 -233 b 508 -147 529 -203 508 -181 b 572 -86 508 -108 540 -86 "},"ņ":{"ha":511,"x_min":0,"x_max":0,"o":"m 49 463 b 43 507 49 489 43 497 b 79 531 43 521 60 531 b 154 469 125 531 154 503 l 154 407 b 310 544 192 485 242 544 b 425 404 403 544 425 468 l 425 117 b 461 53 425 104 425 53 b 554 203 517 53 542 142 b 588 244 560 232 574 244 b 636 188 610 244 636 214 b 635 178 636 186 636 183 b 436 -39 611 86 556 -39 b 319 92 363 -39 319 21 l 319 374 b 290 453 319 417 317 453 b 154 224 250 453 164 333 l 154 21 b 115 -39 154 -6 156 -39 b 49 22 88 -39 49 -29 m 258 -86 b 322 -161 292 -86 322 -110 b 228 -301 322 -214 260 -301 b 190 -262 206 -301 190 -278 b 199 -253 190 -256 194 -256 b 242 -208 208 -250 225 -233 b 194 -147 215 -203 194 -181 b 258 -86 194 -108 226 -86 "},"Ň":{"ha":856,"x_min":0,"x_max":0,"o":"m 471 800 b 682 972 526 896 601 972 b 776 851 721 972 776 943 l 776 42 b 843 -83 776 -62 843 -54 b 772 -131 843 -104 815 -131 b 668 18 732 -131 669 -99 l 668 843 b 656 863 668 861 661 863 b 471 529 614 863 471 647 l 471 -7 b 432 -39 471 -31 453 -39 b 363 1 400 -39 363 -19 l 363 864 b 135 581 238 849 135 756 b 208 399 135 469 190 399 b 231 404 217 399 224 404 b 242 388 238 404 242 397 b 167 296 242 340 203 296 b 25 581 119 296 25 418 b 415 972 25 875 251 972 b 471 914 444 972 471 947 m 393 1200 b 382 1221 388 1207 382 1214 b 444 1253 382 1236 407 1253 b 475 1239 460 1253 471 1246 l 543 1133 l 603 1229 b 636 1253 606 1240 615 1253 b 694 1211 661 1253 694 1231 b 685 1193 694 1206 686 1194 l 596 1065 b 551 1028 588 1040 575 1028 b 485 1067 514 1028 507 1038 "},"ň":{"ha":511,"x_min":0,"x_max":0,"o":"m 49 463 b 43 507 49 489 43 497 b 79 531 43 521 60 531 b 154 469 125 531 154 503 l 154 407 b 310 544 192 485 242 544 b 425 404 403 544 425 468 l 425 117 b 461 53 425 104 425 53 b 554 203 517 53 542 142 b 588 244 560 232 574 244 b 636 188 610 244 636 214 b 635 178 636 186 636 183 b 436 -39 611 86 556 -39 b 319 92 363 -39 319 21 l 319 374 b 290 453 319 417 317 453 b 154 224 250 453 164 333 l 154 21 b 115 -39 154 -6 156 -39 b 49 22 88 -39 49 -29 m 88 786 b 76 807 82 793 76 800 b 139 839 76 822 101 839 b 169 825 154 839 165 832 l 238 719 l 297 815 b 331 839 300 826 310 839 b 389 797 356 839 389 817 b 379 779 389 792 381 781 l 290 651 b 246 614 282 626 269 614 b 179 653 208 614 201 624 "},"ŉ":{"ha":511,"x_min":0,"x_max":0,"o":"m 49 463 b 43 507 49 489 43 497 b 79 531 43 521 60 531 b 154 469 125 531 154 503 l 154 407 b 310 544 192 485 242 544 b 425 404 403 544 425 468 l 425 117 b 461 53 425 104 425 53 b 554 203 517 53 542 142 b 588 244 560 232 574 244 b 636 188 610 244 636 214 b 635 178 636 186 636 183 b 436 -39 611 86 556 -39 b 319 92 363 -39 319 21 l 319 374 b 290 453 319 417 317 453 b 154 224 250 453 164 333 l 154 21 b 115 -39 154 -6 156 -39 b 49 22 88 -39 49 -29 m 68 889 b 132 814 101 889 132 865 b 38 674 132 761 69 674 b 0 713 15 674 0 697 b 8 722 0 719 4 719 b 51 767 18 725 35 742 b 4 828 25 772 4 794 b 68 889 4 867 36 889 "},"Ŋ":{"ha":863,"x_min":0,"x_max":0,"o":"m 471 800 b 682 972 526 896 601 972 b 776 851 721 972 776 943 l 776 -7 l 776 -49 b 850 -42 803 -44 828 -43 b 832 -151 915 -37 881 -150 b 775 -154 811 -151 793 -153 b 571 -492 767 -314 732 -492 b 415 -328 476 -492 415 -421 b 668 -74 415 -187 540 -111 l 668 -58 l 668 843 b 656 863 668 861 661 863 b 471 538 614 863 478 657 l 471 -7 b 432 -39 471 -31 453 -39 b 363 1 400 -39 363 -19 l 363 864 b 135 581 238 849 135 756 b 208 399 135 469 190 399 b 231 404 217 399 224 404 b 242 388 238 404 242 397 b 167 296 242 340 203 296 b 25 581 119 296 25 418 b 415 972 25 875 251 972 b 471 914 444 972 471 947 m 574 -385 b 665 -176 636 -385 658 -286 b 524 -325 574 -204 524 -256 b 574 -385 524 -367 546 -385 "},"ŋ":{"ha":504,"x_min":0,"x_max":0,"o":"m 49 463 b 43 507 49 489 43 497 b 79 531 43 521 60 531 b 154 469 125 531 154 503 l 154 407 b 310 544 192 485 242 544 b 425 404 403 544 425 468 l 425 -18 b 547 203 475 38 519 107 b 581 244 556 232 567 244 b 629 188 603 244 629 214 b 628 174 629 186 629 179 b 425 -135 581 13 500 -69 l 425 -375 b 281 -572 425 -521 351 -572 b 147 -412 203 -572 147 -501 b 319 -121 147 -272 228 -201 l 319 374 b 290 453 319 417 317 453 b 154 224 250 453 164 333 l 154 21 b 115 -39 154 -6 156 -39 b 49 22 88 -39 49 -29 m 319 -226 b 244 -408 275 -272 244 -325 b 281 -485 244 -451 258 -485 b 319 -375 325 -485 319 -401 "},"Ò":{"ha":707,"x_min":0,"x_max":0,"o":"m 543 472 b 539 557 543 499 542 528 l 513 557 b 304 732 397 557 304 625 b 431 864 304 804 356 864 b 621 686 532 864 590 783 b 660 721 635 694 647 707 b 676 739 664 733 669 739 b 721 664 696 739 721 701 b 643 582 721 629 689 601 b 651 472 649 543 651 506 b 336 -39 651 121 499 -39 b 28 414 133 -39 28 165 b 319 999 28 886 308 994 b 335 1001 324 1000 329 1001 b 383 929 365 1001 383 960 b 365 897 383 911 378 897 b 358 899 363 897 361 897 b 139 428 310 871 139 783 b 340 65 139 176 242 65 b 543 472 456 65 542 213 m 525 653 b 440 764 511 717 483 764 b 406 729 413 764 406 744 b 508 653 406 696 436 653 m 263 1199 b 251 1222 256 1207 251 1215 b 308 1267 251 1249 290 1267 b 349 1240 328 1267 339 1254 l 475 1094 b 486 1074 481 1088 486 1081 b 424 1042 486 1058 461 1042 b 393 1056 408 1042 397 1049 "},"ò":{"ha":508,"x_min":0,"x_max":0,"o":"m 557 229 b 636 189 563 261 654 267 b 468 51 619 114 563 51 b 400 61 443 51 421 54 b 233 -39 365 1 313 -39 b 31 219 93 -39 31 81 b 172 547 31 424 142 547 b 200 450 208 547 236 474 b 136 228 178 417 136 365 b 236 53 136 111 182 53 b 318 106 275 53 300 74 b 218 353 253 161 218 253 b 331 515 218 440 256 515 b 449 282 396 515 449 417 b 429 132 449 231 443 179 b 457 129 439 129 447 129 b 557 229 517 129 549 175 m 292 358 b 344 196 292 296 313 238 b 349 260 347 218 349 239 b 315 424 349 354 344 424 b 292 358 300 424 292 401 m 118 769 b 107 793 111 778 107 786 b 164 838 107 819 146 838 b 204 811 183 838 194 825 l 331 665 b 342 644 336 658 342 651 b 279 613 342 629 317 613 b 249 626 264 613 253 619 "},"Ó":{"ha":707,"x_min":0,"x_max":0,"o":"m 543 472 b 539 557 543 499 542 528 l 513 557 b 304 732 397 557 304 625 b 431 864 304 804 356 864 b 621 686 532 864 590 783 b 660 721 635 694 647 707 b 676 739 664 733 669 739 b 721 664 696 739 721 701 b 643 582 721 629 689 601 b 651 472 649 543 651 506 b 336 -39 651 121 499 -39 b 28 414 133 -39 28 165 b 319 999 28 886 308 994 b 335 1001 324 1000 329 1001 b 383 929 365 1001 383 960 b 365 897 383 911 378 897 b 358 899 363 897 361 897 b 139 428 310 871 139 783 b 340 65 139 176 242 65 b 543 472 456 65 542 213 m 525 653 b 440 764 511 717 483 764 b 406 729 413 764 406 744 b 508 653 406 696 436 653 m 394 1067 b 349 1042 383 1049 364 1042 b 294 1074 311 1042 294 1058 b 306 1094 294 1081 300 1088 l 432 1240 b 478 1267 435 1256 458 1267 b 535 1226 504 1267 535 1250 b 518 1199 535 1214 525 1207 "},"ó":{"ha":508,"x_min":0,"x_max":0,"o":"m 557 229 b 636 189 563 261 654 267 b 468 51 619 114 563 51 b 400 61 443 51 421 54 b 233 -39 365 1 313 -39 b 31 219 93 -39 31 81 b 172 547 31 424 142 547 b 200 450 208 547 236 474 b 136 228 178 417 136 365 b 236 53 136 111 182 53 b 318 106 275 53 300 74 b 218 353 253 161 218 253 b 331 515 218 440 256 515 b 449 282 396 515 449 417 b 429 132 449 231 443 179 b 457 129 439 129 447 129 b 557 229 517 129 549 175 m 292 358 b 344 196 292 296 313 238 b 349 260 347 218 349 239 b 315 424 349 354 344 424 b 292 358 300 424 292 401 m 250 638 b 204 613 239 619 219 613 b 150 644 167 613 150 629 b 161 665 150 651 156 658 l 288 811 b 333 838 290 826 314 838 b 390 797 360 838 390 821 b 374 769 390 785 381 778 "},"Ô":{"ha":707,"x_min":0,"x_max":0,"o":"m 543 472 b 539 557 543 499 542 528 l 513 557 b 304 732 397 557 304 625 b 431 864 304 804 356 864 b 621 686 532 864 590 783 b 660 721 635 694 647 707 b 676 739 664 733 669 739 b 721 664 696 739 721 701 b 643 582 721 629 689 601 b 651 472 649 543 651 506 b 336 -39 651 121 499 -39 b 28 414 133 -39 28 165 b 319 999 28 886 308 994 b 335 1001 324 1000 329 1001 b 383 929 365 1001 383 960 b 365 897 383 911 378 897 b 358 899 363 897 361 897 b 139 428 310 871 139 783 b 340 65 139 176 242 65 b 543 472 456 65 542 213 m 525 653 b 440 764 511 717 483 764 b 406 729 413 764 406 744 b 508 653 406 696 436 653 m 539 1094 b 550 1074 544 1088 550 1081 b 488 1042 550 1058 525 1042 b 457 1056 472 1042 461 1049 l 389 1161 l 329 1065 b 296 1042 322 1053 317 1042 b 236 1085 271 1042 236 1065 b 239 1090 236 1088 238 1089 l 336 1229 b 400 1267 353 1254 376 1267 b 447 1228 433 1267 436 1254 "},"ô":{"ha":508,"x_min":0,"x_max":0,"o":"m 557 229 b 636 189 563 261 654 267 b 468 51 619 114 563 51 b 400 61 443 51 421 54 b 233 -39 365 1 313 -39 b 31 219 93 -39 31 81 b 172 547 31 424 142 547 b 200 450 208 547 236 474 b 136 228 178 417 136 365 b 236 53 136 111 182 53 b 318 106 275 53 300 74 b 218 353 253 161 218 253 b 331 515 218 440 256 515 b 449 282 396 515 449 417 b 429 132 449 231 443 179 b 457 129 439 129 447 129 b 557 229 517 129 549 175 m 292 358 b 344 196 292 296 313 238 b 349 260 347 218 349 239 b 315 424 349 354 344 424 b 292 358 300 424 292 401 m 394 665 b 406 644 400 658 406 651 b 343 613 406 629 381 613 b 313 626 328 613 317 619 l 244 732 l 185 636 b 151 613 178 624 172 613 b 92 656 126 613 92 636 b 94 661 92 658 93 660 l 192 800 b 256 838 208 825 232 838 b 303 799 289 838 292 825 "},"Õ":{"ha":707,"x_min":0,"x_max":0,"o":"m 543 472 b 539 557 543 499 542 528 l 513 557 b 304 732 397 557 304 625 b 431 864 304 804 356 864 b 621 686 532 864 590 783 b 660 721 635 694 647 707 b 676 739 664 733 669 739 b 721 664 696 739 721 701 b 643 582 721 629 689 601 b 651 472 649 543 651 506 b 336 -39 651 121 499 -39 b 28 414 133 -39 28 165 b 319 999 28 886 308 994 b 335 1001 324 1000 329 1001 b 383 929 365 1001 383 960 b 365 897 383 911 378 897 b 358 899 363 897 361 897 b 139 428 310 871 139 783 b 340 65 139 176 242 65 b 543 472 456 65 542 213 m 525 653 b 440 764 511 717 483 764 b 406 729 413 764 406 744 b 508 653 406 696 436 653 m 301 1088 b 269 1069 301 1075 283 1069 b 219 1097 246 1069 219 1082 b 325 1224 219 1151 263 1224 b 464 1150 400 1224 421 1150 b 492 1193 482 1150 492 1167 b 529 1221 492 1214 514 1221 b 576 1196 551 1221 576 1208 b 467 1063 576 1107 514 1063 b 338 1139 393 1063 358 1139 b 301 1088 311 1139 306 1111 "},"õ":{"ha":508,"x_min":0,"x_max":0,"o":"m 557 229 b 636 189 563 261 654 267 b 468 51 619 114 563 51 b 400 61 443 51 421 54 b 233 -39 365 1 313 -39 b 31 219 93 -39 31 81 b 172 547 31 424 142 547 b 200 450 208 547 236 474 b 136 228 178 417 136 365 b 236 53 136 111 182 53 b 318 106 275 53 300 74 b 218 353 253 161 218 253 b 331 515 218 440 256 515 b 449 282 396 515 449 417 b 429 132 449 231 443 179 b 457 129 439 129 447 129 b 557 229 517 129 549 175 m 292 358 b 344 196 292 296 313 238 b 349 260 347 218 349 239 b 315 424 349 354 344 424 b 292 358 300 424 292 401 m 157 658 b 125 640 157 646 139 640 b 75 668 101 640 75 653 b 181 794 75 722 118 794 b 319 721 256 794 276 721 b 347 764 338 721 347 738 b 385 792 347 785 369 792 b 432 767 407 792 432 779 b 322 633 432 678 369 633 b 193 710 249 633 214 710 b 157 658 167 710 161 682 "},"Ö":{"ha":707,"x_min":0,"x_max":0,"o":"m 543 472 b 539 557 543 499 542 528 l 513 557 b 304 732 397 557 304 625 b 431 864 304 804 356 864 b 621 686 532 864 590 783 b 660 721 635 694 647 707 b 676 739 664 733 669 739 b 721 664 696 739 721 701 b 643 582 721 629 689 601 b 651 472 649 543 651 506 b 336 -39 651 121 499 -39 b 28 414 133 -39 28 165 b 319 999 28 886 308 994 b 335 1001 324 1000 329 1001 b 383 929 365 1001 383 960 b 365 897 383 911 378 897 b 358 899 363 897 361 897 b 139 428 310 871 139 783 b 340 65 139 176 242 65 b 543 472 456 65 542 213 m 525 653 b 440 764 511 717 483 764 b 406 729 413 764 406 744 b 508 653 406 696 436 653 m 228 1135 b 293 1200 228 1171 257 1200 b 358 1135 329 1200 358 1171 b 293 1069 358 1099 329 1069 b 228 1135 257 1069 228 1099 m 428 1135 b 493 1200 428 1171 457 1200 b 558 1135 529 1200 558 1171 b 493 1069 558 1099 529 1069 b 428 1135 457 1069 428 1099 "},"ö":{"ha":508,"x_min":0,"x_max":0,"o":"m 557 229 b 636 189 563 261 654 267 b 468 51 619 114 563 51 b 400 61 443 51 421 54 b 233 -39 365 1 313 -39 b 31 219 93 -39 31 81 b 172 547 31 424 142 547 b 200 450 208 547 236 474 b 136 228 178 417 136 365 b 236 53 136 111 182 53 b 318 106 275 53 300 74 b 218 353 253 161 218 253 b 331 515 218 440 256 515 b 449 282 396 515 449 417 b 429 132 449 231 443 179 b 457 129 439 129 447 129 b 557 229 517 129 549 175 m 292 358 b 344 196 292 296 313 238 b 349 260 347 218 349 239 b 315 424 349 354 344 424 b 292 358 300 424 292 401 m 83 706 b 149 771 83 742 113 771 b 214 706 185 771 214 742 b 149 640 214 669 185 640 b 83 706 113 640 83 669 m 283 706 b 349 771 283 742 313 771 b 414 706 385 771 414 742 b 349 640 414 669 385 640 b 283 706 313 640 283 669 "},"Ō":{"ha":707,"x_min":0,"x_max":0,"o":"m 543 472 b 539 557 543 499 542 528 l 513 557 b 304 732 397 557 304 625 b 431 864 304 804 356 864 b 621 686 532 864 590 783 b 660 721 635 694 647 707 b 676 739 664 733 669 739 b 721 664 696 739 721 701 b 643 582 721 629 689 601 b 651 472 649 543 651 506 b 336 -39 651 121 499 -39 b 28 414 133 -39 28 165 b 319 999 28 886 308 994 b 335 1001 324 1000 329 1001 b 383 929 365 1001 383 960 b 365 897 383 911 378 897 b 358 899 363 897 361 897 b 139 428 310 871 139 783 b 340 65 139 176 242 65 b 543 472 456 65 542 213 m 525 653 b 440 764 511 717 483 764 b 406 729 413 764 406 744 b 508 653 406 696 436 653 m 522 1169 b 553 1133 546 1172 553 1157 b 517 1076 553 1107 539 1076 b 510 1078 515 1076 513 1076 l 269 1078 b 233 1110 244 1078 233 1090 b 283 1169 233 1147 251 1169 "},"ō":{"ha":508,"x_min":0,"x_max":0,"o":"m 557 229 b 636 189 563 261 654 267 b 468 51 619 114 563 51 b 400 61 443 51 421 54 b 233 -39 365 1 313 -39 b 31 219 93 -39 31 81 b 172 547 31 424 142 547 b 200 450 208 547 236 474 b 136 228 178 417 136 365 b 236 53 136 111 182 53 b 318 106 275 53 300 74 b 218 353 253 161 218 253 b 331 515 218 440 256 515 b 449 282 396 515 449 417 b 429 132 449 231 443 179 b 457 129 439 129 447 129 b 557 229 517 129 549 175 m 292 358 b 344 196 292 296 313 238 b 349 260 347 218 349 239 b 315 424 349 354 344 424 b 292 358 300 424 292 401 m 378 740 b 408 704 401 743 408 728 b 372 647 408 678 394 647 b 365 649 371 647 368 647 l 125 649 b 89 681 100 649 89 661 b 139 740 89 718 107 740 "},"Ŏ":{"ha":707,"x_min":0,"x_max":0,"o":"m 543 472 b 539 557 543 499 542 528 l 513 557 b 304 732 397 557 304 625 b 431 864 304 804 356 864 b 621 686 532 864 590 783 b 660 721 635 694 647 707 b 676 739 664 733 669 739 b 721 664 696 739 721 701 b 643 582 721 629 689 601 b 651 472 649 543 651 506 b 336 -39 651 121 499 -39 b 28 414 133 -39 28 165 b 319 999 28 886 308 994 b 335 1001 324 1000 329 1001 b 383 929 365 1001 383 960 b 365 897 383 911 378 897 b 358 899 363 897 361 897 b 139 428 310 871 139 783 b 340 65 139 176 242 65 b 543 472 456 65 542 213 m 525 653 b 440 764 511 717 483 764 b 406 729 413 764 406 744 b 508 653 406 696 436 653 m 394 1056 b 225 1221 326 1056 225 1090 b 288 1253 225 1236 250 1253 b 318 1239 303 1253 314 1246 b 393 1140 321 1199 325 1140 b 458 1228 460 1140 458 1196 b 493 1253 461 1239 472 1253 b 551 1211 518 1253 551 1231 b 394 1056 551 1075 442 1056 "},"ŏ":{"ha":508,"x_min":0,"x_max":0,"o":"m 557 229 b 636 189 563 261 654 267 b 468 51 619 114 563 51 b 400 61 443 51 421 54 b 233 -39 365 1 313 -39 b 31 219 93 -39 31 81 b 172 547 31 424 142 547 b 200 450 208 547 236 474 b 136 228 178 417 136 365 b 236 53 136 111 182 53 b 318 106 275 53 300 74 b 218 353 253 161 218 253 b 331 515 218 440 256 515 b 449 282 396 515 449 417 b 429 132 449 231 443 179 b 457 129 439 129 447 129 b 557 229 517 129 549 175 m 292 358 b 344 196 292 296 313 238 b 349 260 347 218 349 239 b 315 424 349 354 344 424 b 292 358 300 424 292 401 m 250 626 b 81 792 182 626 81 661 b 143 824 81 807 106 824 b 174 810 158 824 169 817 b 249 711 176 769 181 711 b 314 799 315 711 314 767 b 349 824 317 810 328 824 b 407 782 374 824 407 801 b 250 626 407 646 297 626 "},"Ő":{"ha":707,"x_min":0,"x_max":0,"o":"m 543 472 b 539 557 543 499 542 528 l 513 557 b 304 732 397 557 304 625 b 431 864 304 804 356 864 b 621 686 532 864 590 783 b 660 721 635 694 647 707 b 676 739 664 733 669 739 b 721 664 696 739 721 701 b 643 582 721 629 689 601 b 651 472 649 543 651 506 b 336 -39 651 121 499 -39 b 28 414 133 -39 28 165 b 319 999 28 886 308 994 b 335 1001 324 1000 329 1001 b 383 929 365 1001 383 960 b 365 897 383 911 378 897 b 358 899 363 897 361 897 b 139 428 310 871 139 783 b 340 65 139 176 242 65 b 543 472 456 65 542 213 m 525 653 b 440 764 511 717 483 764 b 406 729 413 764 406 744 b 508 653 406 696 436 653 m 339 1067 b 299 1042 332 1049 314 1042 b 249 1074 261 1042 253 1058 b 256 1094 247 1081 251 1088 l 344 1240 b 383 1267 343 1256 364 1267 b 438 1226 410 1267 432 1250 b 428 1199 440 1214 433 1207 m 514 1067 b 472 1042 506 1049 488 1042 b 422 1074 435 1042 425 1058 b 431 1094 421 1081 425 1088 l 533 1240 b 575 1267 535 1256 556 1267 b 629 1226 601 1267 625 1250 b 617 1199 631 1214 622 1207 "},"ő":{"ha":508,"x_min":0,"x_max":0,"o":"m 557 229 b 636 189 563 261 654 267 b 468 51 619 114 563 51 b 400 61 443 51 421 54 b 233 -39 365 1 313 -39 b 31 219 93 -39 31 81 b 172 547 31 424 142 547 b 200 450 208 547 236 474 b 136 228 178 417 136 365 b 236 53 136 111 182 53 b 318 106 275 53 300 74 b 218 353 253 161 218 253 b 331 515 218 440 256 515 b 449 282 396 515 449 417 b 429 132 449 231 443 179 b 457 129 439 129 447 129 b 557 229 517 129 549 175 m 292 358 b 344 196 292 296 313 238 b 349 260 347 218 349 239 b 315 424 349 354 344 424 b 292 358 300 424 292 401 m 194 638 b 154 613 188 619 169 613 b 104 644 117 613 108 629 b 111 665 103 651 107 658 l 200 811 b 239 838 199 826 219 838 b 293 797 265 838 288 821 b 283 769 296 785 289 778 m 369 638 b 328 613 361 619 343 613 b 278 644 290 613 281 629 b 286 665 276 651 281 658 l 389 811 b 431 838 390 826 411 838 b 485 797 457 838 481 821 b 472 769 486 785 478 778 "},"Ø":{"ha":707,"x_min":0,"x_max":0,"o":"m 107 92 b 28 414 54 174 28 288 b 319 999 28 886 308 994 b 335 1001 324 1000 329 1001 b 383 929 365 1001 383 960 b 365 897 383 911 378 897 b 358 899 363 897 361 897 b 139 428 310 871 139 783 b 172 211 139 338 151 267 l 474 756 b 440 768 464 764 453 768 b 403 729 413 768 403 744 b 418 696 403 700 418 706 b 346 646 418 685 378 646 b 304 732 318 646 304 704 b 431 864 304 804 356 864 b 519 839 464 864 494 854 l 567 924 b 568 940 569 928 567 935 b 583 947 569 946 574 949 b 654 885 604 944 660 918 b 651 876 654 883 654 878 l 589 763 b 651 472 636 679 651 561 b 336 -39 651 121 499 -39 b 175 15 272 -39 218 -18 l 129 -67 b 103 -75 124 -76 114 -78 b 47 -18 79 -72 43 -44 b 53 -7 49 -14 50 -11 m 543 472 b 526 650 543 528 539 594 l 231 117 b 340 65 264 82 301 65 b 543 472 454 65 543 213 "},"ø":{"ha":508,"x_min":0,"x_max":0,"o":"m 557 229 b 636 189 563 261 654 267 b 468 51 619 114 563 51 b 400 61 443 51 421 54 b 233 -39 365 1 313 -39 b 156 -25 204 -39 178 -33 l 101 -137 b 83 -147 97 -146 92 -147 b 31 -103 58 -147 31 -129 b 36 -86 31 -97 32 -92 l 89 24 b 31 219 49 72 31 143 b 172 547 31 424 142 547 b 200 450 208 547 236 474 b 136 228 178 417 136 365 b 146 140 136 193 139 165 l 222 294 b 218 353 219 314 218 333 b 329 515 218 440 256 514 l 381 618 b 379 629 381 621 379 625 b 390 642 379 636 381 642 b 457 593 407 642 457 625 b 454 579 457 590 457 585 l 400 471 b 449 282 429 429 449 363 b 429 132 449 231 443 179 b 457 129 439 129 447 129 b 557 229 517 129 549 175 m 236 53 b 318 106 275 53 300 74 b 258 182 293 126 274 153 l 199 63 b 236 53 210 56 224 53 m 304 275 b 344 196 313 246 328 218 b 349 260 347 218 349 239 b 344 358 349 297 347 332 l 304 275 "},"Ǿ":{"ha":707,"x_min":0,"x_max":0,"o":"m 107 92 b 28 414 54 174 28 288 b 319 999 28 886 308 994 b 335 1001 324 1000 329 1001 b 383 929 365 1001 383 960 b 365 897 383 911 378 897 b 358 899 363 897 361 897 b 139 428 310 871 139 783 b 172 211 139 338 151 267 l 474 756 b 440 768 464 764 453 768 b 403 729 413 768 403 744 b 418 696 403 700 418 706 b 346 646 418 685 378 646 b 304 732 318 646 304 704 b 431 864 304 804 356 864 b 519 839 464 864 494 854 l 567 924 b 568 940 569 928 567 935 b 583 947 569 946 574 949 b 654 885 604 944 660 918 b 651 876 654 883 654 878 l 589 763 b 651 472 636 679 651 561 b 336 -39 651 121 499 -39 b 175 15 272 -39 218 -18 l 129 -67 b 103 -75 124 -76 114 -78 b 47 -18 79 -72 43 -44 b 53 -7 49 -14 50 -11 m 543 472 b 526 650 543 528 539 594 l 231 117 b 340 65 264 82 301 65 b 543 472 454 65 543 213 m 435 1067 b 389 1042 424 1049 404 1042 b 335 1074 351 1042 335 1058 b 346 1094 335 1081 340 1088 l 472 1240 b 518 1267 475 1256 499 1267 b 575 1226 544 1267 575 1250 b 558 1199 575 1214 565 1207 "},"ǿ":{"ha":508,"x_min":0,"x_max":0,"o":"m 557 229 b 636 189 563 261 654 267 b 468 51 619 114 563 51 b 400 61 443 51 421 54 b 233 -39 365 1 313 -39 b 156 -25 204 -39 178 -33 l 101 -137 b 83 -147 97 -146 92 -147 b 31 -103 58 -147 31 -129 b 36 -86 31 -97 32 -92 l 89 24 b 31 219 49 72 31 143 b 172 547 31 424 142 547 b 200 450 208 547 236 474 b 136 228 178 417 136 365 b 146 140 136 193 139 165 l 222 294 b 218 353 219 314 218 333 b 329 515 218 440 256 514 l 381 618 b 379 629 381 621 379 625 b 390 642 379 636 381 642 b 457 593 407 642 457 625 b 454 579 457 590 457 585 l 400 471 b 449 282 429 429 449 363 b 429 132 449 231 443 179 b 457 129 439 129 447 129 b 557 229 517 129 549 175 m 236 53 b 318 106 275 53 300 74 b 258 182 293 126 274 153 l 199 63 b 236 53 210 56 224 53 m 304 275 b 344 196 313 246 328 218 b 349 260 347 218 349 239 b 344 358 349 297 347 332 l 304 275 m 267 639 b 221 614 256 621 236 614 b 167 646 183 614 167 631 b 178 667 167 653 172 660 l 304 813 b 350 839 307 828 331 839 b 407 799 376 839 407 822 b 390 771 407 786 397 779 "},"Œ":{"ha":1150,"x_min":0,"x_max":0,"o":"m 1118 100 b 829 -60 1094 60 1007 -60 b 586 138 706 -60 600 11 b 336 -39 526 17 433 -39 b 28 414 133 -39 28 165 b 319 999 28 886 308 994 b 335 1001 324 1000 329 1001 b 383 929 365 1001 383 960 b 365 897 383 911 378 897 b 358 899 363 897 361 897 b 139 428 310 871 139 783 b 340 65 139 176 242 65 b 543 472 456 65 542 213 b 539 557 543 499 542 528 l 513 557 b 304 732 397 557 304 625 b 431 864 304 804 356 864 b 621 688 532 864 590 782 b 960 996 656 846 786 996 b 1157 813 1088 996 1157 914 b 900 525 1157 668 1038 525 b 824 592 865 525 824 542 b 839 642 824 611 829 642 b 892 628 849 642 851 628 b 1047 814 983 628 1047 725 b 960 889 1047 864 1011 889 b 701 611 821 889 701 744 b 842 425 701 507 781 431 b 854 426 846 426 850 426 b 878 393 871 426 878 411 b 844 321 878 363 861 322 b 696 171 786 314 696 281 b 832 50 696 100 754 50 b 1036 164 949 50 1018 125 b 1065 188 1043 181 1054 188 b 1122 119 1093 188 1122 151 b 1118 100 1122 113 1121 106 m 508 653 b 525 653 514 653 519 651 b 440 764 511 715 485 764 b 406 729 413 764 406 744 b 508 653 406 696 436 653 m 650 436 b 640 322 649 396 646 357 b 711 378 661 346 686 364 b 650 436 688 392 667 411 "},"œ":{"ha":718,"x_min":0,"x_max":0,"o":"m 236 53 b 318 106 275 53 300 74 b 218 353 254 161 218 253 b 331 515 218 440 256 515 b 410 457 361 515 389 493 b 549 544 446 511 496 544 b 674 404 626 544 674 488 b 468 139 674 301 603 179 b 597 53 488 92 525 53 b 767 228 706 53 750 143 b 851 214 779 290 857 263 b 582 -39 842 129 786 -39 b 399 58 508 -39 442 -4 b 233 -39 365 0 311 -39 b 31 219 93 -39 31 81 b 172 547 31 424 142 547 b 200 450 208 547 236 474 b 136 228 178 417 136 365 b 236 53 136 111 182 53 m 450 240 b 451 215 450 232 451 224 b 565 403 521 247 565 319 b 536 451 565 433 554 451 b 450 240 468 451 447 299 m 292 358 b 344 196 292 296 313 238 b 349 260 347 218 349 239 b 315 424 349 354 344 424 b 292 358 300 424 292 401 "},"Þ":{"ha":801,"x_min":0,"x_max":0,"o":"m 278 689 b 131 490 174 651 131 575 b 183 371 131 404 181 374 b 204 351 199 375 204 365 b 126 265 204 326 167 235 b 25 478 104 282 25 349 b 278 796 25 635 122 750 l 278 904 b 272 949 278 931 272 939 b 308 972 272 963 289 972 b 386 911 354 972 386 944 l 386 817 b 443 819 404 818 424 819 b 778 540 646 819 778 703 b 386 165 778 342 590 197 l 386 -7 b 347 -39 386 -31 368 -39 b 278 1 315 -39 278 -19 m 444 715 b 386 713 424 715 404 714 l 386 268 b 671 535 481 276 671 357 b 444 715 671 615 607 715 "},"þ":{"ha":501,"x_min":0,"x_max":0,"o":"m 154 471 b 281 544 183 513 222 544 b 442 300 389 544 442 438 b 406 97 442 222 426 147 b 550 203 497 101 518 138 b 582 240 563 229 569 240 b 632 188 606 240 632 207 b 361 11 632 124 546 11 b 221 -53 324 -29 269 -53 b 154 -32 188 -53 165 -44 l 154 -483 b 81 -544 154 -535 108 -544 b 49 -507 53 -544 49 -528 l 49 886 b 35 939 49 926 35 929 b 79 954 35 949 60 954 b 154 893 125 954 154 926 m 246 451 b 154 335 206 451 169 403 l 154 35 b 285 83 174 64 221 78 b 333 278 318 132 333 226 b 246 451 333 406 293 451 "},"Ŕ":{"ha":788,"x_min":0,"x_max":0,"o":"m 278 728 b 272 772 278 754 272 763 b 308 796 272 786 289 796 b 386 735 354 796 386 768 l 386 281 b 671 631 492 300 671 396 b 440 868 671 736 603 868 b 131 551 226 868 131 714 b 183 382 131 429 181 386 b 204 363 199 386 204 376 b 126 276 204 338 167 246 b 25 543 104 297 25 381 b 439 972 25 800 192 972 b 778 633 642 972 778 831 b 514 229 778 444 660 297 b 729 -139 651 150 635 -37 b 756 -158 736 -147 756 -147 b 661 -231 756 -185 683 -231 b 643 -222 654 -231 649 -228 b 386 186 507 -68 575 135 l 386 -7 b 347 -39 386 -31 368 -39 b 278 1 315 -39 278 -19 m 446 1053 b 400 1028 435 1035 415 1028 b 346 1060 363 1028 346 1044 b 357 1081 346 1067 351 1074 l 483 1226 b 529 1253 486 1242 510 1253 b 586 1213 556 1253 586 1236 b 569 1185 586 1200 576 1193 "},"ŕ":{"ha":426,"x_min":0,"x_max":0,"o":"m 351 -39 b 208 119 286 -39 208 -3 b 278 426 208 208 233 307 l 172 426 l 157 426 b 122 171 156 372 147 251 b 44 210 104 113 32 163 b 67 451 60 265 65 381 b 7 540 32 471 7 500 b 76 604 7 579 40 604 b 164 531 110 604 149 588 b 238 525 210 525 224 525 l 310 525 b 376 447 326 525 382 479 b 314 128 376 431 314 267 b 369 53 314 89 332 53 b 469 203 433 53 457 142 b 503 244 475 232 489 244 b 551 188 525 244 551 214 b 550 178 551 183 550 181 b 351 -39 525 86 471 -39 m 221 656 b 175 631 210 638 190 631 b 121 663 138 631 121 647 b 132 683 121 669 126 676 l 258 829 b 304 856 261 844 285 856 b 361 815 331 856 361 839 b 344 788 361 803 351 796 "},"Ŗ":{"ha":788,"x_min":0,"x_max":0,"o":"m 278 728 b 272 772 278 754 272 763 b 308 796 272 786 289 796 b 386 735 354 796 386 768 l 386 281 b 671 631 492 300 671 396 b 440 868 671 736 603 868 b 131 551 226 868 131 714 b 183 382 131 429 181 386 b 204 363 199 386 204 376 b 126 276 204 338 167 246 b 25 543 104 297 25 381 b 439 972 25 800 192 972 b 778 633 642 972 778 831 b 514 229 778 444 660 297 b 729 -139 651 150 635 -37 b 756 -158 736 -147 756 -147 b 661 -231 756 -185 683 -231 b 643 -222 654 -231 649 -228 b 386 186 507 -68 575 135 l 386 -7 b 347 -39 386 -31 368 -39 b 278 1 315 -39 278 -19 m 438 -86 b 501 -161 471 -86 501 -110 b 407 -301 501 -214 439 -301 b 369 -262 385 -301 369 -278 b 378 -253 369 -256 374 -256 b 421 -208 388 -250 404 -233 b 374 -147 394 -203 374 -181 b 438 -86 374 -108 406 -86 "},"ŗ":{"ha":426,"x_min":0,"x_max":0,"o":"m 351 -39 b 208 119 286 -39 208 -3 b 278 426 208 208 233 307 l 172 426 l 157 426 b 122 171 156 372 147 251 b 44 210 104 113 32 163 b 67 451 60 265 65 381 b 7 540 32 471 7 500 b 76 604 7 579 40 604 b 164 531 110 604 149 588 b 238 525 210 525 224 525 l 310 525 b 376 447 326 525 382 479 b 314 128 376 431 314 267 b 369 53 314 89 332 53 b 469 203 433 53 457 142 b 503 244 475 232 489 244 b 551 188 525 244 551 214 b 550 178 551 183 550 181 b 351 -39 525 86 471 -39 m 188 -72 b 251 -147 221 -72 251 -96 b 157 -287 251 -200 189 -287 b 119 -249 135 -287 119 -264 b 128 -239 119 -242 124 -242 b 171 -194 138 -236 154 -219 b 124 -133 144 -189 124 -167 b 188 -72 124 -94 156 -72 "},"Ř":{"ha":788,"x_min":0,"x_max":0,"o":"m 278 728 b 272 772 278 754 272 763 b 308 796 272 786 289 796 b 386 735 354 796 386 768 l 386 281 b 671 631 492 300 671 396 b 440 868 671 736 603 868 b 131 551 226 868 131 714 b 183 382 131 429 181 386 b 204 363 199 386 204 376 b 126 276 204 338 167 246 b 25 543 104 297 25 381 b 439 972 25 800 192 972 b 778 633 642 972 778 831 b 514 229 778 444 660 297 b 729 -139 651 150 635 -37 b 756 -158 736 -147 756 -147 b 661 -231 756 -185 683 -231 b 643 -222 654 -231 649 -228 b 386 186 507 -68 575 135 l 386 -7 b 347 -39 386 -31 368 -39 b 278 1 315 -39 278 -19 m 294 1200 b 283 1221 289 1207 283 1214 b 346 1253 283 1236 308 1253 b 376 1239 361 1253 372 1246 l 444 1133 l 504 1229 b 538 1253 507 1240 517 1253 b 596 1211 563 1253 596 1231 b 586 1193 596 1206 588 1194 l 497 1065 b 453 1028 489 1040 476 1028 b 386 1067 415 1028 408 1038 "},"ř":{"ha":426,"x_min":0,"x_max":0,"o":"m 351 -39 b 208 119 286 -39 208 -3 b 278 426 208 208 233 307 l 172 426 l 157 426 b 122 171 156 372 147 251 b 44 210 104 113 32 163 b 67 451 60 265 65 381 b 7 540 32 471 7 500 b 76 604 7 579 40 604 b 164 531 110 604 149 588 b 238 525 210 525 224 525 l 310 525 b 376 447 326 525 382 479 b 314 128 376 431 314 267 b 369 53 314 89 332 53 b 469 203 433 53 457 142 b 503 244 475 232 489 244 b 551 188 525 244 551 214 b 550 178 551 183 550 181 b 351 -39 525 86 471 -39 m 69 803 b 58 824 64 810 58 817 b 121 856 58 839 83 856 b 151 842 136 856 147 849 l 219 736 l 279 832 b 313 856 282 843 292 856 b 371 814 338 856 371 833 b 361 796 371 808 363 797 l 272 668 b 228 631 264 643 251 631 b 161 669 190 631 183 640 "},"Ś":{"ha":575,"x_min":0,"x_max":0,"o":"m 281 -50 b 131 19 163 -50 131 11 b 185 100 131 51 164 100 b 200 88 192 100 196 96 b 281 54 204 83 228 54 b 378 151 338 54 378 92 b 39 607 378 317 39 324 b 428 985 39 790 239 985 b 603 806 536 985 603 914 b 339 506 603 651 424 506 b 261 586 290 506 261 557 b 297 596 261 610 274 596 b 497 804 372 596 497 713 b 421 881 497 851 476 881 b 147 607 318 881 147 758 b 488 156 147 392 488 388 b 281 -50 488 43 397 -50 m 400 1067 b 354 1042 389 1049 369 1042 b 300 1074 317 1042 300 1058 b 311 1094 300 1081 306 1088 l 438 1240 b 483 1267 440 1256 464 1267 b 540 1226 510 1267 540 1250 b 524 1199 540 1214 531 1207 "},"ś":{"ha":443,"x_min":0,"x_max":0,"o":"m 128 190 b 47 218 113 132 36 171 b 115 432 61 279 90 358 b 93 497 101 453 93 474 b 211 607 93 544 174 607 b 261 544 244 607 261 582 b 228 450 261 504 229 458 b 378 153 293 335 378 285 b 371 103 378 136 375 118 b 485 203 436 117 469 158 b 517 240 494 229 504 240 b 567 185 540 240 567 204 b 503 78 567 157 535 104 b 317 11 460 43 403 17 b 181 -39 283 -18 238 -39 b 28 19 122 -39 56 -7 b 28 158 -40 85 -3 158 b 251 78 56 158 182 78 b 282 163 267 96 282 128 b 182 358 282 250 231 308 b 128 190 160 304 146 257 m 211 701 b 165 676 200 683 181 676 b 111 708 128 676 111 693 b 122 729 111 715 117 722 l 249 875 b 294 901 251 890 275 901 b 351 861 321 901 351 885 b 335 833 351 849 342 842 "},"Ŝ":{"ha":575,"x_min":0,"x_max":0,"o":"m 281 -50 b 131 19 163 -50 131 11 b 185 100 131 51 164 100 b 200 88 192 100 196 96 b 281 54 204 83 228 54 b 378 151 338 54 378 92 b 39 607 378 317 39 324 b 428 985 39 790 239 985 b 603 806 536 985 603 914 b 339 506 603 651 424 506 b 261 586 290 506 261 557 b 297 596 261 610 274 596 b 497 804 372 596 497 713 b 421 881 497 851 476 881 b 147 607 318 881 147 758 b 488 156 147 392 488 388 b 281 -50 488 43 397 -50 m 544 1094 b 556 1074 550 1088 556 1081 b 493 1042 556 1058 531 1042 b 463 1056 478 1042 467 1049 l 394 1161 l 335 1065 b 301 1042 328 1053 322 1042 b 242 1085 276 1042 242 1065 b 244 1090 242 1088 243 1089 l 342 1229 b 406 1267 358 1254 382 1267 b 453 1228 439 1267 442 1254 "},"ŝ":{"ha":443,"x_min":0,"x_max":0,"o":"m 128 190 b 47 218 113 132 36 171 b 115 432 61 279 90 358 b 93 497 101 453 93 474 b 211 607 93 544 174 607 b 261 544 244 607 261 582 b 228 450 261 504 229 458 b 378 153 293 335 378 285 b 371 103 378 136 375 118 b 485 203 436 117 469 158 b 517 240 494 229 504 240 b 567 185 540 240 567 204 b 503 78 567 157 535 104 b 317 11 460 43 403 17 b 181 -39 283 -18 238 -39 b 28 19 122 -39 56 -7 b 28 158 -40 85 -3 158 b 251 78 56 158 182 78 b 282 163 267 96 282 128 b 182 358 282 250 231 308 b 128 190 160 304 146 257 m 356 729 b 367 708 361 722 367 715 b 304 676 367 693 342 676 b 274 690 289 676 278 683 l 206 796 l 146 700 b 113 676 139 688 133 676 b 53 719 88 676 53 700 b 56 725 53 722 54 724 l 153 864 b 217 901 169 889 193 901 b 264 863 250 901 253 889 "},"Ş":{"ha":575,"x_min":0,"x_max":0,"o":"m 488 156 b 319 -46 488 56 417 -28 l 306 -86 b 418 -207 403 -103 418 -169 b 268 -339 418 -257 379 -339 b 160 -279 189 -339 160 -321 b 179 -246 160 -267 167 -239 b 253 -258 199 -256 232 -258 b 333 -199 301 -258 333 -236 b 221 -122 333 -131 221 -187 b 240 -47 221 -111 233 -71 b 131 19 156 -36 131 11 b 185 100 131 51 164 100 b 200 88 192 100 196 96 b 281 54 204 83 228 54 b 378 151 338 54 378 92 b 39 607 378 317 39 324 b 428 985 39 790 239 985 b 603 806 536 985 603 914 b 339 506 603 651 424 506 b 261 586 290 506 261 557 b 297 596 261 610 274 596 b 497 804 372 596 497 713 b 421 881 497 851 476 881 b 147 607 318 881 147 758 b 488 156 147 392 488 388 "},"ş":{"ha":443,"x_min":0,"x_max":0,"o":"m 128 190 b 47 218 113 132 36 171 b 115 432 61 279 90 358 b 93 497 101 453 93 474 b 211 607 93 544 174 607 b 261 544 244 607 261 582 b 228 450 261 504 229 458 b 378 153 293 335 378 285 b 371 103 378 136 375 118 b 485 203 436 117 469 158 b 517 240 494 229 504 240 b 567 185 540 240 567 204 b 503 78 567 157 535 104 b 317 11 460 43 403 17 b 226 -33 293 -10 263 -26 l 214 -72 b 326 -193 311 -89 326 -156 b 176 -325 326 -243 288 -325 b 68 -265 97 -325 68 -307 b 88 -232 68 -253 75 -225 b 161 -244 107 -242 140 -244 b 242 -185 210 -244 242 -222 b 129 -108 242 -117 129 -174 b 149 -36 129 -97 140 -60 b 28 19 99 -28 50 -1 b 28 158 -40 85 -3 158 b 251 78 56 158 182 78 b 282 163 267 96 282 128 b 182 358 282 250 231 308 b 128 190 160 304 146 257 "},"Š":{"ha":575,"x_min":0,"x_max":0,"o":"m 281 -50 b 131 19 163 -50 131 11 b 185 100 131 51 164 100 b 200 88 192 100 196 96 b 281 54 204 83 228 54 b 378 151 338 54 378 92 b 39 607 378 317 39 324 b 428 985 39 790 239 985 b 603 806 536 985 603 914 b 339 506 603 651 424 506 b 261 586 290 506 261 557 b 297 596 261 610 274 596 b 497 804 372 596 497 713 b 421 881 497 851 476 881 b 147 607 318 881 147 758 b 488 156 147 392 488 388 b 281 -50 488 43 397 -50 m 249 1214 b 238 1235 243 1221 238 1228 b 300 1267 238 1250 263 1267 b 331 1253 315 1267 326 1260 l 399 1147 l 458 1243 b 492 1267 461 1254 471 1267 b 550 1225 517 1267 550 1244 b 540 1207 550 1219 542 1208 l 451 1079 b 407 1042 443 1054 431 1042 b 340 1081 369 1042 363 1051 "},"š":{"ha":443,"x_min":0,"x_max":0,"o":"m 128 190 b 47 218 113 132 36 171 b 115 432 61 279 90 358 b 93 497 101 453 93 474 b 211 607 93 544 174 607 b 261 544 244 607 261 582 b 228 450 261 504 229 458 b 378 153 293 335 378 285 b 371 103 378 136 375 118 b 485 203 436 117 469 158 b 517 240 494 229 504 240 b 567 185 540 240 567 204 b 503 78 567 157 535 104 b 317 11 460 43 403 17 b 181 -39 283 -18 238 -39 b 28 19 122 -39 56 -7 b 28 158 -40 85 -3 158 b 251 78 56 158 182 78 b 282 163 267 96 282 128 b 182 358 282 250 231 308 b 128 190 160 304 146 257 m 60 849 b 49 869 54 856 49 863 b 111 901 49 885 74 901 b 142 888 126 901 138 894 l 210 782 l 269 878 b 303 901 272 889 282 901 b 361 860 328 901 361 879 b 351 842 361 854 353 843 l 263 714 b 218 676 254 689 242 676 b 151 715 181 676 174 686 "},"Ţ":{"ha":713,"x_min":0,"x_max":0,"o":"m 572 78 b 494 -93 572 -44 540 -93 b 404 -12 460 -93 404 -39 b 428 -6 404 6 414 -6 b 464 96 453 -6 464 25 l 464 863 b 135 563 292 849 135 778 b 214 374 135 467 178 410 b 235 354 229 378 235 368 b 168 272 235 318 200 272 b 147 279 161 272 154 274 b 25 563 107 308 25 415 b 524 972 25 829 235 972 b 757 969 590 972 731 969 b 790 981 781 969 786 981 b 807 935 799 981 807 956 b 753 861 807 901 789 861 b 572 865 733 861 638 864 l 572 78 m 499 -157 b 563 -232 532 -157 563 -181 b 468 -372 563 -285 500 -372 b 431 -333 446 -372 431 -349 b 439 -324 431 -326 435 -326 b 482 -279 449 -321 465 -304 b 435 -218 456 -274 435 -251 b 499 -157 435 -179 467 -157 "},"ţ":{"ha":251,"x_min":0,"x_max":0,"o":"m -76 653 b 49 649 -76 653 -26 650 l 49 883 b 35 936 49 924 35 926 b 79 951 35 946 60 951 b 154 890 125 951 154 924 l 154 647 b 431 653 239 647 336 649 b 421 560 469 694 457 561 b 154 557 310 557 228 557 l 154 117 b 201 53 154 72 172 53 b 294 203 257 53 282 142 b 328 244 300 232 314 244 b 376 188 350 244 376 214 b 375 178 376 186 376 183 b 176 -39 351 86 296 -39 b 49 115 101 -39 49 6 l 49 557 b -47 560 -12 557 -47 560 b -76 653 -92 560 -117 653 m 169 -86 b 233 -161 203 -86 233 -110 b 139 -301 233 -214 171 -301 b 101 -262 117 -301 101 -278 b 110 -253 101 -256 106 -256 b 153 -208 119 -250 136 -233 b 106 -147 126 -203 106 -181 b 169 -86 106 -108 138 -86 "},"Ť":{"ha":713,"x_min":0,"x_max":0,"o":"m 572 78 b 494 -93 572 -44 540 -93 b 404 -12 460 -93 404 -39 b 428 -6 404 6 414 -6 b 464 96 453 -6 464 25 l 464 863 b 135 563 292 849 135 778 b 214 374 135 467 178 410 b 235 354 229 378 235 368 b 168 272 235 318 200 272 b 147 279 161 272 154 274 b 25 563 107 308 25 415 b 524 972 25 829 235 972 b 757 969 590 972 731 969 b 790 981 781 969 786 981 b 807 935 799 981 807 956 b 753 861 807 901 789 861 b 572 865 733 861 638 864 l 572 78 m 371 1203 b 360 1224 365 1210 360 1217 b 422 1256 360 1239 385 1256 b 453 1242 438 1256 449 1249 l 521 1136 l 581 1232 b 614 1256 583 1243 593 1256 b 672 1214 639 1256 672 1233 b 663 1196 672 1208 664 1197 l 574 1068 b 529 1031 565 1043 553 1031 b 463 1069 492 1031 485 1040 "},"ť":{"ha":331,"x_min":0,"x_max":0,"o":"m -76 653 b 49 649 -76 653 -26 650 l 49 883 b 35 936 49 924 35 926 b 79 951 35 946 60 951 b 154 890 125 951 154 924 l 154 647 b 431 653 239 647 336 649 b 421 560 469 694 457 561 b 154 557 310 557 228 557 l 154 117 b 201 53 154 72 172 53 b 294 203 257 53 282 142 b 328 244 300 232 314 244 b 376 188 350 244 376 214 b 375 178 376 186 376 183 b 176 -39 351 86 296 -39 b 49 115 101 -39 49 6 l 49 557 b -47 560 -12 557 -47 560 b -76 653 -92 560 -117 653 m 269 926 b 333 851 303 926 333 903 b 239 711 333 799 271 711 b 201 750 217 711 201 735 b 210 760 201 757 206 757 b 253 804 219 763 236 779 b 206 865 226 810 206 832 b 269 926 206 904 238 926 "},"Ŧ":{"ha":713,"x_min":0,"x_max":0,"o":"m 572 78 b 494 -93 572 -44 540 -93 b 404 -12 460 -93 404 -39 b 428 -6 404 6 414 -6 b 464 96 453 -6 464 25 l 464 567 l 304 567 b 268 599 279 567 268 579 b 318 658 268 636 286 658 l 464 658 l 464 863 b 135 563 292 849 135 778 b 214 374 135 467 178 410 b 235 354 229 378 235 368 b 168 272 235 318 200 272 b 147 279 161 272 154 274 b 25 563 107 308 25 415 b 524 972 25 829 235 972 b 757 969 590 972 731 969 b 790 981 781 969 786 981 b 807 935 799 981 807 956 b 753 861 807 901 789 861 b 572 865 733 861 638 864 l 572 658 l 724 658 b 754 622 747 661 754 646 b 718 565 754 596 740 565 b 711 567 717 565 714 565 l 572 567 l 572 78 "},"ŧ":{"ha":251,"x_min":0,"x_max":0,"o":"m 201 53 b 294 203 257 53 282 142 b 328 244 300 232 314 244 b 376 188 350 244 376 214 b 375 178 376 186 376 183 b 176 -39 351 86 296 -39 b 49 115 101 -39 49 6 l 49 357 l -29 357 b -65 389 -54 357 -65 369 b -15 447 -65 426 -47 447 l 49 447 l 49 557 b -47 560 -12 557 -47 560 b -76 653 -92 560 -117 653 b 49 649 -76 653 -26 650 l 49 883 b 35 936 49 924 35 926 b 79 951 35 946 60 951 b 154 890 125 951 154 924 l 154 647 b 431 653 239 647 336 649 b 421 560 469 694 457 561 b 154 557 310 557 228 557 l 154 447 l 265 447 b 296 413 289 450 296 436 b 260 356 296 386 282 356 b 253 357 258 356 256 356 l 154 357 l 154 117 b 201 53 154 72 172 53 "},"Ù":{"ha":856,"x_min":0,"x_max":0,"o":"m 668 133 b 457 -39 611 38 536 -39 b 363 82 418 -39 363 -10 l 363 864 b 135 581 238 849 135 756 b 208 399 135 469 190 399 b 231 404 217 399 224 404 b 242 388 238 404 242 397 b 142 304 242 329 182 275 b 25 581 93 338 25 440 b 415 972 25 875 251 972 b 471 914 444 972 471 947 l 471 90 b 483 71 471 72 478 71 b 668 376 525 71 668 258 l 668 904 b 663 949 668 931 663 939 b 699 972 663 963 679 972 b 776 911 744 972 776 944 l 776 308 b 789 4 776 126 783 49 b 793 -6 792 0 793 -3 b 722 -39 793 -24 753 -39 b 668 131 674 -39 672 18 m 429 1183 b 418 1207 422 1192 418 1200 b 475 1251 418 1233 457 1251 b 515 1225 494 1251 506 1239 l 642 1079 b 653 1058 647 1072 653 1065 b 590 1026 653 1043 628 1026 b 560 1040 575 1026 564 1033 "},"ù":{"ha":506,"x_min":0,"x_max":0,"o":"m 431 -39 b 317 60 368 -39 326 4 b 178 -40 283 1 239 -40 b 31 160 85 -40 31 39 b 81 472 31 307 81 472 b 154 524 90 496 81 524 b 176 447 222 524 182 468 b 136 167 151 344 136 283 b 200 51 136 92 160 51 b 314 239 256 51 297 142 l 314 463 b 300 515 314 503 300 506 b 344 531 300 525 325 531 b 419 469 390 531 419 503 l 419 117 b 456 53 419 104 419 53 b 549 203 511 53 536 142 b 582 244 554 232 568 244 b 631 188 604 244 631 214 b 629 178 631 186 631 183 b 431 -39 604 86 550 -39 m 119 764 b 108 788 113 772 108 781 b 165 832 108 814 147 832 b 206 806 185 832 196 819 l 332 660 b 343 639 338 653 343 646 b 281 607 343 624 318 607 b 250 621 265 607 254 614 "},"Ú":{"ha":856,"x_min":0,"x_max":0,"o":"m 668 133 b 457 -39 611 38 536 -39 b 363 82 418 -39 363 -10 l 363 864 b 135 581 238 849 135 756 b 208 399 135 469 190 399 b 231 404 217 399 224 404 b 242 388 238 404 242 397 b 142 304 242 329 182 275 b 25 581 93 338 25 440 b 415 972 25 875 251 972 b 471 914 444 972 471 947 l 471 90 b 483 71 471 72 478 71 b 668 376 525 71 668 258 l 668 904 b 663 949 668 931 663 939 b 699 972 663 963 679 972 b 776 911 744 972 776 944 l 776 308 b 789 4 776 126 783 49 b 793 -6 792 0 793 -3 b 722 -39 793 -24 753 -39 b 668 131 674 -39 672 18 m 561 1051 b 515 1026 550 1033 531 1026 b 461 1058 478 1026 461 1043 b 472 1079 461 1065 467 1072 l 599 1225 b 644 1251 601 1240 625 1251 b 701 1211 671 1251 701 1235 b 685 1183 701 1199 692 1192 "},"ú":{"ha":506,"x_min":0,"x_max":0,"o":"m 431 -39 b 317 60 368 -39 326 4 b 178 -40 283 1 239 -40 b 31 160 85 -40 31 39 b 81 472 31 307 81 472 b 154 524 90 496 81 524 b 176 447 222 524 182 468 b 136 167 151 344 136 283 b 200 51 136 92 160 51 b 314 239 256 51 297 142 l 314 463 b 300 515 314 503 300 506 b 344 531 300 525 325 531 b 419 469 390 531 419 503 l 419 117 b 456 53 419 104 419 53 b 549 203 511 53 536 142 b 582 244 554 232 568 244 b 631 188 604 244 631 214 b 629 178 631 186 631 183 b 431 -39 604 86 550 -39 m 251 632 b 206 607 240 614 221 607 b 151 639 168 607 151 624 b 163 660 151 646 157 653 l 289 806 b 335 832 292 821 315 832 b 392 792 361 832 392 815 b 375 764 392 779 382 772 "},"Û":{"ha":856,"x_min":0,"x_max":0,"o":"m 668 133 b 457 -39 611 38 536 -39 b 363 82 418 -39 363 -10 l 363 864 b 135 581 238 849 135 756 b 208 399 135 469 190 399 b 231 404 217 399 224 404 b 242 388 238 404 242 397 b 142 304 242 329 182 275 b 25 581 93 338 25 440 b 415 972 25 875 251 972 b 471 914 444 972 471 947 l 471 90 b 483 71 471 72 478 71 b 668 376 525 71 668 258 l 668 904 b 663 949 668 931 663 939 b 699 972 663 963 679 972 b 776 911 744 972 776 944 l 776 308 b 789 4 776 126 783 49 b 793 -6 792 0 793 -3 b 722 -39 793 -24 753 -39 b 668 131 674 -39 672 18 m 706 1079 b 717 1058 711 1072 717 1065 b 654 1026 717 1043 692 1026 b 624 1040 639 1026 628 1033 l 556 1146 l 496 1050 b 463 1026 489 1038 483 1026 b 403 1069 438 1026 403 1050 b 406 1075 403 1072 404 1074 l 503 1214 b 567 1251 519 1239 543 1251 b 614 1213 600 1251 603 1239 "},"û":{"ha":506,"x_min":0,"x_max":0,"o":"m 431 -39 b 317 60 368 -39 326 4 b 178 -40 283 1 239 -40 b 31 160 85 -40 31 39 b 81 472 31 307 81 472 b 154 524 90 496 81 524 b 176 447 222 524 182 468 b 136 167 151 344 136 283 b 200 51 136 92 160 51 b 314 239 256 51 297 142 l 314 463 b 300 515 314 503 300 506 b 344 531 300 525 325 531 b 419 469 390 531 419 503 l 419 117 b 456 53 419 104 419 53 b 549 203 511 53 536 142 b 582 244 554 232 568 244 b 631 188 604 244 631 214 b 629 178 631 186 631 183 b 431 -39 604 86 550 -39 m 396 660 b 407 639 401 653 407 646 b 344 607 407 624 382 607 b 314 621 329 607 318 614 l 246 726 l 186 631 b 153 607 179 618 174 607 b 93 650 128 607 93 631 b 96 656 93 653 94 654 l 193 794 b 257 832 210 819 233 832 b 304 793 290 832 293 819 "},"Ü":{"ha":856,"x_min":0,"x_max":0,"o":"m 668 133 b 457 -39 611 38 536 -39 b 363 82 418 -39 363 -10 l 363 864 b 135 581 238 849 135 756 b 208 399 135 469 190 399 b 231 404 217 399 224 404 b 242 388 238 404 242 397 b 142 304 242 329 182 275 b 25 581 93 338 25 440 b 415 972 25 875 251 972 b 471 914 444 972 471 947 l 471 90 b 483 71 471 72 478 71 b 668 376 525 71 668 258 l 668 904 b 663 949 668 931 663 939 b 699 972 663 963 679 972 b 776 911 744 972 776 944 l 776 308 b 789 4 776 126 783 49 b 793 -6 792 0 793 -3 b 722 -39 793 -24 753 -39 b 668 131 674 -39 672 18 m 394 1119 b 460 1185 394 1156 424 1185 b 525 1119 496 1185 525 1156 b 460 1054 525 1083 496 1054 b 394 1119 424 1054 394 1083 m 594 1119 b 660 1185 594 1156 624 1185 b 725 1119 696 1185 725 1156 b 660 1054 725 1083 696 1054 b 594 1119 624 1054 594 1083 "},"ü":{"ha":506,"x_min":0,"x_max":0,"o":"m 431 -39 b 317 60 368 -39 326 4 b 178 -40 283 1 239 -40 b 31 160 85 -40 31 39 b 81 472 31 307 81 472 b 154 524 90 496 81 524 b 176 447 222 524 182 468 b 136 167 151 344 136 283 b 200 51 136 92 160 51 b 314 239 256 51 297 142 l 314 463 b 300 515 314 503 300 506 b 344 531 300 525 325 531 b 419 469 390 531 419 503 l 419 117 b 456 53 419 104 419 53 b 549 203 511 53 536 142 b 582 244 554 232 568 244 b 631 188 604 244 631 214 b 629 178 631 186 631 183 b 431 -39 604 86 550 -39 m 85 700 b 150 765 85 736 114 765 b 215 700 186 765 215 736 b 150 635 215 664 186 635 b 85 700 114 635 85 664 m 285 700 b 350 765 285 736 314 765 b 415 700 386 765 415 736 b 350 635 415 664 386 635 b 285 700 314 635 285 664 "},"Ũ":{"ha":856,"x_min":0,"x_max":0,"o":"m 668 133 b 457 -39 611 38 536 -39 b 363 82 418 -39 363 -10 l 363 864 b 135 581 238 849 135 756 b 208 399 135 469 190 399 b 231 404 217 399 224 404 b 242 388 238 404 242 397 b 142 304 242 329 182 275 b 25 581 93 338 25 440 b 415 972 25 875 251 972 b 471 914 444 972 471 947 l 471 90 b 483 71 471 72 478 71 b 668 376 525 71 668 258 l 668 904 b 663 949 668 931 663 939 b 699 972 663 963 679 972 b 776 911 744 972 776 944 l 776 308 b 789 4 776 126 783 49 b 793 -6 792 0 793 -3 b 722 -39 793 -24 753 -39 b 668 131 674 -39 672 18 m 468 1072 b 436 1054 468 1060 450 1054 b 386 1082 413 1054 386 1067 b 492 1208 386 1136 429 1208 b 631 1135 567 1208 588 1135 b 658 1178 649 1135 658 1151 b 696 1206 658 1199 681 1206 b 743 1181 718 1206 743 1193 b 633 1047 743 1092 681 1047 b 504 1124 560 1047 525 1124 b 468 1072 478 1124 472 1096 "},"ũ":{"ha":506,"x_min":0,"x_max":0,"o":"m 431 -39 b 317 60 368 -39 326 4 b 178 -40 283 1 239 -40 b 31 160 85 -40 31 39 b 81 472 31 307 81 472 b 154 524 90 496 81 524 b 176 447 222 524 182 468 b 136 167 151 344 136 283 b 200 51 136 92 160 51 b 314 239 256 51 297 142 l 314 463 b 300 515 314 503 300 506 b 344 531 300 525 325 531 b 419 469 390 531 419 503 l 419 117 b 456 53 419 104 419 53 b 549 203 511 53 536 142 b 582 244 554 232 568 244 b 631 188 604 244 631 214 b 629 178 631 186 631 183 b 431 -39 604 86 550 -39 m 158 653 b 126 635 158 640 140 635 b 76 663 103 635 76 647 b 182 789 76 717 119 789 b 321 715 257 789 278 715 b 349 758 339 715 349 732 b 386 786 349 779 371 786 b 433 761 408 786 433 774 b 324 628 433 672 371 628 b 194 704 250 628 215 704 b 158 653 168 704 163 676 "},"Ū":{"ha":856,"x_min":0,"x_max":0,"o":"m 668 133 b 457 -39 611 38 536 -39 b 363 82 418 -39 363 -10 l 363 864 b 135 581 238 849 135 756 b 208 399 135 469 190 399 b 231 404 217 399 224 404 b 242 388 238 404 242 397 b 142 304 242 329 182 275 b 25 581 93 338 25 440 b 415 972 25 875 251 972 b 471 914 444 972 471 947 l 471 90 b 483 71 471 72 478 71 b 668 376 525 71 668 258 l 668 904 b 663 949 668 931 663 939 b 699 972 663 963 679 972 b 776 911 744 972 776 944 l 776 308 b 789 4 776 126 783 49 b 793 -6 792 0 793 -3 b 722 -39 793 -24 753 -39 b 668 131 674 -39 672 18 m 689 1154 b 719 1118 713 1157 719 1142 b 683 1061 719 1092 706 1061 b 676 1063 682 1061 679 1061 l 436 1063 b 400 1094 411 1063 400 1075 b 450 1154 400 1132 418 1154 "},"ū":{"ha":506,"x_min":0,"x_max":0,"o":"m 431 -39 b 317 60 368 -39 326 4 b 178 -40 283 1 239 -40 b 31 160 85 -40 31 39 b 81 472 31 307 81 472 b 154 524 90 496 81 524 b 176 447 222 524 182 468 b 136 167 151 344 136 283 b 200 51 136 92 160 51 b 314 239 256 51 297 142 l 314 463 b 300 515 314 503 300 506 b 344 531 300 525 325 531 b 419 469 390 531 419 503 l 419 117 b 456 53 419 104 419 53 b 549 203 511 53 536 142 b 582 244 554 232 568 244 b 631 188 604 244 631 214 b 629 178 631 186 631 183 b 431 -39 604 86 550 -39 m 379 735 b 410 699 403 738 410 722 b 374 642 410 672 396 642 b 367 643 372 642 369 642 l 126 643 b 90 675 101 643 90 656 b 140 735 90 713 108 735 "},"Ŭ":{"ha":856,"x_min":0,"x_max":0,"o":"m 668 133 b 457 -39 611 38 536 -39 b 363 82 418 -39 363 -10 l 363 864 b 135 581 238 849 135 756 b 208 399 135 469 190 399 b 231 404 217 399 224 404 b 242 388 238 404 242 397 b 142 304 242 329 182 275 b 25 581 93 338 25 440 b 415 972 25 875 251 972 b 471 914 444 972 471 947 l 471 90 b 483 71 471 72 478 71 b 668 376 525 71 668 258 l 668 904 b 663 949 668 931 663 939 b 699 972 663 963 679 972 b 776 911 744 972 776 944 l 776 308 b 789 4 776 126 783 49 b 793 -6 792 0 793 -3 b 722 -39 793 -24 753 -39 b 668 131 674 -39 672 18 m 561 1040 b 392 1206 493 1040 392 1075 b 454 1238 392 1221 417 1238 b 485 1224 469 1238 481 1231 b 560 1125 488 1183 492 1125 b 625 1213 626 1125 625 1181 b 660 1238 628 1224 639 1238 b 718 1196 685 1238 718 1215 b 561 1040 718 1060 608 1040 "},"ŭ":{"ha":506,"x_min":0,"x_max":0,"o":"m 431 -39 b 317 60 368 -39 326 4 b 178 -40 283 1 239 -40 b 31 160 85 -40 31 39 b 81 472 31 307 81 472 b 154 524 90 496 81 524 b 176 447 222 524 182 468 b 136 167 151 344 136 283 b 200 51 136 92 160 51 b 314 239 256 51 297 142 l 314 463 b 300 515 314 503 300 506 b 344 531 300 525 325 531 b 419 469 390 531 419 503 l 419 117 b 456 53 419 104 419 53 b 549 203 511 53 536 142 b 582 244 554 232 568 244 b 631 188 604 244 631 214 b 629 178 631 186 631 183 b 431 -39 604 86 550 -39 m 251 621 b 82 786 183 621 82 656 b 144 818 82 801 107 818 b 175 804 160 818 171 811 b 250 706 178 764 182 706 b 315 793 317 706 315 761 b 350 818 318 804 329 818 b 408 776 375 818 408 796 b 251 621 408 640 299 621 "},"Ů":{"ha":856,"x_min":0,"x_max":0,"o":"m 668 133 b 457 -39 611 38 536 -39 b 363 82 418 -39 363 -10 l 363 864 b 135 581 238 849 135 756 b 208 399 135 469 190 399 b 231 404 217 399 224 404 b 242 388 238 404 242 397 b 142 304 242 329 182 275 b 25 581 93 338 25 440 b 415 972 25 875 251 972 b 471 914 444 972 471 947 l 471 90 b 483 71 471 72 478 71 b 668 376 525 71 668 258 l 668 904 b 663 949 668 931 663 939 b 699 972 663 963 679 972 b 776 911 744 972 776 944 l 776 308 b 789 4 776 126 783 49 b 793 -6 792 0 793 -3 b 722 -39 793 -24 753 -39 b 668 131 674 -39 672 18 m 417 1156 b 560 1299 417 1235 481 1299 b 703 1156 639 1299 703 1235 b 560 1013 703 1076 639 1013 b 417 1156 481 1013 417 1076 m 499 1156 b 560 1094 499 1121 525 1094 b 621 1156 593 1094 621 1121 b 560 1217 621 1189 593 1217 b 499 1156 525 1217 499 1189 "},"ů":{"ha":506,"x_min":0,"x_max":0,"o":"m 431 -39 b 317 60 368 -39 326 4 b 178 -40 283 1 239 -40 b 31 160 85 -40 31 39 b 81 472 31 307 81 472 b 154 524 90 496 81 524 b 176 447 222 524 182 468 b 136 167 151 344 136 283 b 200 51 136 92 160 51 b 314 239 256 51 297 142 l 314 463 b 300 515 314 503 300 506 b 344 531 300 525 325 531 b 419 469 390 531 419 503 l 419 117 b 456 53 419 104 419 53 b 549 203 511 53 536 142 b 582 244 554 232 568 244 b 631 188 604 244 631 214 b 629 178 631 186 631 183 b 431 -39 604 86 550 -39 m 107 736 b 250 879 107 815 171 879 b 393 736 329 879 393 815 b 250 593 393 657 329 593 b 107 736 171 593 107 657 m 189 736 b 250 675 189 701 215 675 b 311 736 283 675 311 701 b 250 797 311 769 283 797 b 189 736 215 797 189 769 "},"Ű":{"ha":856,"x_min":0,"x_max":0,"o":"m 668 133 b 457 -39 611 38 536 -39 b 363 82 418 -39 363 -10 l 363 864 b 135 581 238 849 135 756 b 208 399 135 469 190 399 b 231 404 217 399 224 404 b 242 388 238 404 242 397 b 142 304 242 329 182 275 b 25 581 93 338 25 440 b 415 972 25 875 251 972 b 471 914 444 972 471 947 l 471 90 b 483 71 471 72 478 71 b 668 376 525 71 668 258 l 668 904 b 663 949 668 931 663 939 b 699 972 663 963 679 972 b 776 911 744 972 776 944 l 776 308 b 789 4 776 126 783 49 b 793 -6 792 0 793 -3 b 722 -39 793 -24 753 -39 b 668 131 674 -39 672 18 m 506 1051 b 465 1026 499 1033 481 1026 b 415 1058 428 1026 419 1043 b 422 1079 414 1065 418 1072 l 511 1225 b 550 1251 510 1240 531 1251 b 604 1211 576 1251 599 1235 b 594 1183 607 1199 600 1192 m 681 1051 b 639 1026 672 1033 654 1026 b 589 1058 601 1026 592 1043 b 597 1079 588 1065 592 1072 l 700 1225 b 742 1251 701 1240 722 1251 b 796 1211 768 1251 792 1235 b 783 1183 797 1199 789 1192 "},"ű":{"ha":506,"x_min":0,"x_max":0,"o":"m 431 -39 b 317 60 368 -39 326 4 b 178 -40 283 1 239 -40 b 31 160 85 -40 31 39 b 81 472 31 307 81 472 b 154 524 90 496 81 524 b 176 447 222 524 182 468 b 136 167 151 344 136 283 b 200 51 136 92 160 51 b 314 239 256 51 297 142 l 314 463 b 300 515 314 503 300 506 b 344 531 300 525 325 531 b 419 469 390 531 419 503 l 419 117 b 456 53 419 104 419 53 b 549 203 511 53 536 142 b 582 244 554 232 568 244 b 631 188 604 244 631 214 b 629 178 631 186 631 183 b 431 -39 604 86 550 -39 m 196 632 b 156 607 189 614 171 607 b 106 639 118 607 110 624 b 113 660 104 646 108 653 l 201 806 b 240 832 200 821 221 832 b 294 792 267 832 289 815 b 285 764 297 779 290 772 m 371 632 b 329 607 363 614 344 607 b 279 639 292 607 282 624 b 288 660 278 646 282 653 l 390 806 b 432 832 392 821 413 832 b 486 792 458 832 482 815 b 474 764 488 779 479 772 "},"Ų":{"ha":856,"x_min":0,"x_max":0,"o":"m 668 133 b 457 -39 611 38 536 -39 b 363 82 418 -39 363 -10 l 363 864 b 135 581 238 849 135 756 b 208 399 135 469 190 399 b 231 404 217 399 224 404 b 242 388 238 404 242 397 b 142 304 242 329 182 275 b 25 581 93 338 25 440 b 415 972 25 875 251 972 b 471 914 444 972 471 947 l 471 90 b 483 71 471 72 478 71 b 668 376 525 71 668 258 l 668 904 b 663 949 668 931 663 939 b 699 972 663 963 679 972 b 776 911 744 972 776 944 l 776 308 b 789 4 776 126 783 49 b 793 -6 792 0 793 -3 b 772 -28 793 -17 783 -21 b 650 -157 719 -58 650 -100 b 714 -207 650 -183 665 -207 b 796 -194 735 -207 776 -204 b 815 -228 808 -187 815 -215 b 707 -287 815 -269 786 -287 b 557 -169 596 -287 557 -219 b 679 0 557 -94 606 -53 b 668 131 672 28 669 74 "},"ų":{"ha":506,"x_min":0,"x_max":0,"o":"m 364 -18 b 317 60 339 0 322 31 b 178 -40 283 1 239 -40 b 31 160 85 -40 31 39 b 81 472 31 307 81 472 b 154 524 90 496 81 524 b 176 447 222 524 182 468 b 136 167 151 344 136 283 b 200 51 136 92 160 51 b 314 239 256 51 297 142 l 314 463 b 300 515 314 503 300 506 b 344 531 300 525 325 531 b 419 469 390 531 419 503 l 419 117 b 456 53 419 104 419 53 b 549 203 511 53 536 142 b 582 244 554 232 568 244 b 631 188 604 244 631 214 b 629 178 631 186 631 183 b 471 -40 607 96 563 -3 b 372 -149 421 -61 372 -107 b 436 -199 372 -175 388 -199 b 518 -186 457 -199 499 -196 b 538 -219 531 -179 538 -207 b 429 -279 538 -261 508 -279 b 279 -161 318 -279 279 -211 b 364 -18 279 -104 311 -60 "},"Ŵ":{"ha":761,"x_min":0,"x_max":0,"o":"m 675 182 b 503 -39 675 19 586 -39 b 372 19 478 -39 415 -33 b 253 -39 333 -33 278 -39 b 86 182 167 -39 86 19 l 86 814 b 38 921 86 883 71 910 b 32 926 33 922 32 924 b 121 972 32 939 82 972 b 194 828 156 972 194 940 l 194 168 b 260 63 194 63 242 63 b 326 182 281 63 326 63 l 326 863 b 321 907 326 889 321 897 b 357 931 321 921 338 931 b 435 869 403 931 435 903 l 435 168 b 500 63 435 63 479 63 b 567 168 518 63 567 63 l 567 828 b 639 972 567 940 606 972 b 729 926 679 972 729 939 b 724 921 729 924 728 922 b 675 814 688 910 675 883 m 529 1042 b 540 1021 535 1035 540 1028 b 478 989 540 1006 515 989 b 447 1003 463 989 451 996 l 379 1108 l 319 1013 b 286 989 313 1000 307 989 b 226 1032 261 989 226 1013 b 229 1038 226 1035 228 1036 l 326 1176 b 390 1214 343 1201 367 1214 b 438 1175 424 1214 426 1201 "},"ŵ":{"ha":692,"x_min":0,"x_max":0,"o":"m 292 463 b 286 507 292 489 286 497 b 322 531 286 521 303 531 b 397 469 368 531 397 503 l 397 151 b 465 53 399 93 411 53 b 535 151 518 53 535 99 l 535 463 b 529 507 535 489 529 497 b 565 531 529 521 546 531 b 640 469 611 531 640 503 l 640 151 b 471 -39 640 65 614 -39 b 344 28 411 -39 364 -8 b 218 -39 326 -8 271 -39 b 49 153 64 -39 49 78 l 49 463 b 43 507 49 489 43 497 b 79 531 43 521 60 531 b 154 469 125 531 154 503 l 154 151 b 222 53 154 101 163 53 b 292 151 275 53 292 99 m 488 660 b 499 639 493 653 499 646 b 436 607 499 624 474 607 b 406 621 421 607 410 614 l 338 726 l 278 631 b 244 607 271 618 265 607 b 185 650 219 607 185 631 b 188 656 185 653 186 654 l 285 794 b 349 832 301 819 325 832 b 396 793 382 832 385 819 "},"Ẁ":{"ha":761,"x_min":0,"x_max":0,"o":"m 675 182 b 503 -39 675 19 586 -39 b 372 19 478 -39 415 -33 b 253 -39 333 -33 278 -39 b 86 182 167 -39 86 19 l 86 814 b 38 921 86 883 71 910 b 32 926 33 922 32 924 b 121 972 32 939 82 972 b 194 828 156 972 194 940 l 194 168 b 260 63 194 63 242 63 b 326 182 281 63 326 63 l 326 863 b 321 907 326 889 321 897 b 357 931 321 921 338 931 b 435 869 403 931 435 903 l 435 168 b 500 63 435 63 479 63 b 567 168 518 63 567 63 l 567 828 b 639 972 567 940 606 972 b 729 926 679 972 729 939 b 724 921 729 924 728 922 b 675 814 688 910 675 883 m 253 1146 b 242 1169 246 1154 242 1163 b 299 1214 242 1196 281 1214 b 339 1188 318 1214 329 1201 l 465 1042 b 476 1021 471 1035 476 1028 b 414 989 476 1006 451 989 b 383 1003 399 989 388 996 "},"ẁ":{"ha":692,"x_min":0,"x_max":0,"o":"m 292 463 b 286 507 292 489 286 497 b 322 531 286 521 303 531 b 397 469 368 531 397 503 l 397 151 b 465 53 399 93 411 53 b 535 151 518 53 535 99 l 535 463 b 529 507 535 489 529 497 b 565 531 529 521 546 531 b 640 469 611 531 640 503 l 640 151 b 471 -39 640 65 614 -39 b 344 28 411 -39 364 -8 b 218 -39 326 -8 271 -39 b 49 153 64 -39 49 78 l 49 463 b 43 507 49 489 43 497 b 79 531 43 521 60 531 b 154 469 125 531 154 503 l 154 151 b 222 53 154 101 163 53 b 292 151 275 53 292 99 m 211 764 b 200 788 204 772 200 781 b 257 832 200 814 239 832 b 297 806 276 832 288 819 l 424 660 b 435 639 429 653 435 646 b 372 607 435 624 410 607 b 342 621 357 607 346 614 "},"Ẃ":{"ha":761,"x_min":0,"x_max":0,"o":"m 675 182 b 503 -39 675 19 586 -39 b 372 19 478 -39 415 -33 b 253 -39 333 -33 278 -39 b 86 182 167 -39 86 19 l 86 814 b 38 921 86 883 71 910 b 32 926 33 922 32 924 b 121 972 32 939 82 972 b 194 828 156 972 194 940 l 194 168 b 260 63 194 63 242 63 b 326 182 281 63 326 63 l 326 863 b 321 907 326 889 321 897 b 357 931 321 921 338 931 b 435 869 403 931 435 903 l 435 168 b 500 63 435 63 479 63 b 567 168 518 63 567 63 l 567 828 b 639 972 567 940 606 972 b 729 926 679 972 729 939 b 724 921 729 924 728 922 b 675 814 688 910 675 883 m 385 1014 b 339 989 374 996 354 989 b 285 1021 301 989 285 1006 b 296 1042 285 1028 290 1035 l 422 1188 b 468 1214 425 1203 449 1214 b 525 1174 494 1214 525 1197 b 508 1146 525 1161 515 1154 "},"ẃ":{"ha":692,"x_min":0,"x_max":0,"o":"m 292 463 b 286 507 292 489 286 497 b 322 531 286 521 303 531 b 397 469 368 531 397 503 l 397 151 b 465 53 399 93 411 53 b 535 151 518 53 535 99 l 535 463 b 529 507 535 489 529 497 b 565 531 529 521 546 531 b 640 469 611 531 640 503 l 640 151 b 471 -39 640 65 614 -39 b 344 28 411 -39 364 -8 b 218 -39 326 -8 271 -39 b 49 153 64 -39 49 78 l 49 463 b 43 507 49 489 43 497 b 79 531 43 521 60 531 b 154 469 125 531 154 503 l 154 151 b 222 53 154 101 163 53 b 292 151 275 53 292 99 m 343 632 b 297 607 332 614 313 607 b 243 639 260 607 243 624 b 254 660 243 646 249 653 l 381 806 b 426 832 383 821 407 832 b 483 792 453 832 483 815 b 467 764 483 779 474 772 "},"Ẅ":{"ha":761,"x_min":0,"x_max":0,"o":"m 675 182 b 503 -39 675 19 586 -39 b 372 19 478 -39 415 -33 b 253 -39 333 -33 278 -39 b 86 182 167 -39 86 19 l 86 814 b 38 921 86 883 71 910 b 32 926 33 922 32 924 b 121 972 32 939 82 972 b 194 828 156 972 194 940 l 194 168 b 260 63 194 63 242 63 b 326 182 281 63 326 63 l 326 863 b 321 907 326 889 321 897 b 357 931 321 921 338 931 b 435 869 403 931 435 903 l 435 168 b 500 63 435 63 479 63 b 567 168 518 63 567 63 l 567 828 b 639 972 567 940 606 972 b 729 926 679 972 729 939 b 724 921 729 924 728 922 b 675 814 688 910 675 883 m 218 1082 b 283 1147 218 1118 247 1147 b 349 1082 319 1147 349 1118 b 283 1017 349 1046 319 1017 b 218 1082 247 1017 218 1046 m 418 1082 b 483 1147 418 1118 447 1147 b 549 1082 519 1147 549 1118 b 483 1017 549 1046 519 1017 b 418 1082 447 1017 418 1046 "},"ẅ":{"ha":692,"x_min":0,"x_max":0,"o":"m 292 463 b 286 507 292 489 286 497 b 322 531 286 521 303 531 b 397 469 368 531 397 503 l 397 151 b 465 53 399 93 411 53 b 535 151 518 53 535 99 l 535 463 b 529 507 535 489 529 497 b 565 531 529 521 546 531 b 640 469 611 531 640 503 l 640 151 b 471 -39 640 65 614 -39 b 344 28 411 -39 364 -8 b 218 -39 326 -8 271 -39 b 49 153 64 -39 49 78 l 49 463 b 43 507 49 489 43 497 b 79 531 43 521 60 531 b 154 469 125 531 154 503 l 154 151 b 222 53 154 101 163 53 b 292 151 275 53 292 99 m 176 700 b 242 765 176 736 206 765 b 307 700 278 765 307 736 b 242 635 307 664 278 635 b 176 700 206 635 176 664 m 376 700 b 442 765 376 736 406 765 b 507 700 478 765 507 736 b 442 635 507 664 478 635 b 376 700 406 635 376 664 "},"Ý":{"ha":863,"x_min":0,"x_max":0,"o":"m 776 -7 l 776 -49 b 850 -42 803 -44 828 -43 b 832 -151 915 -37 881 -150 b 775 -154 811 -151 793 -153 b 571 -492 767 -314 732 -492 b 415 -328 476 -492 415 -421 b 668 -74 415 -187 540 -111 l 668 -58 l 668 133 b 457 -39 611 38 536 -39 b 363 82 418 -39 363 -10 l 363 864 b 135 581 238 849 135 756 b 208 399 135 469 190 399 b 231 404 217 399 224 404 b 242 388 238 404 242 397 b 142 304 242 329 182 275 b 25 581 93 338 25 440 b 415 972 25 875 251 972 b 471 914 444 972 471 947 l 471 90 b 483 71 471 72 478 71 b 668 376 525 71 668 258 l 668 904 b 663 949 668 931 663 939 b 699 972 663 963 679 972 b 776 911 744 972 776 944 m 574 -385 b 665 -176 636 -385 658 -286 b 524 -325 574 -204 524 -256 b 574 -385 524 -367 546 -385 m 564 1053 b 518 1028 553 1035 533 1028 b 464 1060 481 1028 464 1044 b 475 1081 464 1067 469 1074 l 601 1226 b 647 1253 604 1242 628 1253 b 704 1213 674 1253 704 1236 b 688 1185 704 1200 694 1193 "},"ý":{"ha":499,"x_min":0,"x_max":0,"o":"m 542 203 b 575 244 550 232 561 244 b 624 188 597 244 624 214 b 622 174 624 186 624 179 b 419 -135 575 13 494 -69 l 419 -375 b 275 -572 419 -521 346 -572 b 142 -412 197 -572 142 -501 b 314 -121 142 -272 222 -201 l 314 56 b 178 -40 281 0 238 -40 b 31 160 85 -40 31 39 b 81 472 31 307 81 472 b 154 524 90 496 81 524 b 176 447 222 524 182 468 b 136 167 151 344 136 283 b 200 51 136 92 160 51 b 314 239 256 51 297 142 l 314 463 b 308 507 314 489 308 497 b 344 531 308 521 325 531 b 419 469 390 531 419 503 l 419 -18 b 542 203 469 38 514 107 m 275 -485 b 314 -375 319 -485 314 -401 l 314 -226 b 239 -408 269 -272 239 -325 b 275 -485 239 -451 253 -485 m 267 632 b 221 607 256 614 236 607 b 167 639 183 607 167 624 b 178 660 167 646 172 653 l 304 806 b 350 832 307 821 331 832 b 407 792 376 832 407 815 b 390 764 407 779 397 772 "},"Ŷ":{"ha":863,"x_min":0,"x_max":0,"o":"m 776 -7 l 776 -49 b 850 -42 803 -44 828 -43 b 832 -151 915 -37 881 -150 b 775 -154 811 -151 793 -153 b 571 -492 767 -314 732 -492 b 415 -328 476 -492 415 -421 b 668 -74 415 -187 540 -111 l 668 -58 l 668 133 b 457 -39 611 38 536 -39 b 363 82 418 -39 363 -10 l 363 864 b 135 581 238 849 135 756 b 208 399 135 469 190 399 b 231 404 217 399 224 404 b 242 388 238 404 242 397 b 142 304 242 329 182 275 b 25 581 93 338 25 440 b 415 972 25 875 251 972 b 471 914 444 972 471 947 l 471 90 b 483 71 471 72 478 71 b 668 376 525 71 668 258 l 668 904 b 663 949 668 931 663 939 b 699 972 663 963 679 972 b 776 911 744 972 776 944 m 574 -385 b 665 -176 636 -385 658 -286 b 524 -325 574 -204 524 -256 b 574 -385 524 -367 546 -385 m 708 1081 b 719 1060 714 1074 719 1067 b 657 1028 719 1044 694 1028 b 626 1042 642 1028 631 1035 l 558 1147 l 499 1051 b 465 1028 492 1039 486 1028 b 406 1071 440 1028 406 1051 b 408 1076 406 1074 407 1075 l 506 1215 b 569 1253 522 1240 546 1253 b 617 1214 603 1253 606 1240 "},"ŷ":{"ha":499,"x_min":0,"x_max":0,"o":"m 542 203 b 575 244 550 232 561 244 b 624 188 597 244 624 214 b 622 174 624 186 624 179 b 419 -135 575 13 494 -69 l 419 -375 b 275 -572 419 -521 346 -572 b 142 -412 197 -572 142 -501 b 314 -121 142 -272 222 -201 l 314 56 b 178 -40 281 0 238 -40 b 31 160 85 -40 31 39 b 81 472 31 307 81 472 b 154 524 90 496 81 524 b 176 447 222 524 182 468 b 136 167 151 344 136 283 b 200 51 136 92 160 51 b 314 239 256 51 297 142 l 314 463 b 308 507 314 489 308 497 b 344 531 308 521 325 531 b 419 469 390 531 419 503 l 419 -18 b 542 203 469 38 514 107 m 275 -485 b 314 -375 319 -485 314 -401 l 314 -226 b 239 -408 269 -272 239 -325 b 275 -485 239 -451 253 -485 m 411 660 b 422 639 417 653 422 646 b 360 607 422 624 397 607 b 329 621 344 607 333 614 l 261 726 l 201 631 b 168 607 194 618 189 607 b 108 650 143 607 108 631 b 111 656 108 653 110 654 l 208 794 b 272 832 225 819 249 832 b 319 793 306 832 308 819 "},"Ÿ":{"ha":863,"x_min":0,"x_max":0,"o":"m 776 -7 l 776 -49 b 850 -42 803 -44 828 -43 b 832 -151 915 -37 881 -150 b 775 -154 811 -151 793 -153 b 571 -492 767 -314 732 -492 b 415 -328 476 -492 415 -421 b 668 -74 415 -187 540 -111 l 668 -58 l 668 133 b 457 -39 611 38 536 -39 b 363 82 418 -39 363 -10 l 363 864 b 135 581 238 849 135 756 b 208 399 135 469 190 399 b 231 404 217 399 224 404 b 242 388 238 404 242 397 b 142 304 242 329 182 275 b 25 581 93 338 25 440 b 415 972 25 875 251 972 b 471 914 444 972 471 947 l 471 90 b 483 71 471 72 478 71 b 668 376 525 71 668 258 l 668 904 b 663 949 668 931 663 939 b 699 972 663 963 679 972 b 776 911 744 972 776 944 m 574 -385 b 665 -176 636 -385 658 -286 b 524 -325 574 -204 524 -256 b 574 -385 524 -367 546 -385 m 397 1121 b 463 1186 397 1157 426 1186 b 528 1121 499 1186 528 1157 b 463 1056 528 1085 499 1056 b 397 1121 426 1056 397 1085 m 597 1121 b 663 1186 597 1157 626 1186 b 728 1121 699 1186 728 1157 b 663 1056 728 1085 699 1056 b 597 1121 626 1056 597 1085 "},"ÿ":{"ha":499,"x_min":0,"x_max":0,"o":"m 542 203 b 575 244 550 232 561 244 b 624 188 597 244 624 214 b 622 174 624 186 624 179 b 419 -135 575 13 494 -69 l 419 -375 b 275 -572 419 -521 346 -572 b 142 -412 197 -572 142 -501 b 314 -121 142 -272 222 -201 l 314 56 b 178 -40 281 0 238 -40 b 31 160 85 -40 31 39 b 81 472 31 307 81 472 b 154 524 90 496 81 524 b 176 447 222 524 182 468 b 136 167 151 344 136 283 b 200 51 136 92 160 51 b 314 239 256 51 297 142 l 314 463 b 308 507 314 489 308 497 b 344 531 308 521 325 531 b 419 469 390 531 419 503 l 419 -18 b 542 203 469 38 514 107 m 275 -485 b 314 -375 319 -485 314 -401 l 314 -226 b 239 -408 269 -272 239 -325 b 275 -485 239 -451 253 -485 m 100 700 b 165 765 100 736 129 765 b 231 700 201 765 231 736 b 165 635 231 664 201 635 b 100 700 129 635 100 664 m 300 700 b 365 765 300 736 329 765 b 431 700 401 765 431 736 b 365 635 431 664 401 635 b 300 700 329 635 300 664 "},"Ỳ":{"ha":863,"x_min":0,"x_max":0,"o":"m 776 -7 l 776 -49 b 850 -42 803 -44 828 -43 b 832 -151 915 -37 881 -150 b 775 -154 811 -151 793 -153 b 571 -492 767 -314 732 -492 b 415 -328 476 -492 415 -421 b 668 -74 415 -187 540 -111 l 668 -58 l 668 133 b 457 -39 611 38 536 -39 b 363 82 418 -39 363 -10 l 363 864 b 135 581 238 849 135 756 b 208 399 135 469 190 399 b 231 404 217 399 224 404 b 242 388 238 404 242 397 b 142 304 242 329 182 275 b 25 581 93 338 25 440 b 415 972 25 875 251 972 b 471 914 444 972 471 947 l 471 90 b 483 71 471 72 478 71 b 668 376 525 71 668 258 l 668 904 b 663 949 668 931 663 939 b 699 972 663 963 679 972 b 776 911 744 972 776 944 m 574 -385 b 665 -176 636 -385 658 -286 b 524 -325 574 -204 524 -256 b 574 -385 524 -367 546 -385 m 432 1185 b 421 1208 425 1193 421 1201 b 478 1253 421 1235 460 1253 b 518 1226 497 1253 508 1240 l 644 1081 b 656 1060 650 1074 656 1067 b 593 1028 656 1044 631 1028 b 563 1042 578 1028 567 1035 "},"ỳ":{"ha":499,"x_min":0,"x_max":0,"o":"m 542 203 b 575 244 550 232 561 244 b 624 188 597 244 624 214 b 622 174 624 186 624 179 b 419 -135 575 13 494 -69 l 419 -375 b 275 -572 419 -521 346 -572 b 142 -412 197 -572 142 -501 b 314 -121 142 -272 222 -201 l 314 56 b 178 -40 281 0 238 -40 b 31 160 85 -40 31 39 b 81 472 31 307 81 472 b 154 524 90 496 81 524 b 176 447 222 524 182 468 b 136 167 151 344 136 283 b 200 51 136 92 160 51 b 314 239 256 51 297 142 l 314 463 b 308 507 314 489 308 497 b 344 531 308 521 325 531 b 419 469 390 531 419 503 l 419 -18 b 542 203 469 38 514 107 m 275 -485 b 314 -375 319 -485 314 -401 l 314 -226 b 239 -408 269 -272 239 -325 b 275 -485 239 -451 253 -485 m 135 764 b 124 788 128 772 124 781 b 181 832 124 814 163 832 b 221 806 200 832 211 819 l 347 660 b 358 639 353 653 358 646 b 296 607 358 624 333 607 b 265 621 281 607 269 614 "},"Ź":{"ha":676,"x_min":0,"x_max":0,"o":"m 219 -346 b 457 -96 219 -211 335 -135 b 300 35 432 -14 375 32 b 253 103 269 36 253 74 b 276 138 253 122 260 138 b 288 136 279 138 283 138 b 524 596 297 135 524 221 b 339 864 524 833 389 864 b 150 601 243 864 150 771 b 288 357 150 425 246 357 b 310 361 297 357 304 361 b 317 342 314 361 317 357 b 247 257 317 293 290 257 b 39 594 183 257 39 371 b 342 972 39 853 201 972 b 635 589 513 972 635 825 b 428 101 635 315 514 174 b 561 -71 481 78 535 25 b 654 -60 594 -64 626 -61 b 636 -169 719 -56 685 -168 b 576 -174 615 -169 596 -171 b 578 -206 578 -183 578 -194 b 375 -510 578 -346 532 -510 b 219 -346 281 -510 219 -439 m 472 -193 b 328 -343 379 -221 328 -274 b 378 -403 328 -385 350 -403 b 472 -204 443 -403 472 -296 m 358 1053 b 313 1028 347 1035 328 1028 b 258 1060 275 1028 258 1044 b 269 1081 258 1067 264 1074 l 396 1226 b 442 1253 399 1242 422 1253 b 499 1213 468 1253 499 1236 b 482 1185 499 1200 489 1193 "},"ź":{"ha":500,"x_min":0,"x_max":0,"o":"m 143 -412 b 324 -112 143 -268 229 -197 b 186 35 308 -35 271 35 l 167 111 b 368 364 264 139 368 225 b 289 453 368 411 343 453 b 125 185 219 453 176 400 b 47 221 106 106 40 186 b 289 544 82 403 128 544 b 474 353 406 544 474 460 b 296 99 474 236 394 143 b 410 -29 349 69 386 32 b 543 203 464 28 514 100 b 576 244 551 232 563 244 b 625 188 599 244 625 214 b 624 174 625 186 625 179 b 432 -124 578 21 504 -61 b 440 -257 438 -161 440 -206 b 276 -572 440 -403 403 -572 b 143 -412 199 -572 143 -501 m 335 -276 b 333 -208 335 -257 335 -233 b 240 -408 279 -258 240 -314 b 276 -485 240 -451 254 -485 b 335 -276 329 -485 335 -351 m 290 639 b 244 614 279 621 260 614 b 190 646 207 614 190 631 b 201 667 190 653 196 660 l 328 813 b 374 839 331 828 354 839 b 431 799 400 839 431 822 b 414 771 431 786 421 779 "},"Ż":{"ha":676,"x_min":0,"x_max":0,"o":"m 219 -346 b 457 -96 219 -211 335 -135 b 300 35 432 -14 375 32 b 253 103 269 36 253 74 b 276 138 253 122 260 138 b 288 136 279 138 283 138 b 524 596 297 135 524 221 b 339 864 524 833 389 864 b 150 601 243 864 150 771 b 288 357 150 425 246 357 b 310 361 297 357 304 361 b 317 342 314 361 317 357 b 247 257 317 293 290 257 b 39 594 183 257 39 371 b 342 972 39 853 201 972 b 635 589 513 972 635 825 b 428 101 635 315 514 174 b 561 -71 481 78 535 25 b 654 -60 594 -64 626 -61 b 636 -169 719 -56 685 -168 b 576 -174 615 -169 596 -171 b 578 -206 578 -183 578 -194 b 375 -510 578 -346 532 -510 b 219 -346 281 -510 219 -439 m 472 -193 b 328 -343 379 -221 328 -274 b 378 -403 328 -385 350 -403 b 472 -204 443 -403 472 -296 m 288 1111 b 357 1181 288 1150 318 1181 b 426 1111 396 1181 426 1150 b 357 1042 426 1072 396 1042 b 288 1111 318 1042 288 1072 "},"ż":{"ha":500,"x_min":0,"x_max":0,"o":"m 143 -412 b 324 -112 143 -268 229 -197 b 186 35 308 -35 271 35 l 167 111 b 368 364 264 139 368 225 b 289 453 368 411 343 453 b 125 185 219 453 176 400 b 47 221 106 106 40 186 b 289 544 82 403 128 544 b 474 353 406 544 474 460 b 296 99 474 236 394 143 b 410 -29 349 69 386 32 b 543 203 464 28 514 100 b 576 244 551 232 563 244 b 625 188 599 244 625 214 b 624 174 625 186 625 179 b 432 -124 578 21 504 -61 b 440 -257 438 -161 440 -206 b 276 -572 440 -403 403 -572 b 143 -412 199 -572 143 -501 m 335 -276 b 333 -208 335 -257 335 -233 b 240 -408 279 -258 240 -314 b 276 -485 240 -451 254 -485 b 335 -276 329 -485 335 -351 m 219 697 b 289 767 219 736 250 767 b 358 697 328 767 358 736 b 289 628 358 658 328 628 b 219 697 250 628 219 658 "},"Ž":{"ha":676,"x_min":0,"x_max":0,"o":"m 219 -346 b 457 -96 219 -211 335 -135 b 300 35 432 -14 375 32 b 253 103 269 36 253 74 b 276 138 253 122 260 138 b 288 136 279 138 283 138 b 524 596 297 135 524 221 b 339 864 524 833 389 864 b 150 601 243 864 150 771 b 288 357 150 425 246 357 b 310 361 297 357 304 361 b 317 342 314 361 317 357 b 247 257 317 293 290 257 b 39 594 183 257 39 371 b 342 972 39 853 201 972 b 635 589 513 972 635 825 b 428 101 635 315 514 174 b 561 -71 481 78 535 25 b 654 -60 594 -64 626 -61 b 636 -169 719 -56 685 -168 b 576 -174 615 -169 596 -171 b 578 -206 578 -183 578 -194 b 375 -510 578 -346 532 -510 b 219 -346 281 -510 219 -439 m 472 -193 b 328 -343 379 -221 328 -274 b 378 -403 328 -385 350 -403 b 472 -204 443 -403 472 -296 m 207 1200 b 196 1221 201 1207 196 1214 b 258 1253 196 1236 221 1253 b 289 1239 274 1253 285 1246 l 357 1133 l 417 1229 b 450 1253 419 1240 429 1253 b 508 1211 475 1253 508 1231 b 499 1193 508 1206 500 1194 l 410 1065 b 365 1028 401 1040 389 1028 b 299 1067 328 1028 321 1038 "},"ž":{"ha":500,"x_min":0,"x_max":0,"o":"m 143 -412 b 324 -112 143 -268 229 -197 b 186 35 308 -35 271 35 l 167 111 b 368 364 264 139 368 225 b 289 453 368 411 343 453 b 125 185 219 453 176 400 b 47 221 106 106 40 186 b 289 544 82 403 128 544 b 474 353 406 544 474 460 b 296 99 474 236 394 143 b 410 -29 349 69 386 32 b 543 203 464 28 514 100 b 576 244 551 232 563 244 b 625 188 599 244 625 214 b 624 174 625 186 625 179 b 432 -124 578 21 504 -61 b 440 -257 438 -161 440 -206 b 276 -572 440 -403 403 -572 b 143 -412 199 -572 143 -501 m 335 -276 b 333 -208 335 -257 335 -233 b 240 -408 279 -258 240 -314 b 276 -485 240 -451 254 -485 b 335 -276 329 -485 335 -351 m 139 786 b 128 807 133 793 128 800 b 190 839 128 822 153 839 b 221 825 206 839 217 832 l 289 719 l 349 815 b 382 839 351 826 361 839 b 440 797 407 839 440 817 b 431 779 440 792 432 781 l 342 651 b 297 614 333 626 321 614 b 231 653 260 614 253 624 "},"$":{"ha":549,"x_min":0,"x_max":0,"o":"m 240 43 b 107 106 153 51 107 99 b 157 176 107 133 138 176 b 240 133 174 176 189 142 l 240 338 b 39 596 149 389 39 450 b 240 882 39 708 129 826 l 240 992 b 233 1010 240 996 233 1003 b 274 1025 233 1021 247 1025 b 317 990 300 1025 317 1017 l 317 910 b 368 915 333 913 350 915 b 518 761 461 915 518 854 b 414 592 518 676 467 592 b 360 632 390 592 367 611 b 372 661 353 651 364 661 b 415 754 406 661 415 708 b 357 814 415 792 400 814 b 317 807 344 814 331 811 l 317 408 b 456 219 388 365 456 315 b 317 50 456 139 393 72 l 317 -61 b 289 -86 317 -79 308 -86 b 240 -46 263 -86 240 -74 m 144 596 b 240 454 144 531 186 490 l 240 767 b 144 596 188 726 144 665 m 358 215 b 317 289 358 244 342 268 l 317 142 b 358 215 346 156 358 183 "},"¢":{"ha":499,"x_min":0,"x_max":0,"o":"m 235 176 b 53 432 135 200 53 288 b 235 743 53 568 125 706 l 235 867 b 228 885 235 871 228 878 b 268 900 228 896 242 900 b 311 865 294 900 311 892 l 311 751 b 433 617 399 742 433 663 b 346 585 433 564 338 536 b 311 651 339 603 336 636 l 311 261 b 372 281 335 263 360 272 b 432 207 432 332 485 246 b 311 169 400 185 361 171 l 311 36 b 283 11 311 18 303 11 b 235 51 257 11 235 24 m 161 432 b 235 276 161 354 189 301 l 235 643 b 161 432 189 610 161 528 "},"£":{"ha":658,"x_min":0,"x_max":0,"o":"m 301 322 b 329 172 317 269 329 218 b 304 72 329 146 319 100 b 438 42 353 54 390 42 b 540 185 529 42 540 115 b 538 210 540 197 538 204 b 554 219 538 217 543 219 b 631 161 603 219 631 197 b 447 -51 631 53 565 -51 b 251 -4 385 -51 308 -25 b 144 -39 226 -25 181 -39 b 14 46 64 -39 14 -8 b 215 103 14 140 146 131 b 229 161 224 121 229 142 b 194 322 229 217 214 268 l 86 322 b 46 383 57 322 46 354 b 67 411 46 399 53 411 l 161 411 b 118 638 138 476 118 549 b 400 972 118 804 222 972 b 583 776 510 972 583 885 b 499 614 583 713 554 614 b 436 668 442 614 399 669 b 481 765 469 667 481 733 b 386 865 481 819 443 865 b 229 619 299 865 229 779 b 272 411 229 553 250 481 l 450 411 b 438 322 493 443 469 322 "},"¥":{"ha":919,"x_min":0,"x_max":0,"o":"m 785 -129 b 581 -492 781 -293 751 -492 b 425 -328 486 -492 425 -421 b 504 -161 425 -257 453 -200 b 522 -156 510 -157 515 -156 b 585 -226 553 -156 585 -203 b 574 -239 585 -233 582 -239 b 568 -237 572 -239 569 -237 b 533 -325 544 -262 533 -292 b 583 -385 533 -367 556 -385 b 676 -129 654 -385 672 -257 l 574 -129 b 533 -68 544 -129 533 -97 b 554 -40 533 -53 540 -40 l 678 -40 l 678 24 l 574 24 b 533 85 544 24 533 56 b 554 113 533 100 540 113 l 678 113 l 678 300 b 467 128 621 204 546 128 b 372 249 428 128 372 157 l 372 864 b 144 581 247 849 144 756 b 218 399 144 469 200 399 b 240 404 226 399 233 404 b 251 388 247 404 251 397 b 151 304 251 329 192 275 b 35 581 103 338 35 440 b 425 972 35 875 261 972 b 481 914 454 972 481 947 l 481 257 b 493 238 481 239 488 238 b 678 543 535 238 678 425 l 678 904 b 672 949 678 931 672 939 b 708 972 672 963 689 972 b 786 911 754 972 786 944 l 786 113 l 868 113 b 856 24 911 144 888 24 l 786 24 l 786 -7 l 786 -40 l 868 -40 b 856 -129 911 -8 888 -129 "},"ƒ":{"ha":596,"x_min":0,"x_max":0,"o":"m -64 -242 b -69 -224 -68 -235 -69 -231 b -7 -144 -69 -193 -35 -144 b 8 -157 0 -144 4 -149 b 61 -206 19 -185 31 -206 b 133 -89 99 -206 122 -160 l 214 465 l 144 465 b 104 526 115 465 104 497 b 125 554 104 542 111 554 l 228 554 l 258 765 b 449 972 276 892 347 972 b 582 822 521 972 582 906 b 492 760 582 788 532 760 b 474 769 481 760 474 763 b 488 801 474 776 488 785 b 436 872 488 840 471 872 b 360 732 396 872 372 821 l 333 554 l 436 554 b 449 560 440 558 444 560 b 460 538 456 560 460 550 b 424 465 460 510 443 465 l 319 465 l 238 -99 b 58 -306 218 -225 157 -306 b -64 -242 -3 -306 -43 -274 "},"€":{"ha":619,"x_min":0,"x_max":0,"o":"m 185 328 b 356 75 197 192 253 75 b 497 158 442 75 496 157 b 568 86 533 218 601 119 b 346 -29 565 82 482 -29 b 74 328 196 -29 89 108 l 40 328 b 0 389 11 328 0 360 b 21 417 0 404 7 417 l 72 417 b 79 494 74 442 76 468 l 40 494 b 0 556 11 494 0 526 b 21 583 0 571 7 583 l 96 583 b 432 971 143 786 260 971 b 592 788 515 971 592 908 b 535 679 592 747 585 679 b 469 729 493 679 444 707 b 482 792 478 750 482 771 b 419 869 482 824 467 869 b 207 583 325 869 244 740 l 375 583 b 363 494 418 615 394 494 l 190 494 b 183 417 188 468 185 442 l 335 417 b 322 328 378 449 354 328 "},"¤":{"ha":664,"x_min":0,"x_max":0,"o":"m 133 353 b 97 482 110 390 97 433 b 132 607 97 528 110 571 l 67 674 b 40 694 58 682 40 685 b 108 758 40 717 79 758 b 126 751 115 758 121 757 l 200 678 b 331 717 236 703 282 717 b 461 679 379 717 424 703 l 531 749 b 551 760 539 760 546 760 b 597 693 569 760 597 728 b 590 672 597 685 594 676 l 529 611 b 567 482 553 574 567 529 b 528 350 567 432 553 388 l 600 278 b 604 267 603 275 604 271 b 546 197 604 243 568 197 b 538 201 543 197 540 199 l 457 282 b 331 247 421 260 378 247 b 203 285 283 247 239 261 l 122 204 b 110 200 119 201 115 200 b 56 263 88 200 56 232 b 65 285 56 271 58 278 m 186 481 b 331 336 186 401 251 336 b 478 481 410 336 478 401 b 331 628 478 560 410 628 b 186 481 251 628 186 560 "},"%":{"ha":786,"x_min":0,"x_max":0,"o":"m 193 482 b 35 726 107 482 35 550 b 193 972 35 903 107 972 b 350 726 279 972 350 903 b 193 482 350 550 279 482 m 193 897 b 126 726 147 897 126 846 b 193 557 126 607 147 557 b 258 726 239 557 258 607 b 193 897 258 846 239 897 m 611 950 b 611 964 613 953 611 961 b 626 974 611 972 619 974 b 690 924 649 974 690 953 b 688 908 690 919 692 915 l 168 -17 b 150 -26 164 -24 157 -26 b 96 18 129 -26 96 -11 b 101 38 96 22 97 32 m 594 -28 b 436 217 508 -28 436 40 b 594 463 436 393 508 463 b 751 217 681 463 751 393 b 594 -28 751 40 681 -28 m 594 388 b 528 217 549 388 528 336 b 594 47 528 97 549 47 b 660 217 640 47 660 97 b 594 388 660 336 640 388 "},"‰":{"ha":1147,"x_min":0,"x_max":0,"o":"m 193 482 b 35 726 107 482 35 550 b 193 972 35 903 107 972 b 350 726 279 972 350 903 b 193 482 350 550 279 482 m 193 897 b 126 726 147 897 126 846 b 193 557 126 607 147 557 b 258 726 239 557 258 607 b 193 897 258 846 239 897 m 611 950 b 611 964 613 953 611 961 b 626 974 611 972 619 974 b 690 924 649 974 690 953 b 688 908 690 919 692 915 l 168 -17 b 150 -26 164 -24 157 -26 b 96 18 129 -26 96 -11 b 101 38 96 22 97 32 m 594 -28 b 436 217 508 -28 436 40 b 594 463 436 393 508 463 b 751 217 681 463 751 393 b 594 -28 751 40 681 -28 m 594 388 b 528 217 549 388 528 336 b 594 47 528 97 549 47 b 660 217 640 47 660 97 b 594 388 660 336 640 388 m 956 -28 b 797 217 869 -28 797 40 b 956 463 797 393 869 463 b 1113 217 1042 463 1113 393 b 956 -28 1113 40 1042 -28 m 956 388 b 889 217 910 388 889 336 b 956 47 889 97 910 47 b 1021 217 1001 47 1021 97 b 956 388 1021 336 1001 388 "},"#":{"ha":646,"x_min":0,"x_max":0,"o":"m 163 392 l 188 524 l 93 524 b 69 554 76 524 69 538 b 107 600 69 576 85 600 l 201 600 l 243 817 b 267 846 243 832 247 846 b 325 801 296 846 333 835 l 286 600 l 410 600 l 451 817 b 475 846 451 832 456 846 b 533 801 504 846 542 835 l 494 600 l 582 600 b 593 601 586 600 589 601 b 618 572 608 601 618 590 b 569 524 618 536 596 524 l 479 524 l 454 392 l 540 392 b 551 393 544 392 547 393 b 576 364 567 393 576 382 b 528 315 576 328 554 315 l 440 315 l 394 75 b 363 58 394 61 378 58 b 315 96 339 58 315 76 b 317 108 315 100 315 101 l 356 315 l 232 315 l 186 75 b 154 58 186 61 169 58 b 107 96 131 58 107 76 b 108 108 107 100 107 101 l 147 315 l 51 315 b 28 346 35 315 28 329 b 65 392 28 368 43 392 m 246 392 l 371 392 l 396 524 l 271 524 "},"¹":{"ha":301,"x_min":0,"x_max":0,"o":"m 128 836 b 72 792 103 800 85 792 b 28 838 47 792 28 821 b 49 857 28 853 39 847 b 136 957 67 874 136 957 b 161 972 138 967 147 972 b 218 935 193 972 218 954 l 218 407 b 182 383 218 389 199 383 b 128 411 157 383 128 397 "},"²":{"ha":399,"x_min":0,"x_max":0,"o":"m 310 468 b 336 479 326 468 329 479 b 350 443 342 479 350 457 b 307 389 350 415 336 389 l 103 389 b 63 425 82 389 63 404 b 75 451 63 433 69 444 b 264 801 86 463 264 631 b 196 897 264 883 219 897 b 125 801 160 897 125 875 b 153 713 125 753 143 714 b 165 704 161 717 167 717 b 119 663 164 681 144 663 b 35 801 69 663 35 740 b 197 972 35 919 119 972 b 357 799 303 972 357 883 b 192 468 357 665 256 540 "},"³":{"ha":389,"x_min":0,"x_max":0,"o":"m 28 807 b 190 972 28 921 113 972 b 347 792 297 972 347 878 b 254 608 347 693 306 642 b 328 496 288 589 328 557 b 192 375 328 426 265 375 b 61 488 111 375 61 443 b 122 514 61 506 99 514 b 149 494 140 514 149 513 b 194 450 149 489 157 450 b 238 496 217 450 238 467 b 165 575 238 557 190 571 b 135 615 147 578 135 590 b 165 639 135 633 149 639 b 257 794 208 639 257 699 b 186 897 257 869 225 897 b 118 806 150 897 118 871 b 147 726 118 760 136 726 b 163 719 153 726 163 732 b 113 676 163 704 142 676 b 28 807 64 676 28 749 "},"¼":{"ha":850,"x_min":0,"x_max":0,"o":"m 740 142 l 740 4 b 701 -19 740 -14 718 -19 b 650 8 676 -19 650 -6 l 650 143 l 628 143 b 489 140 553 143 508 140 b 442 186 464 140 442 172 b 454 208 442 196 446 199 b 506 496 501 321 506 444 b 500 525 506 504 500 519 b 538 540 500 536 518 540 b 594 488 560 540 594 531 b 549 217 594 424 582 301 b 642 218 578 218 613 218 l 650 218 l 650 525 b 642 556 650 544 642 546 b 678 569 642 565 661 569 b 740 528 713 569 740 550 l 740 218 b 763 221 749 219 757 219 b 776 228 764 225 771 228 b 794 199 792 228 794 213 b 753 142 794 171 782 142 m 582 942 b 582 956 583 944 582 953 b 597 965 582 964 590 965 b 661 915 619 965 661 944 b 658 900 661 911 663 907 l 158 10 b 140 0 154 3 147 0 b 86 44 119 0 86 15 b 92 64 86 49 88 58 m 128 836 b 72 792 103 800 85 792 b 28 838 47 792 28 821 b 49 857 28 853 39 847 b 136 957 67 874 136 957 b 161 972 138 967 147 972 b 218 935 193 972 218 954 l 218 407 b 182 383 218 389 199 383 b 128 411 157 383 128 397 "},"½":{"ha":842,"x_min":0,"x_max":0,"o":"m 582 942 b 582 956 583 944 582 953 b 597 965 582 964 590 965 b 661 915 619 965 661 944 b 658 900 661 911 663 907 l 158 10 b 140 0 154 3 147 0 b 86 44 119 0 86 15 b 92 64 86 49 88 58 m 128 836 b 72 792 103 800 85 792 b 28 838 47 792 28 821 b 49 857 28 853 39 847 b 136 957 67 874 136 957 b 161 972 138 967 147 972 b 218 935 193 972 218 954 l 218 407 b 182 383 218 389 199 383 b 128 411 157 383 128 397 m 739 65 b 765 76 756 65 758 76 b 779 40 771 76 779 54 b 736 -14 779 13 765 -14 l 532 -14 b 492 22 511 -14 492 1 b 504 49 492 31 499 42 b 693 399 515 60 693 228 b 625 494 693 481 649 494 b 554 399 589 494 554 472 b 582 310 554 350 572 311 b 594 301 590 314 596 314 b 549 260 593 278 574 260 b 464 399 499 260 464 338 b 626 569 464 517 549 569 b 786 396 732 569 786 481 b 621 65 786 263 685 138 "},"¾":{"ha":928,"x_min":0,"x_max":0,"o":"m 818 142 l 818 4 b 779 -19 818 -14 796 -19 b 728 8 754 -19 728 -6 l 728 143 l 706 143 b 567 140 631 143 586 140 b 519 186 542 140 519 172 b 532 208 519 196 524 199 b 583 496 579 321 583 444 b 578 525 583 504 578 519 b 615 540 578 536 596 540 b 672 488 638 540 672 531 b 626 217 672 424 660 301 b 719 218 656 218 690 218 l 728 218 l 728 525 b 719 556 728 544 719 546 b 756 569 719 565 739 569 b 818 528 790 569 818 550 l 818 218 b 840 221 826 219 835 219 b 854 228 842 225 849 228 b 872 199 869 228 872 213 b 831 142 872 171 860 142 m 28 807 b 190 972 28 921 113 972 b 347 792 297 972 347 878 b 254 608 347 693 306 642 b 328 496 288 589 328 557 b 192 375 328 426 265 375 b 61 488 111 375 61 443 b 122 514 61 506 99 514 b 149 494 140 514 149 513 b 194 450 149 489 157 450 b 238 496 217 450 238 467 b 165 575 238 557 190 571 b 135 615 147 578 135 590 b 165 639 135 633 149 639 b 257 794 208 639 257 699 b 186 897 257 869 225 897 b 118 806 150 897 118 871 b 147 726 118 760 136 726 b 163 719 153 726 163 732 b 113 676 163 704 142 676 b 28 807 64 676 28 749 m 660 942 b 660 956 661 944 660 953 b 675 965 660 964 668 965 b 739 915 697 965 739 944 b 736 900 739 911 740 907 l 236 10 b 218 0 232 3 225 0 b 164 44 197 0 164 15 b 169 64 164 49 165 58 "},"°":{"ha":368,"x_min":0,"x_max":0,"o":"m 69 857 b 183 972 69 921 121 972 b 299 857 247 972 299 921 b 183 743 299 794 247 743 b 69 857 121 743 69 794 m 136 857 b 183 810 136 829 156 810 b 232 857 211 810 232 829 b 183 906 232 885 211 906 b 136 857 156 906 136 885 "},"ª":{"ha":422,"x_min":0,"x_max":0,"o":"m 158 532 b 28 692 72 532 28 601 b 282 975 28 867 151 975 b 335 928 313 975 335 957 b 317 901 335 910 331 901 b 286 904 307 901 297 904 b 119 689 210 904 119 838 b 174 606 119 636 140 606 b 226 658 199 606 215 629 l 226 804 b 222 838 226 825 222 824 b 254 858 222 849 238 858 b 317 810 292 858 317 836 l 317 651 b 346 606 317 629 325 606 b 368 614 354 606 364 607 b 379 621 371 619 372 621 b 408 576 392 621 408 597 b 328 532 408 544 361 532 b 246 569 293 532 264 546 b 158 532 225 547 196 532 m 346 475 b 376 439 369 478 376 463 b 340 392 376 413 363 392 b 333 393 339 392 336 392 l 85 393 b 49 425 60 393 49 406 b 99 475 49 463 67 475 "},"º":{"ha":442,"x_min":0,"x_max":0,"o":"m 376 667 b 392 671 381 669 386 671 b 428 628 411 671 428 647 b 363 599 428 600 390 599 b 314 604 344 599 329 601 b 186 531 288 560 247 531 b 28 726 76 531 28 621 b 140 975 28 882 115 975 b 179 926 161 975 179 949 b 163 893 179 917 172 907 b 118 733 144 869 118 831 b 188 604 118 647 150 604 b 244 640 214 604 232 618 b 169 826 196 683 169 751 b 258 951 169 894 199 951 b 353 774 311 951 353 876 b 339 664 353 736 349 697 b 354 663 344 663 349 663 b 376 667 363 663 371 663 m 235 831 b 265 722 235 789 246 751 b 267 757 267 733 267 746 b 247 878 267 826 264 878 b 235 831 239 878 235 863 m 332 475 b 363 439 356 478 363 463 b 326 392 363 413 349 392 b 319 393 325 392 322 392 l 78 393 b 42 425 53 393 42 406 b 92 475 42 463 60 475 "},"+":{"ha":556,"x_min":0,"x_max":0,"o":"m 229 486 l 229 631 b 224 647 229 640 224 642 b 260 657 224 653 235 657 b 326 633 285 657 326 653 l 326 486 l 471 486 b 489 493 481 486 485 493 b 503 464 499 493 503 479 b 460 389 503 435 485 389 l 326 389 l 326 243 b 229 233 326 215 231 203 l 229 389 l 76 389 b 54 428 63 389 54 407 b 93 486 54 453 67 486 "},"−":{"ha":556,"x_min":0,"x_max":0,"o":"m 457 486 b 475 493 467 486 471 493 b 489 464 485 493 489 479 b 446 389 489 435 471 389 l 90 389 b 68 428 76 389 68 407 b 107 486 68 453 81 486 "},"=":{"ha":556,"x_min":0,"x_max":0,"o":"m 457 389 b 475 396 467 389 471 396 b 489 367 485 396 489 382 b 446 292 489 338 471 292 l 90 292 b 68 331 76 292 68 310 b 107 389 68 356 81 389 m 457 583 b 475 590 467 583 471 590 b 489 561 485 590 489 576 b 446 486 489 532 471 486 l 90 486 b 68 525 76 486 68 504 b 107 583 68 550 81 583 "},"≠":{"ha":556,"x_min":0,"x_max":0,"o":"m 181 292 l 90 292 b 68 331 76 292 68 310 b 107 389 68 356 81 389 l 215 389 l 249 486 l 90 486 b 68 525 76 486 68 504 b 107 583 68 550 81 583 l 282 583 l 335 733 b 333 750 336 738 333 744 b 347 760 333 756 338 760 b 417 708 368 760 417 742 b 415 699 417 707 417 701 l 375 583 l 457 583 b 475 590 467 583 471 590 b 489 561 485 590 489 576 b 446 486 489 532 471 486 l 340 486 l 307 389 l 457 389 b 475 396 467 389 471 396 b 489 367 485 396 489 382 b 446 292 489 338 471 292 l 272 292 l 208 107 b 183 94 204 97 194 94 b 126 131 160 94 126 104 b 129 143 126 135 128 139 "}}}
